AAA-ManuscriptMarcus-Regular.ufo
<glyph name="quotedbl" format="2">
  <advance width="551"/>
  <unicode hex="0022"/>
  <note>
quotedbl
</note>
  <outline>
    <contour>
      <point x="140" y="482" type="line"/>
      <point x="166" y="482" type="line"/>
      <point x="211" y="694" type="line"/>
      <point x="211" y="719"/>
      <point x="185" y="741"/>
      <point x="154" y="741" type="curve" smooth="yes"/>
      <point x="122" y="741"/>
      <point x="94" y="715"/>
      <point x="94" y="694" type="curve"/>
    </contour>
    <contour>
      <point x="383" y="482" type="line"/>
      <point x="412" y="482" type="line"/>
      <point x="455" y="694" type="line"/>
      <point x="455" y="719"/>
      <point x="429" y="741"/>
      <point x="398" y="741" type="curve" smooth="yes"/>
      <point x="366" y="741"/>
      <point x="340" y="719"/>
      <point x="340" y="694" type="curve"/>
    </contour>
  </outline>
</glyph>
<glyph name="percent" format="2">
  <advance width="1126"/>
  <unicode hex="0025"/>
  <note>
percent
</note>
  <outline>
    <contour>
      <point x="273" y="-14" type="line"/>
      <point x="336" y="-14" type="line"/>
      <point x="856" y="731" type="line"/>
      <point x="793" y="731" type="line"/>
      <point x="749" y="684"/>
      <point x="670" y="657"/>
      <point x="590" y="657" type="curve" smooth="yes"/>
      <point x="546" y="657"/>
      <point x="511" y="665"/>
      <point x="484" y="682" type="curve" smooth="yes"/>
      <point x="451" y="705"/>
      <point x="415" y="716"/>
      <point x="375" y="716" type="curve" smooth="yes"/>
      <point x="278" y="716"/>
      <point x="179" y="658"/>
      <point x="124" y="577" type="curve" smooth="yes"/>
      <point x="96" y="536"/>
      <point x="82" y="497"/>
      <point x="82" y="459" type="curve" smooth="yes"/>
      <point x="82" y="366"/>
      <point x="139" y="311"/>
      <point x="244" y="311" type="curve" smooth="yes"/>
      <point x="323" y="311"/>
      <point x="419" y="367"/>
      <point x="476" y="451" type="curve" smooth="yes"/>
      <point x="504" y="493"/>
      <point x="518" y="537"/>
      <point x="518" y="583" type="curve" smooth="yes"/>
      <point x="518" y="590"/>
      <point x="517" y="601"/>
      <point x="514" y="614" type="curve" smooth="yes"/>
      <point x="511" y="627"/>
      <point x="510" y="636"/>
      <point x="510" y="641" type="curve"/>
      <point x="530" y="636"/>
      <point x="552" y="633"/>
      <point x="576" y="633" type="curve" smooth="yes"/>
      <point x="631" y="633"/>
      <point x="687" y="642"/>
      <point x="742" y="661" type="curve"/>
      <point x="744" y="659" type="line"/>
    </contour>
    <contour>
      <point x="269" y="349" type="curve"/>
      <point x="213" y="349"/>
      <point x="185" y="376"/>
      <point x="185" y="430" type="curve" smooth="yes"/>
      <point x="185" y="519"/>
      <point x="241" y="602"/>
      <point x="305" y="650" type="curve" smooth="yes"/>
      <point x="336" y="673"/>
      <point x="361" y="685"/>
      <point x="379" y="685" type="curve" smooth="yes"/>
      <point x="387" y="685"/>
      <point x="400" y="680"/>
      <point x="418" y="670" type="curve" smooth="yes"/>
      <point x="436" y="660"/>
      <point x="454" y="653"/>
      <point x="473" y="649" type="curve"/>
      <point x="479" y="630"/>
      <point x="484" y="613"/>
      <point x="484" y="600" type="curve" smooth="yes"/>
      <point x="484" y="494"/>
      <point x="399" y="359"/>
    </contour>
    <contour>
      <point x="778" y="-14" type="curve" smooth="yes"/>
      <point x="858" y="-14"/>
      <point x="949" y="36"/>
      <point x="1004" y="122" type="curve" smooth="yes"/>
      <point x="1031" y="165"/>
      <point x="1045" y="213"/>
      <point x="1045" y="267" type="curve" smooth="yes"/>
      <point x="1045" y="330"/>
      <point x="986" y="387"/>
      <point x="901" y="387" type="curve" smooth="yes"/>
      <point x="804" y="387"/>
      <point x="704" y="330"/>
      <point x="648" y="250" type="curve" smooth="yes"/>
      <point x="620" y="210"/>
      <point x="606" y="171"/>
      <point x="606" y="133" type="curve" smooth="yes"/>
      <point x="606" y="35"/>
      <point x="663" y="-14"/>
    </contour>
    <contour>
      <point x="793" y="18" type="curve" smooth="yes"/>
      <point x="738" y="18"/>
      <point x="711" y="43"/>
      <point x="711" y="94" type="curve" smooth="yes"/>
      <point x="711" y="135"/>
      <point x="729" y="184"/>
      <point x="764" y="242" type="curve" smooth="yes"/>
      <point x="806" y="315"/>
      <point x="857" y="351"/>
      <point x="916" y="351" type="curve" smooth="yes"/>
      <point x="973" y="351"/>
      <point x="1008" y="308"/>
      <point x="1008" y="261" type="curve" smooth="yes"/>
      <point x="1008" y="168"/>
      <point x="917" y="18"/>
    </contour>
  </outline>
</glyph>
<glyph name="ampersand" format="2">
  <advance width="1050"/>
  <unicode hex="0026"/>
  <note>
ampersand
</note>
  <outline>
    <contour>
      <point x="297" y="-14" type="curve" smooth="yes"/>
      <point x="398" y="-14"/>
      <point x="492" y="19"/>
      <point x="579" y="84" type="curve"/>
      <point x="658" y="19"/>
      <point x="736" y="-14"/>
      <point x="811" y="-14" type="curve" smooth="yes"/>
      <point x="870" y="-14"/>
      <point x="912" y="4"/>
      <point x="948" y="37" type="curve" smooth="yes"/>
      <point x="965" y="53"/>
      <point x="987" y="77"/>
      <point x="1014" y="108" type="curve"/>
      <point x="993" y="120" type="line"/>
      <point x="960" y="81"/>
      <point x="919" y="62"/>
      <point x="872" y="62" type="curve" smooth="yes"/>
      <point x="792" y="62"/>
      <point x="738" y="96"/>
      <point x="665" y="159" type="curve"/>
      <point x="739" y="248"/>
      <point x="790" y="312"/>
      <point x="817" y="349" type="curve" smooth="yes"/>
      <point x="848" y="393"/>
      <point x="862" y="411"/>
      <point x="895" y="426" type="curve" smooth="yes"/>
      <point x="912" y="433"/>
      <point x="933" y="438"/>
      <point x="960" y="441" type="curve"/>
      <point x="960" y="461" type="line"/>
      <point x="669" y="461" type="line"/>
      <point x="669" y="441" type="line"/>
      <point x="734" y="437"/>
      <point x="755" y="422"/>
      <point x="755" y="387" type="curve" smooth="yes"/>
      <point x="755" y="335"/>
      <point x="693" y="251"/>
      <point x="633" y="192" type="curve"/>
      <point x="573" y="252"/>
      <point x="513" y="326"/>
      <point x="454" y="414" type="curve"/>
      <point x="593" y="463"/>
      <point x="663" y="525"/>
      <point x="663" y="602" type="curve" smooth="yes"/>
      <point x="663" y="682"/>
      <point x="583" y="731"/>
      <point x="479" y="731" type="curve" smooth="yes"/>
      <point x="360" y="731"/>
      <point x="272" y="655"/>
      <point x="272" y="559" type="curve" smooth="yes"/>
      <point x="272" y="527"/>
      <point x="288" y="477"/>
      <point x="319" y="408" type="curve"/>
      <point x="238" y="375"/>
      <point x="154" y="328"/>
      <point x="99" y="262" type="curve" smooth="yes"/>
      <point x="71" y="229"/>
      <point x="57" y="193"/>
      <point x="57" y="156" type="curve" smooth="yes"/>
      <point x="57" y="47"/>
      <point x="145" y="-14"/>
    </contour>
    <contour>
      <point x="356" y="42" type="curve" smooth="yes"/>
      <point x="264" y="42"/>
      <point x="180" y="114"/>
      <point x="180" y="187" type="curve" smooth="yes"/>
      <point x="180" y="271"/>
      <point x="236" y="321"/>
      <point x="340" y="370" type="curve"/>
      <point x="422" y="253"/>
      <point x="491" y="167"/>
      <point x="547" y="114" type="curve"/>
      <point x="488" y="71"/>
      <point x="411" y="42"/>
    </contour>
    <contour>
      <point x="434" y="450" type="curve"/>
      <point x="397" y="509"/>
      <point x="379" y="557"/>
      <point x="379" y="594" type="curve" smooth="yes"/>
      <point x="379" y="663"/>
      <point x="414" y="697"/>
      <point x="485" y="697" type="curve" smooth="yes"/>
      <point x="545" y="697"/>
      <point x="592" y="655"/>
      <point x="592" y="606" type="curve" smooth="yes"/>
      <point x="592" y="542"/>
      <point x="519" y="483"/>
    </contour>
  </outline>
</glyph>
<glyph name="quotesingle" format="2">
  <advance width="278"/>
  <unicode hex="0027"/>
  <note>
quotesingle
</note>
  <outline>
    <contour>
      <point x="88" y="494" type="curve"/>
      <point x="196" y="494" type="line"/>
      <point x="212" y="589"/>
      <point x="220" y="679"/>
      <point x="220" y="766" type="curve"/>
      <point x="60" y="766" type="line"/>
      <point x="60" y="679"/>
      <point x="69" y="589"/>
    </contour>
  </outline>
</glyph>
<glyph name="parenright" format="2">
  <advance width="465"/>
  <unicode hex="0029"/>
  <note>
parenright
</note>
  <outline>
    <contour>
      <point x="96" y="-228" type="curve"/>
      <point x="197" y="-228" type="line"/>
      <point x="306" y="-63"/>
      <point x="361" y="107"/>
      <point x="361" y="282" type="curve" smooth="yes"/>
      <point x="361" y="453"/>
      <point x="305" y="618"/>
      <point x="194" y="775" type="curve"/>
      <point x="95" y="775" type="line"/>
      <point x="178" y="591"/>
      <point x="220" y="423"/>
      <point x="220" y="271" type="curve" smooth="yes"/>
      <point x="220" y="116"/>
      <point x="179" y="-51"/>
    </contour>
  </outline>
</glyph>
<glyph name="asterisk" format="2">
  <advance width="425"/>
  <unicode hex="002A"/>
  <note>
asterisk
</note>
  <outline>
    <contour>
      <point x="132" y="414" type="line"/>
      <point x="159" y="457"/>
      <point x="183" y="497"/>
      <point x="204" y="534" type="curve"/>
      <point x="275" y="418" type="line"/>
      <point x="355" y="470" type="line"/>
      <point x="325" y="505" type="line"/>
      <point x="263" y="575" type="line"/>
      <point x="314" y="584"/>
      <point x="358" y="592"/>
      <point x="397" y="601" type="curve"/>
      <point x="369" y="696" type="line"/>
      <point x="237" y="638" type="line"/>
      <point x="247" y="707"/>
      <point x="252" y="753"/>
      <point x="252" y="778" type="curve"/>
      <point x="159" y="778" type="line"/>
      <point x="159" y="743"/>
      <point x="163" y="697"/>
      <point x="172" y="640" type="curve"/>
      <point x="135" y="662"/>
      <point x="94" y="682"/>
      <point x="49" y="701" type="curve"/>
      <point x="18" y="609" type="line"/>
      <point x="46" y="600"/>
      <point x="91" y="588"/>
      <point x="152" y="575" type="curve"/>
      <point x="120" y="546"/>
      <point x="87" y="513"/>
      <point x="52" y="474" type="curve"/>
    </contour>
  </outline>
</glyph>
<glyph name="zero" format="2">
  <advance width="620"/>
  <unicode hex="0030"/>
  <note>
zero
</note>
  <outline>
    <contour>
      <point x="363" y="-7" type="curve" smooth="yes"/>
      <point x="506" y="-7"/>
      <point x="577" y="89"/>
      <point x="577" y="281" type="curve" smooth="yes"/>
      <point x="577" y="313"/>
      <point x="575" y="347"/>
      <point x="571" y="384" type="curve" smooth="yes"/>
      <point x="544" y="645"/>
      <point x="447" y="775"/>
      <point x="281" y="775" type="curve" smooth="yes"/>
      <point x="138" y="775"/>
      <point x="67" y="679"/>
      <point x="67" y="487" type="curve" smooth="yes"/>
      <point x="67" y="456"/>
      <point x="69" y="422"/>
      <point x="73" y="385" type="curve" smooth="yes"/>
      <point x="100" y="124"/>
      <point x="197" y="-7"/>
    </contour>
    <contour>
      <point x="350" y="115" type="curve" smooth="yes"/>
      <point x="319" y="115"/>
      <point x="294" y="132"/>
      <point x="275" y="167" type="curve" smooth="yes"/>
      <point x="255" y="201"/>
      <point x="239" y="273"/>
      <point x="227" y="384" type="curve" smooth="yes"/>
      <point x="222" y="437"/>
      <point x="219" y="482"/>
      <point x="219" y="517" type="curve" smooth="yes"/>
      <point x="219" y="555"/>
      <point x="222" y="583"/>
      <point x="228" y="601" type="curve" smooth="yes"/>
      <point x="240" y="636"/>
      <point x="262" y="653"/>
      <point x="294" y="653" type="curve" smooth="yes"/>
      <point x="327" y="653"/>
      <point x="353" y="634"/>
      <point x="372" y="595" type="curve" smooth="yes"/>
      <point x="391" y="556"/>
      <point x="406" y="485"/>
      <point x="417" y="384" type="curve" smooth="yes"/>
      <point x="422" y="333"/>
      <point x="425" y="289"/>
      <point x="425" y="254" type="curve" smooth="yes"/>
      <point x="425" y="219"/>
      <point x="423" y="193"/>
      <point x="418" y="174" type="curve" smooth="yes"/>
      <point x="407" y="135"/>
      <point x="385" y="115"/>
    </contour>
  </outline>
</glyph>
<glyph name="one" format="2">
  <advance width="660"/>
  <unicode hex="0031"/>
  <note>
one
</note>
  <outline>
    <contour>
      <point x="347" y="0" type="line"/>
      <point x="493" y="0" type="line"/>
      <point x="413" y="775" type="line"/>
      <point x="267" y="775" type="line"/>
    </contour>
  </outline>
</glyph>
<glyph name="four" format="2">
  <advance width="657"/>
  <unicode hex="0034"/>
  <note>
four
</note>
  <outline>
    <contour>
      <point x="371" y="0" type="line"/>
      <point x="513" y="0" type="line"/>
      <point x="496" y="154" type="line"/>
      <point x="591" y="154" type="line"/>
      <point x="578" y="283" type="line"/>
      <point x="483" y="283" type="line"/>
      <point x="432" y="769" type="line"/>
      <point x="309" y="769" type="line"/>
      <point x="28" y="282" type="line"/>
      <point x="41" y="154" type="line"/>
      <point x="354" y="154" type="line"/>
    </contour>
    <contour>
      <point x="165" y="283" type="line"/>
      <point x="313" y="545" type="line"/>
      <point x="341" y="283" type="line"/>
    </contour>
  </outline>
</glyph>
<glyph name="five" format="2">
  <advance width="615"/>
  <unicode hex="0035"/>
  <note>
five
</note>
  <outline>
    <contour>
      <point x="331" y="0" type="curve" smooth="yes"/>
      <point x="420" y="0"/>
      <point x="483" y="29"/>
      <point x="520" y="88" type="curve" smooth="yes"/>
      <point x="551" y="137"/>
      <point x="567" y="188"/>
      <point x="567" y="241" type="curve" smooth="yes"/>
      <point x="567" y="250"/>
      <point x="566" y="260"/>
      <point x="565" y="270" type="curve" smooth="yes"/>
      <point x="549" y="415"/>
      <point x="442" y="525"/>
      <point x="305" y="525" type="curve" smooth="yes"/>
      <point x="270" y="525"/>
      <point x="238" y="517"/>
      <point x="207" y="501" type="curve"/>
      <point x="217" y="631" type="line"/>
      <point x="494" y="631" type="line"/>
      <point x="479" y="768" type="line"/>
      <point x="91" y="768" type="line"/>
      <point x="57" y="370" type="line"/>
      <point x="178" y="352" type="line"/>
      <point x="207" y="389"/>
      <point x="243" y="408"/>
      <point x="285" y="408" type="curve" smooth="yes"/>
      <point x="361" y="408"/>
      <point x="404" y="361"/>
      <point x="414" y="267" type="curve" smooth="yes"/>
      <point x="415" y="254"/>
      <point x="416" y="243"/>
      <point x="416" y="232" type="curve" smooth="yes"/>
      <point x="416" y="156"/>
      <point x="384" y="118"/>
      <point x="320" y="118" type="curve" smooth="yes"/>
      <point x="259" y="118"/>
      <point x="219" y="154"/>
      <point x="200" y="225" type="curve"/>
      <point x="56" y="210" type="line"/>
      <point x="92" y="70"/>
      <point x="184" y="0"/>
    </contour>
  </outline>
</glyph>
<glyph name="six" format="2">
  <advance width="616"/>
  <unicode hex="0036"/>
  <note>
six
</note>
  <outline>
    <contour>
      <point x="350" y="-7" type="curve" smooth="yes"/>
      <point x="433" y="-7"/>
      <point x="493" y="19"/>
      <point x="528" y="72" type="curve" smooth="yes"/>
      <point x="557" y="115"/>
      <point x="571" y="164"/>
      <point x="571" y="218" type="curve" smooth="yes"/>
      <point x="571" y="229"/>
      <point x="570" y="241"/>
      <point x="569" y="252" type="curve" smooth="yes"/>
      <point x="554" y="393"/>
      <point x="452" y="503"/>
      <point x="320" y="503" type="curve" smooth="yes"/>
      <point x="265" y="503"/>
      <point x="222" y="482"/>
      <point x="190" y="439" type="curve"/>
      <point x="189" y="468" type="line" smooth="yes"/>
      <point x="189" y="592"/>
      <point x="222" y="654"/>
      <point x="287" y="654" type="curve" smooth="yes"/>
      <point x="336" y="654"/>
      <point x="367" y="625"/>
      <point x="380" y="568" type="curve"/>
      <point x="520" y="584" type="line"/>
      <point x="485" y="711"/>
      <point x="406" y="775"/>
      <point x="283" y="775" type="curve" smooth="yes"/>
      <point x="121" y="775"/>
      <point x="40" y="675"/>
      <point x="40" y="475" type="curve" smooth="yes"/>
      <point x="40" y="445"/>
      <point x="42" y="413"/>
      <point x="45" y="378" type="curve" smooth="yes"/>
      <point x="72" y="121"/>
      <point x="173" y="-7"/>
    </contour>
    <contour>
      <point x="345" y="115" type="curve" smooth="yes"/>
      <point x="278" y="115"/>
      <point x="229" y="183"/>
      <point x="221" y="264" type="curve" smooth="yes"/>
      <point x="220" y="275"/>
      <point x="219" y="285"/>
      <point x="219" y="294" type="curve" smooth="yes"/>
      <point x="219" y="361"/>
      <point x="249" y="395"/>
      <point x="308" y="395" type="curve" smooth="yes"/>
      <point x="376" y="395"/>
      <point x="415" y="347"/>
      <point x="425" y="251" type="curve" smooth="yes"/>
      <point x="426" y="239"/>
      <point x="427" y="228"/>
      <point x="427" y="218" type="curve" smooth="yes"/>
      <point x="427" y="149"/>
      <point x="400" y="115"/>
    </contour>
  </outline>
</glyph>
<glyph name="equal" format="2">
  <advance width="821"/>
  <unicode hex="003D"/>
  <note>
equal
</note>
  <outline>
    <contour>
      <point x="92" y="398" type="line"/>
      <point x="733" y="398" type="line"/>
      <point x="733" y="469" type="line"/>
      <point x="92" y="469" type="line"/>
    </contour>
    <contour>
      <point x="92" y="192" type="line"/>
      <point x="733" y="192" type="line"/>
      <point x="733" y="262" type="line"/>
      <point x="92" y="262" type="line"/>
    </contour>
  </outline>
</glyph>
<glyph name="question" format="2">
  <advance width="600"/>
  <unicode hex="003F"/>
  <note>
question
</note>
  <outline>
    <contour>
      <point x="280" y="178" type="curve"/>
      <point x="303" y="178" type="line"/>
      <point x="314" y="237"/>
      <point x="344" y="291"/>
      <point x="391" y="342" type="curve" smooth="yes"/>
      <point x="432" y="383" type="line" smooth="yes"/>
      <point x="499" y="454"/>
      <point x="534" y="498"/>
      <point x="534" y="561" type="curve" smooth="yes"/>
      <point x="534" y="618"/>
      <point x="494" y="674"/>
      <point x="421" y="707" type="curve" smooth="yes"/>
      <point x="384" y="723"/>
      <point x="342" y="731"/>
      <point x="293" y="731" type="curve" smooth="yes"/>
      <point x="171" y="731"/>
      <point x="65" y="670"/>
      <point x="65" y="580" type="curve" smooth="yes"/>
      <point x="65" y="543"/>
      <point x="82" y="508"/>
      <point x="125" y="508" type="curve" smooth="yes"/>
      <point x="162" y="508"/>
      <point x="186" y="525"/>
      <point x="186" y="552" type="curve" smooth="yes"/>
      <point x="186" y="564"/>
      <point x="179" y="577"/>
      <point x="166" y="592" type="curve" smooth="yes"/>
      <point x="139" y="619" type="line"/>
      <point x="139" y="671"/>
      <point x="205" y="700"/>
      <point x="264" y="700" type="curve" smooth="yes"/>
      <point x="356" y="700"/>
      <point x="409" y="638"/>
      <point x="409" y="559" type="curve" smooth="yes"/>
      <point x="409" y="498"/>
      <point x="389" y="453"/>
      <point x="346" y="380" type="curve" smooth="yes"/>
      <point x="303" y="307"/>
      <point x="280" y="253"/>
    </contour>
    <contour>
      <point x="293" y="-14" type="curve" smooth="yes"/>
      <point x="330" y="-14"/>
      <point x="368" y="13"/>
      <point x="368" y="46" type="curve" smooth="yes"/>
      <point x="368" y="81"/>
      <point x="330" y="110"/>
      <point x="293" y="110" type="curve" smooth="yes"/>
      <point x="252" y="110"/>
      <point x="213" y="79"/>
      <point x="213" y="46" type="curve" smooth="yes"/>
      <point x="213" y="14"/>
      <point x="253" y="-14"/>
    </contour>
  </outline>
</glyph>
<glyph name="A" format="2">
  <advance width="773"/>
  <unicode hex="0041"/>
  <note>
A
</note>
  <outline>
    <contour>
      <point x="0" y="0" type="line"/>
      <point x="164" y="0" type="line"/>
      <point x="227" y="174" type="line"/>
      <point x="534" y="174" type="line"/>
      <point x="600" y="0" type="line"/>
      <point x="768" y="0" type="line"/>
      <point x="462" y="766" type="line"/>
      <point x="298" y="766" type="line"/>
    </contour>
    <contour>
      <point x="274" y="303" type="line"/>
      <point x="378" y="587" type="line"/>
      <point x="483" y="303" type="line"/>
    </contour>
  </outline>
</glyph>
<glyph name="C" format="2">
  <advance width="798"/>
  <unicode hex="0043"/>
  <note>
C
</note>
  <outline>
    <contour>
      <point x="412" y="-13" type="curve" smooth="yes"/>
      <point x="579" y="-13"/>
      <point x="685" y="69"/>
      <point x="730" y="234" type="curve"/>
      <point x="581" y="282" type="line"/>
      <point x="556" y="173"/>
      <point x="499" y="119"/>
      <point x="410" y="119" type="curve" smooth="yes"/>
      <point x="285" y="119"/>
      <point x="222" y="208"/>
      <point x="222" y="387" type="curve" smooth="yes"/>
      <point x="222" y="560"/>
      <point x="286" y="646"/>
      <point x="413" y="646" type="curve" smooth="yes"/>
      <point x="501" y="646"/>
      <point x="555" y="603"/>
      <point x="575" y="518" type="curve"/>
      <point x="728" y="554" type="line"/>
      <point x="686" y="703"/>
      <point x="584" y="778"/>
      <point x="421" y="778" type="curve" smooth="yes"/>
      <point x="197" y="778"/>
      <point x="63" y="620"/>
      <point x="63" y="376" type="curve" smooth="yes"/>
      <point x="63" y="171"/>
      <point x="173" y="-13"/>
    </contour>
  </outline>
</glyph>
<glyph name="D" format="2">
  <advance width="805"/>
  <unicode hex="0044"/>
  <note>
D
</note>
  <outline>
    <contour>
      <point x="97" y="0" type="line"/>
      <point x="387" y="0" type="line" smooth="yes"/>
      <point x="622" y="0"/>
      <point x="739" y="125"/>
      <point x="739" y="375" type="curve" smooth="yes"/>
      <point x="739" y="560"/>
      <point x="672" y="689"/>
      <point x="573" y="733" type="curve" smooth="yes"/>
      <point x="524" y="755"/>
      <point x="459" y="766"/>
      <point x="379" y="766" type="curve" smooth="yes"/>
      <point x="97" y="766" type="line"/>
    </contour>
    <contour>
      <point x="251" y="129" type="line"/>
      <point x="251" y="636" type="line"/>
      <point x="321" y="636" type="line" smooth="yes"/>
      <point x="468" y="636"/>
      <point x="511" y="623"/>
      <point x="550" y="550" type="curve" smooth="yes"/>
      <point x="569" y="513"/>
      <point x="579" y="457"/>
      <point x="579" y="382" type="curve" smooth="yes"/>
      <point x="579" y="181"/>
      <point x="524" y="129"/>
      <point x="367" y="129" type="curve" smooth="yes"/>
    </contour>
  </outline>
</glyph>
<glyph name="E" format="2">
  <advance width="746"/>
  <unicode hex="0045"/>
  <note>
E
</note>
  <outline>
    <contour>
      <point x="97" y="0" type="line"/>
      <point x="679" y="0" type="line"/>
      <point x="679" y="129" type="line"/>
      <point x="251" y="129" type="line"/>
      <point x="251" y="338" type="line"/>
      <point x="636" y="338" type="line"/>
      <point x="636" y="466" type="line"/>
      <point x="251" y="466" type="line"/>
      <point x="251" y="636" type="line"/>
      <point x="665" y="636" type="line"/>
      <point x="665" y="766" type="line"/>
      <point x="97" y="766" type="line"/>
    </contour>
  </outline>
</glyph>
<glyph name="G" format="2">
  <advance width="861"/>
  <unicode hex="0047"/>
  <note>
G
</note>
  <outline>
    <contour>
      <point x="453" y="-13" type="curve" smooth="yes"/>
      <point x="585" y="-13"/>
      <point x="694" y="27"/>
      <point x="780" y="106" type="curve"/>
      <point x="780" y="410" type="line"/>
      <point x="446" y="410" type="line"/>
      <point x="446" y="282" type="line"/>
      <point x="624" y="282" type="line"/>
      <point x="624" y="184" type="line"/>
      <point x="568" y="141"/>
      <point x="507" y="119"/>
      <point x="442" y="119" type="curve" smooth="yes"/>
      <point x="301" y="119"/>
      <point x="223" y="223"/>
      <point x="223" y="392" type="curve" smooth="yes"/>
      <point x="223" y="561"/>
      <point x="297" y="646"/>
      <point x="444" y="646" type="curve" smooth="yes"/>
      <point x="536" y="646"/>
      <point x="594" y="606"/>
      <point x="617" y="525" type="curve"/>
      <point x="770" y="554" type="line"/>
      <point x="737" y="703"/>
      <point x="629" y="778"/>
      <point x="444" y="778" type="curve" smooth="yes"/>
      <point x="232" y="778"/>
      <point x="64" y="647"/>
      <point x="64" y="386" type="curve" smooth="yes"/>
      <point x="64" y="151"/>
      <point x="198" y="-13"/>
    </contour>
  </outline>
</glyph>
<glyph name="H" format="2">
  <advance width="812"/>
  <unicode hex="0048"/>
  <note>
H
</note>
  <outline>
    <contour>
      <point x="98" y="0" type="line"/>
      <point x="252" y="0" type="line"/>
      <point x="252" y="334" type="line"/>
      <point x="556" y="334" type="line"/>
      <point x="556" y="0" type="line"/>
      <point x="710" y="0" type="line"/>
      <point x="710" y="766" type="line"/>
      <point x="556" y="766" type="line"/>
      <point x="556" y="464" type="line"/>
      <point x="252" y="464" type="line"/>
      <point x="252" y="766" type="line"/>
      <point x="98" y="766" type="line"/>
    </contour>
  </outline>
</glyph>
<glyph name="K" format="2">
  <advance width="792"/>
  <unicode hex="004B"/>
  <note>
K
</note>
  <outline>
    <contour>
      <point x="100" y="0" type="line"/>
      <point x="254" y="0" type="line"/>
      <point x="254" y="231" type="line"/>
      <point x="380" y="359" type="line"/>
      <point x="590" y="0" type="line"/>
      <point x="790" y="0" type="line"/>
      <point x="486" y="467" type="line"/>
      <point x="774" y="766" type="line"/>
      <point x="566" y="766" type="line"/>
      <point x="254" y="426" type="line"/>
      <point x="254" y="766" type="line"/>
      <point x="100" y="766" type="line"/>
    </contour>
  </outline>
</glyph>
<glyph name="L" format="2">
  <advance width="682"/>
  <unicode hex="004C"/>
  <note>
L
</note>
  <outline>
    <contour>
      <point x="97" y="0" type="line"/>
      <point x="636" y="0" type="line"/>
      <point x="636" y="129" type="line"/>
      <point x="252" y="129" type="line"/>
      <point x="252" y="766" type="line"/>
      <point x="97" y="766" type="line"/>
    </contour>
  </outline>
</glyph>
<glyph name="N" format="2">
  <advance width="813"/>
  <unicode hex="004E"/>
  <note>
N
</note>
  <outline>
    <contour>
      <point x="99" y="0" type="line"/>
      <point x="243" y="0" type="line"/>
      <point x="243" y="499" type="line"/>
      <point x="552" y="0" type="line"/>
      <point x="706" y="0" type="line"/>
      <point x="706" y="766" type="line"/>
      <point x="563" y="766" type="line"/>
      <point x="563" y="254" type="line"/>
      <point x="249" y="766" type="line"/>
      <point x="99" y="766" type="line"/>
    </contour>
  </outline>
</glyph>
<glyph name="Q" format="2">
  <advance width="847"/>
  <unicode hex="0051"/>
  <note>
Q
</note>
  <outline>
    <contour>
      <point x="772" y="-77" type="curve"/>
      <point x="829" y="32" type="line"/>
      <point x="785" y="49"/>
      <point x="744" y="70"/>
      <point x="706" y="97" type="curve"/>
      <point x="769" y="171"/>
      <point x="800" y="266"/>
      <point x="800" y="383" type="curve" smooth="yes"/>
      <point x="800" y="628"/>
      <point x="663" y="778"/>
      <point x="431" y="778" type="curve" smooth="yes"/>
      <point x="196" y="778"/>
      <point x="58" y="628"/>
      <point x="58" y="383" type="curve" smooth="yes"/>
      <point x="58" y="164"/>
      <point x="167" y="-13"/>
      <point x="435" y="-13" type="curve" smooth="yes"/>
      <point x="496" y="-13"/>
      <point x="551" y="-2"/>
      <point x="601" y="20" type="curve"/>
      <point x="679" y="-35"/>
      <point x="736" y="-67"/>
    </contour>
    <contour>
      <point x="424" y="115" type="curve" smooth="yes"/>
      <point x="277" y="115"/>
      <point x="217" y="238"/>
      <point x="217" y="383" type="curve" smooth="yes"/>
      <point x="217" y="546"/>
      <point x="293" y="646"/>
      <point x="429" y="646" type="curve" smooth="yes"/>
      <point x="570" y="646"/>
      <point x="641" y="558"/>
      <point x="641" y="383" type="curve" smooth="yes"/>
      <point x="641" y="297"/>
      <point x="621" y="231"/>
      <point x="581" y="184" type="curve"/>
      <point x="535" y="219"/>
      <point x="487" y="245"/>
      <point x="436" y="262" type="curve"/>
      <point x="392" y="174" type="line"/>
      <point x="425" y="163"/>
      <point x="457" y="147"/>
      <point x="488" y="126" type="curve"/>
      <point x="468" y="119"/>
      <point x="447" y="115"/>
    </contour>
  </outline>
</glyph>
<glyph name="S" format="2">
  <advance width="736"/>
  <unicode hex="0053"/>
  <note>
S
</note>
  <outline>
    <contour>
      <point x="364" y="-14" type="curve" smooth="yes"/>
      <point x="568" y="-14"/>
      <point x="670" y="65"/>
      <point x="670" y="223" type="curve" smooth="yes"/>
      <point x="670" y="278"/>
      <point x="656" y="325"/>
      <point x="627" y="366" type="curve" smooth="yes"/>
      <point x="598" y="406"/>
      <point x="519" y="442"/>
      <point x="390" y="475" type="curve" smooth="yes"/>
      <point x="310" y="496"/>
      <point x="262" y="513"/>
      <point x="247" y="528" type="curve" smooth="yes"/>
      <point x="232" y="543"/>
      <point x="224" y="558"/>
      <point x="224" y="575" type="curve" smooth="yes"/>
      <point x="224" y="625"/>
      <point x="267" y="650"/>
      <point x="354" y="650" type="curve" smooth="yes"/>
      <point x="435" y="650"/>
      <point x="482" y="613"/>
      <point x="494" y="540" type="curve"/>
      <point x="649" y="546" type="line"/>
      <point x="644" y="701"/>
      <point x="546" y="778"/>
      <point x="355" y="778" type="curve" smooth="yes"/>
      <point x="188" y="778"/>
      <point x="76" y="701"/>
      <point x="76" y="565" type="curve" smooth="yes"/>
      <point x="76" y="453"/>
      <point x="158" y="376"/>
      <point x="321" y="335" type="curve" smooth="yes"/>
      <point x="407" y="314"/>
      <point x="461" y="296"/>
      <point x="483" y="283" type="curve" smooth="yes"/>
      <point x="505" y="269"/>
      <point x="516" y="249"/>
      <point x="516" y="222" type="curve" smooth="yes"/>
      <point x="516" y="152"/>
      <point x="466" y="117"/>
      <point x="366" y="117" type="curve" smooth="yes"/>
      <point x="272" y="117"/>
      <point x="216" y="166"/>
      <point x="198" y="264" type="curve"/>
      <point x="48" y="249" type="line"/>
      <point x="69" y="74"/>
      <point x="174" y="-14"/>
    </contour>
  </outline>
</glyph>
<glyph name="Z" format="2">
  <advance width="661"/>
  <unicode hex="005A"/>
  <note>
Z
</note>
  <outline>
    <contour>
      <point x="14" y="0" type="line"/>
      <point x="636" y="0" type="line"/>
      <point x="636" y="129" type="line"/>
      <point x="200" y="129" type="line"/>
      <point x="620" y="646" type="line"/>
      <point x="620" y="766" type="line"/>
      <point x="60" y="766" type="line"/>
      <point x="60" y="636" type="line"/>
      <point x="416" y="636" type="line"/>
      <point x="14" y="139" type="line"/>
    </contour>
  </outline>
</glyph>
<glyph name="bracketleft" format="2">
  <advance width="380"/>
  <unicode hex="005B"/>
  <note>
bracketleft
</note>
  <outline>
    <contour>
      <point x="95" y="-216" type="line"/>
      <point x="355" y="-216" type="line"/>
      <point x="355" y="-100" type="line"/>
      <point x="235" y="-100" type="line"/>
      <point x="235" y="650" type="line"/>
      <point x="355" y="650" type="line"/>
      <point x="355" y="766" type="line"/>
      <point x="95" y="766" type="line"/>
    </contour>
  </outline>
</glyph>
<glyph name="backslash" format="2">
  <advance width="423"/>
  <unicode hex="005C"/>
  <note>
backslash
</note>
  <outline>
    <contour>
      <point x="293" y="-22" type="curve"/>
      <point x="338" y="21" type="line"/>
      <point x="347" y="40"/>
      <point x="358" y="59"/>
      <point x="373" y="78" type="curve"/>
      <point x="334" y="217"/>
      <point x="257" y="449"/>
      <point x="143" y="775" type="curve"/>
      <point x="125" y="774" type="line" smooth="yes"/>
      <point x="118" y="774"/>
      <point x="93" y="763"/>
      <point x="48" y="741" type="curve"/>
      <point x="199" y="276" type="line" smooth="yes"/>
      <point x="228" y="177"/>
      <point x="260" y="77"/>
    </contour>
  </outline>
</glyph>
<glyph name="bracketright" format="2">
  <advance width="380"/>
  <unicode hex="005D"/>
  <note>
bracketright
</note>
  <outline>
    <contour>
      <point x="25" y="-216" type="line"/>
      <point x="285" y="-216" type="line"/>
      <point x="285" y="766" type="line"/>
      <point x="25" y="766" type="line"/>
      <point x="25" y="651" type="line"/>
      <point x="146" y="651" type="line"/>
      <point x="146" y="-100" type="line"/>
      <point x="25" y="-100" type="line"/>
    </contour>
  </outline>
</glyph>
<glyph name="underscore" format="2">
  <advance width="592"/>
  <unicode hex="005F"/>
  <note>
underscore
</note>
  <outline>
    <contour>
      <point x="-12" y="-211" type="line"/>
      <point x="598" y="-211" type="line"/>
      <point x="598" y="-117" type="line"/>
      <point x="-12" y="-117" type="line"/>
    </contour>
  </outline>
</glyph>
<glyph name="grave" format="2">
  <advance width="386"/>
  <unicode hex="0060"/>
  <note>
grave
</note>
  <outline>
    <contour>
      <point x="172" y="622" type="line"/>
      <point x="264" y="622" type="line"/>
      <point x="192" y="778" type="line"/>
      <point x="27" y="778" type="line"/>
    </contour>
  </outline>
</glyph>
<glyph name="c" format="2">
  <advance width="613"/>
  <unicode hex="0063"/>
  <note>
c
</note>
  <outline>
    <contour>
      <point x="321" y="-13" type="curve" smooth="yes"/>
      <point x="462" y="-13"/>
      <point x="548" y="54"/>
      <point x="579" y="188" type="curve"/>
      <point x="434" y="213" type="line"/>
      <point x="421" y="142"/>
      <point x="386" y="107"/>
      <point x="329" y="107" type="curve" smooth="yes"/>
      <point x="247" y="107"/>
      <point x="206" y="167"/>
      <point x="206" y="287" type="curve" smooth="yes"/>
      <point x="206" y="397"/>
      <point x="246" y="452"/>
      <point x="326" y="452" type="curve" smooth="yes"/>
      <point x="383" y="452"/>
      <point x="417" y="423"/>
      <point x="427" y="365" type="curve"/>
      <point x="571" y="390" type="line"/>
      <point x="537" y="508"/>
      <point x="455" y="567"/>
      <point x="325" y="567" type="curve" smooth="yes"/>
      <point x="134" y="567"/>
      <point x="55" y="434"/>
      <point x="55" y="277" type="curve" smooth="yes"/>
      <point x="55" y="102"/>
      <point x="156" y="-13"/>
    </contour>
  </outline>
</glyph>
<glyph name="h" format="2">
  <advance width="691"/>
  <unicode hex="0068"/>
  <note>
h
</note>
  <outline>
    <contour>
      <point x="95" y="0" type="line"/>
      <point x="242" y="0" type="line"/>
      <point x="242" y="278" type="line" smooth="yes"/>
      <point x="242" y="396"/>
      <point x="282" y="455"/>
      <point x="363" y="455" type="curve" smooth="yes"/>
      <point x="436" y="455"/>
      <point x="453" y="421"/>
      <point x="453" y="293" type="curve" smooth="yes"/>
      <point x="453" y="0" type="line"/>
      <point x="601" y="0" type="line"/>
      <point x="601" y="326" type="line" smooth="yes"/>
      <point x="601" y="486"/>
      <point x="555" y="567"/>
      <point x="412" y="567" type="curve" smooth="yes"/>
      <point x="346" y="567"/>
      <point x="289" y="539"/>
      <point x="242" y="484" type="curve"/>
      <point x="242" y="766" type="line"/>
      <point x="95" y="766" type="line"/>
    </contour>
  </outline>
</glyph>
<glyph name="i" format="2">
  <advance width="334"/>
  <unicode hex="0069"/>
  <note>
i
</note>
  <outline>
    <contour>
      <point x="96" y="0" type="line"/>
      <point x="242" y="0" type="line"/>
      <point x="242" y="554" type="line"/>
      <point x="96" y="554" type="line"/>
    </contour>
    <contour>
      <point x="96" y="630" type="line"/>
      <point x="242" y="630" type="line"/>
      <point x="242" y="766" type="line"/>
      <point x="96" y="766" type="line"/>
    </contour>
  </outline>
</glyph>
<glyph name="j" format="2">
  <advance width="304"/>
  <unicode hex="006A"/>
  <note>
j
</note>
  <outline>
    <contour>
      <point x="41" y="-225" type="curve" smooth="yes"/>
      <point x="172" y="-225"/>
      <point x="208" y="-162"/>
      <point x="208" y="18" type="curve" smooth="yes"/>
      <point x="208" y="554" type="line"/>
      <point x="61" y="554" type="line"/>
      <point x="61" y="26" type="line" smooth="yes"/>
      <point x="61" y="-25"/>
      <point x="57" y="-56"/>
      <point x="50" y="-69" type="curve" smooth="yes"/>
      <point x="43" y="-82"/>
      <point x="26" y="-89"/>
      <point x="1" y="-89" type="curve" smooth="yes"/>
      <point x="-8" y="-89"/>
      <point x="-20" y="-87"/>
      <point x="-35" y="-84" type="curve"/>
      <point x="-61" y="-210" type="line"/>
      <point x="-22" y="-220"/>
      <point x="12" y="-225"/>
    </contour>
    <contour>
      <point x="61" y="630" type="line"/>
      <point x="208" y="630" type="line"/>
      <point x="208" y="766" type="line"/>
      <point x="61" y="766" type="line"/>
    </contour>
  </outline>
</glyph>
<glyph name="l" format="2">
  <advance width="334"/>
  <unicode hex="006C"/>
  <note>
l
</note>
  <outline>
    <contour>
      <point x="96" y="0" type="line"/>
      <point x="242" y="0" type="line"/>
      <point x="242" y="766" type="line"/>
      <point x="96" y="766" type="line"/>
    </contour>
  </outline>
</glyph>
<glyph name="m" format="2">
  <advance width="985"/>
  <unicode hex="006D"/>
  <note>
m
</note>
  <outline>
    <contour>
      <point x="82" y="0" type="line"/>
      <point x="229" y="0" type="line"/>
      <point x="229" y="270" type="line" smooth="yes"/>
      <point x="229" y="353"/>
      <point x="240" y="404"/>
      <point x="261" y="425" type="curve" smooth="yes"/>
      <point x="282" y="445"/>
      <point x="308" y="455"/>
      <point x="340" y="455" type="curve" smooth="yes"/>
      <point x="411" y="455"/>
      <point x="417" y="395"/>
      <point x="417" y="304" type="curve" smooth="yes"/>
      <point x="417" y="0" type="line"/>
      <point x="564" y="0" type="line"/>
      <point x="564" y="266" type="line" smooth="yes"/>
      <point x="564" y="392"/>
      <point x="600" y="455"/>
      <point x="673" y="455" type="curve" smooth="yes"/>
      <point x="695" y="455"/>
      <point x="714" y="448"/>
      <point x="729" y="433" type="curve" smooth="yes"/>
      <point x="744" y="418"/>
      <point x="751" y="380"/>
      <point x="751" y="317" type="curve" smooth="yes"/>
      <point x="751" y="0" type="line"/>
      <point x="898" y="0" type="line"/>
      <point x="898" y="354" type="line" smooth="yes"/>
      <point x="898" y="496"/>
      <point x="837" y="567"/>
      <point x="716" y="567" type="curve" smooth="yes"/>
      <point x="652" y="567"/>
      <point x="596" y="538"/>
      <point x="547" y="479" type="curve"/>
      <point x="514" y="538"/>
      <point x="461" y="567"/>
      <point x="390" y="567" type="curve" smooth="yes"/>
      <point x="323" y="567"/>
      <point x="266" y="538"/>
      <point x="217" y="479" type="curve"/>
      <point x="217" y="554" type="line"/>
      <point x="82" y="554" type="line"/>
    </contour>
  </outline>
</glyph>
<glyph name="o" format="2">
  <advance width="674"/>
  <unicode hex="006F"/>
  <note>
o
</note>
  <outline>
    <contour>
      <point x="340" y="-13" type="curve" smooth="yes"/>
      <point x="508" y="-13"/>
      <point x="626" y="111"/>
      <point x="626" y="279" type="curve" smooth="yes"/>
      <point x="626" y="448"/>
      <point x="509" y="567"/>
      <point x="340" y="567" type="curve" smooth="yes"/>
      <point x="168" y="567"/>
      <point x="54" y="441"/>
      <point x="54" y="285" type="curve" smooth="yes"/>
      <point x="54" y="94"/>
      <point x="167" y="-13"/>
    </contour>
    <contour>
      <point x="340" y="107" type="curve" smooth="yes"/>
      <point x="255" y="107"/>
      <point x="204" y="177"/>
      <point x="204" y="278" type="curve" smooth="yes"/>
      <point x="204" y="379"/>
      <point x="255" y="447"/>
      <point x="340" y="447" type="curve" smooth="yes"/>
      <point x="425" y="447"/>
      <point x="475" y="379"/>
      <point x="475" y="278" type="curve" smooth="yes"/>
      <point x="475" y="177"/>
      <point x="425" y="107"/>
    </contour>
  </outline>
</glyph>
<glyph name="p" format="2">
  <advance width="682"/>
  <unicode hex="0070"/>
  <note>
p
</note>
  <outline>
    <contour>
      <point x="91" y="-211" type="line"/>
      <point x="237" y="-211" type="line"/>
      <point x="237" y="69" type="line"/>
      <point x="288" y="14"/>
      <point x="342" y="-13"/>
      <point x="400" y="-13" type="curve" smooth="yes"/>
      <point x="543" y="-13"/>
      <point x="632" y="112"/>
      <point x="632" y="281" type="curve" smooth="yes"/>
      <point x="632" y="438"/>
      <point x="548" y="567"/>
      <point x="401" y="567" type="curve" smooth="yes"/>
      <point x="326" y="567"/>
      <point x="268" y="536"/>
      <point x="228" y="473" type="curve"/>
      <point x="228" y="554" type="line"/>
      <point x="91" y="554" type="line"/>
    </contour>
    <contour>
      <point x="364" y="104" type="curve" smooth="yes"/>
      <point x="279" y="104"/>
      <point x="236" y="165"/>
      <point x="236" y="286" type="curve" smooth="yes"/>
      <point x="236" y="396"/>
      <point x="278" y="451"/>
      <point x="361" y="451" type="curve" smooth="yes"/>
      <point x="442" y="451"/>
      <point x="482" y="394"/>
      <point x="482" y="279" type="curve" smooth="yes"/>
      <point x="482" y="162"/>
      <point x="443" y="104"/>
    </contour>
  </outline>
</glyph>
<glyph name="r" format="2">
  <advance width="430"/>
  <unicode hex="0072"/>
  <note>
r
</note>
  <outline>
    <contour>
      <point x="88" y="0" type="line"/>
      <point x="235" y="0" type="line"/>
      <point x="235" y="171" type="line" smooth="yes"/>
      <point x="235" y="277"/>
      <point x="242" y="348"/>
      <point x="256" y="383" type="curve" smooth="yes"/>
      <point x="270" y="418"/>
      <point x="296" y="435"/>
      <point x="333" y="435" type="curve" smooth="yes"/>
      <point x="354" y="435"/>
      <point x="377" y="427"/>
      <point x="402" y="411" type="curve"/>
      <point x="447" y="539" type="line"/>
      <point x="416" y="558"/>
      <point x="384" y="567"/>
      <point x="350" y="567" type="curve" smooth="yes"/>
      <point x="305" y="567"/>
      <point x="263" y="537"/>
      <point x="225" y="476" type="curve"/>
      <point x="225" y="554" type="line"/>
      <point x="88" y="554" type="line"/>
    </contour>
  </outline>
</glyph>
<glyph name="u" format="2">
  <advance width="691"/>
  <unicode hex="0075"/>
  <note>
u
</note>
  <outline>
    <contour>
      <point x="276" y="-13" type="curve" smooth="yes"/>
      <point x="355" y="-13"/>
      <point x="417" y="19"/>
      <point x="460" y="83" type="curve"/>
      <point x="460" y="0" type="line"/>
      <point x="597" y="0" type="line"/>
      <point x="597" y="554" type="line"/>
      <point x="450" y="554" type="line"/>
      <point x="450" y="321" type="line" smooth="yes"/>
      <point x="450" y="230"/>
      <point x="442" y="171"/>
      <point x="425" y="142" type="curve" smooth="yes"/>
      <point x="408" y="113"/>
      <point x="377" y="99"/>
      <point x="330" y="99" type="curve" smooth="yes"/>
      <point x="293" y="99"/>
      <point x="268" y="112"/>
      <point x="256" y="139" type="curve" smooth="yes"/>
      <point x="244" y="166"/>
      <point x="238" y="219"/>
      <point x="238" y="300" type="curve" smooth="yes"/>
      <point x="238" y="554" type="line"/>
      <point x="92" y="554" type="line"/>
      <point x="92" y="204" type="line" smooth="yes"/>
      <point x="92" y="59"/>
      <point x="153" y="-13"/>
    </contour>
  </outline>
</glyph>
<glyph name="v" format="2">
  <advance width="600"/>
  <unicode hex="0076"/>
  <note>
v
</note>
  <outline>
    <contour>
      <point x="231" y="0" type="line"/>
      <point x="363" y="0" type="line"/>
      <point x="583" y="554" type="line"/>
      <point x="433" y="554" type="line"/>
      <point x="296" y="177" type="line"/>
      <point x="161" y="554" type="line"/>
      <point x="7" y="554" type="line"/>
    </contour>
  </outline>
</glyph>
<glyph name="w" format="2">
  <advance width="833"/>
  <unicode hex="0077"/>
  <note>
w
</note>
  <outline>
    <contour>
      <point x="181" y="0" type="line"/>
      <point x="324" y="0" type="line"/>
      <point x="418" y="357" type="line"/>
      <point x="513" y="0" type="line"/>
      <point x="655" y="0" type="line"/>
      <point x="832" y="554" type="line"/>
      <point x="688" y="554" type="line"/>
      <point x="582" y="191" type="line"/>
      <point x="489" y="554" type="line"/>
      <point x="348" y="554" type="line"/>
      <point x="252" y="191" type="line"/>
      <point x="148" y="554" type="line"/>
      <point x="6" y="554" type="line"/>
    </contour>
  </outline>
</glyph>
<glyph name="y" format="2">
  <advance width="601"/>
  <unicode hex="0079"/>
  <note>
y
</note>
  <outline>
    <contour>
      <point x="141" y="-225" type="curve" smooth="yes"/>
      <point x="243" y="-225"/>
      <point x="312" y="-175"/>
      <point x="348" y="-76" type="curve" smooth="yes"/>
      <point x="579" y="554" type="line"/>
      <point x="427" y="554" type="line"/>
      <point x="298" y="161" type="line"/>
      <point x="165" y="554" type="line"/>
      <point x="9" y="554" type="line"/>
      <point x="220" y="-2" type="line"/>
      <point x="200" y="-73"/>
      <point x="162" y="-108"/>
      <point x="107" y="-108" type="curve" smooth="yes"/>
      <point x="88" y="-108"/>
      <point x="68" y="-106"/>
      <point x="45" y="-102" type="curve"/>
      <point x="58" y="-216" type="line"/>
      <point x="85" y="-222"/>
      <point x="113" y="-225"/>
    </contour>
  </outline>
</glyph>
<glyph name="braceright" format="2">
  <advance width="431"/>
  <unicode hex="007D"/>
  <note>
braceright
</note>
  <outline>
    <contour>
      <point x="29" y="-225" type="line"/>
      <point x="57" y="-225" type="line" smooth="yes"/>
      <point x="208" y="-225"/>
      <point x="272" y="-203"/>
      <point x="272" y="29" type="curve" smooth="yes"/>
      <point x="272" y="169"/>
      <point x="303" y="209"/>
      <point x="387" y="214" type="curve"/>
      <point x="387" y="339" type="line"/>
      <point x="291" y="344"/>
      <point x="272" y="393"/>
      <point x="272" y="545" type="curve" smooth="yes"/>
      <point x="272" y="736"/>
      <point x="216" y="778"/>
      <point x="57" y="778" type="curve" smooth="yes"/>
      <point x="29" y="778" type="line"/>
      <point x="29" y="654" type="line"/>
      <point x="124" y="654"/>
      <point x="135" y="642"/>
      <point x="136" y="574" type="curve" smooth="yes"/>
      <point x="138" y="467"/>
      <point x="145" y="398"/>
      <point x="157" y="365" type="curve" smooth="yes"/>
      <point x="169" y="332"/>
      <point x="195" y="302"/>
      <point x="234" y="277" type="curve"/>
      <point x="176" y="245"/>
      <point x="145" y="184"/>
      <point x="140" y="94" type="curve" smooth="yes"/>
      <point x="135" y="-7"/>
      <point x="130" y="-65"/>
      <point x="124" y="-79" type="curve" smooth="yes"/>
      <point x="118" y="-93"/>
      <point x="86" y="-100"/>
      <point x="29" y="-100" type="curve"/>
    </contour>
  </outline>
</glyph>
<glyph name="asciitilde" format="2">
  <advance width="642"/>
  <unicode hex="007E"/>
  <note>
asciitilde
</note>
  <outline>
    <contour>
      <point x="44" y="271" type="line"/>
      <point x="91" y="320"/>
      <point x="138" y="344"/>
      <point x="186" y="344" type="curve" smooth="yes"/>
      <point x="216" y="344"/>
      <point x="259" y="332"/>
      <point x="314" y="308" type="curve" smooth="yes"/>
      <point x="370" y="285"/>
      <point x="413" y="273"/>
      <point x="442" y="273" type="curve" smooth="yes"/>
      <point x="502" y="273"/>
      <point x="554" y="296"/>
      <point x="598" y="342" type="curve"/>
      <point x="598" y="482" type="line"/>
      <point x="551" y="432"/>
      <point x="504" y="407"/>
      <point x="456" y="407" type="curve" smooth="yes"/>
      <point x="439" y="407"/>
      <point x="406" y="417"/>
      <point x="358" y="436" type="curve" smooth="yes"/>
      <point x="289" y="464"/>
      <point x="235" y="478"/>
      <point x="198" y="478" type="curve" smooth="yes"/>
      <point x="139" y="478"/>
      <point x="88" y="454"/>
      <point x="44" y="406" type="curve"/>
    </contour>
  </outline>
</glyph>
<glyph name="yen" format="2">
  <advance width="1371"/>
  <unicode hex="00A5"/>
  <note>
yen
</note>
  <outline>
    <contour>
      <point x="575" y="-2" type="curve" smooth="yes"/>
      <point x="802" y="-2" type="line" smooth="yes"/>
      <point x="839" y="-2"/>
      <point x="858" y="12"/>
      <point x="858" y="40" type="curve" smooth="yes"/>
      <point x="858" y="69"/>
      <point x="839" y="83"/>
      <point x="802" y="83" type="curve" smooth="yes"/>
      <point x="731" y="83" type="line"/>
      <point x="731" y="245" type="line"/>
      <point x="786" y="245" type="line" smooth="yes"/>
      <point x="821" y="245"/>
      <point x="839" y="259"/>
      <point x="839" y="287" type="curve" smooth="yes"/>
      <point x="839" y="316"/>
      <point x="821" y="330"/>
      <point x="786" y="330" type="curve" smooth="yes"/>
      <point x="731" y="330" type="line"/>
      <point x="731" y="445" type="line"/>
      <point x="786" y="445" type="line" smooth="yes"/>
      <point x="821" y="445"/>
      <point x="839" y="459"/>
      <point x="839" y="487" type="curve" smooth="yes"/>
      <point x="839" y="516"/>
      <point x="821" y="530"/>
      <point x="786" y="530" type="curve" smooth="yes"/>
      <point x="733" y="530" type="line"/>
      <point x="1094" y="1085" type="line"/>
      <point x="1165" y="1085" type="line" smooth="yes"/>
      <point x="1202" y="1085"/>
      <point x="1221" y="1099"/>
      <point x="1221" y="1128" type="curve" smooth="yes"/>
      <point x="1221" y="1156"/>
      <point x="1202" y="1170"/>
      <point x="1165" y="1170" type="curve" smooth="yes"/>
      <point x="919" y="1170" type="line" smooth="yes"/>
      <point x="882" y="1170"/>
      <point x="863" y="1156"/>
      <point x="863" y="1128" type="curve" smooth="yes"/>
      <point x="863" y="1099"/>
      <point x="882" y="1085"/>
      <point x="919" y="1085" type="curve" smooth="yes"/>
      <point x="990" y="1085" type="line"/>
      <point x="689" y="612" type="line"/>
      <point x="381" y="1085" type="line"/>
      <point x="452" y="1085" type="line" smooth="yes"/>
      <point x="489" y="1085"/>
      <point x="508" y="1099"/>
      <point x="508" y="1128" type="curve" smooth="yes"/>
      <point x="508" y="1156"/>
      <point x="489" y="1170"/>
      <point x="452" y="1170" type="curve" smooth="yes"/>
      <point x="206" y="1170" type="line" smooth="yes"/>
      <point x="169" y="1170"/>
      <point x="150" y="1156"/>
      <point x="150" y="1128" type="curve" smooth="yes"/>
      <point x="150" y="1099"/>
      <point x="169" y="1085"/>
      <point x="206" y="1085" type="curve" smooth="yes"/>
      <point x="277" y="1085" type="line"/>
      <point x="644" y="531" type="line"/>
      <point x="573" y="531" type="line" smooth="yes"/>
      <point x="538" y="531"/>
      <point x="520" y="517"/>
      <point x="520" y="489" type="curve" smooth="yes"/>
      <point x="520" y="460"/>
      <point x="538" y="446"/>
      <point x="573" y="446" type="curve" smooth="yes"/>
      <point x="646" y="446" type="line"/>
      <point x="646" y="331" type="line"/>
      <point x="573" y="331" type="line" smooth="yes"/>
      <point x="538" y="331"/>
      <point x="520" y="317"/>
      <point x="520" y="289" type="curve" smooth="yes"/>
      <point x="520" y="260"/>
      <point x="538" y="246"/>
      <point x="573" y="246" type="curve" smooth="yes"/>
      <point x="646" y="246" type="line"/>
      <point x="646" y="83" type="line"/>
      <point x="575" y="83" type="line" smooth="yes"/>
      <point x="538" y="83"/>
      <point x="519" y="69"/>
      <point x="519" y="40" type="curve" smooth="yes"/>
      <point x="519" y="12"/>
      <point x="538" y="-2"/>
    </contour>
  </outline>
</glyph>
<glyph name="ordfeminine" format="2">
  <advance width="950"/>
  <unicode hex="00AA"/>
  <note>
ordfeminine
</note>
  <outline>
    <contour>
      <point x="373" y="724" type="curve" smooth="yes"/>
      <point x="456" y="724"/>
      <point x="536" y="751"/>
      <point x="613" y="804" type="curve"/>
      <point x="613" y="744" type="line"/>
      <point x="754" y="744" type="line" smooth="yes"/>
      <point x="787" y="744"/>
      <point x="804" y="757"/>
      <point x="804" y="783" type="curve" smooth="yes"/>
      <point x="804" y="804"/>
      <point x="789" y="817"/>
      <point x="760" y="821" type="curve"/>
      <point x="694" y="821" type="line"/>
      <point x="694" y="1142" type="line" smooth="yes"/>
      <point x="694" y="1196"/>
      <point x="668" y="1239"/>
      <point x="615" y="1270" type="curve" smooth="yes"/>
      <point x="571" y="1295"/>
      <point x="520" y="1308"/>
      <point x="462" y="1308" type="curve" smooth="yes"/>
      <point x="424" y="1308"/>
      <point x="377" y="1302"/>
      <point x="321" y="1289" type="curve" smooth="yes"/>
      <point x="250" y="1272"/>
      <point x="215" y="1253"/>
      <point x="215" y="1230" type="curve" smooth="yes"/>
      <point x="215" y="1204"/>
      <point x="228" y="1191"/>
      <point x="254" y="1191" type="curve" smooth="yes"/>
      <point x="269" y="1191"/>
      <point x="300" y="1198"/>
      <point x="349" y="1211" type="curve" smooth="yes"/>
      <point x="397" y="1224"/>
      <point x="434" y="1231"/>
      <point x="459" y="1231" type="curve" smooth="yes"/>
      <point x="562" y="1231"/>
      <point x="613" y="1201"/>
      <point x="613" y="1142" type="curve" smooth="yes"/>
      <point x="613" y="1076" type="line"/>
      <point x="549" y="1087"/>
      <point x="494" y="1092"/>
      <point x="447" y="1092" type="curve" smooth="yes"/>
      <point x="373" y="1092"/>
      <point x="309" y="1078"/>
      <point x="254" y="1051" type="curve" smooth="yes"/>
      <point x="185" y="1016"/>
      <point x="150" y="964"/>
      <point x="150" y="897" type="curve" smooth="yes"/>
      <point x="150" y="840"/>
      <point x="174" y="796"/>
      <point x="222" y="764" type="curve" smooth="yes"/>
      <point x="263" y="737"/>
      <point x="313" y="724"/>
    </contour>
    <contour>
      <point x="370" y="801" type="curve" smooth="yes"/>
      <point x="277" y="801"/>
      <point x="231" y="833"/>
      <point x="231" y="897" type="curve" smooth="yes"/>
      <point x="231" y="939"/>
      <point x="260" y="971"/>
      <point x="317" y="992" type="curve" smooth="yes"/>
      <point x="359" y="1007"/>
      <point x="405" y="1015"/>
      <point x="455" y="1015" type="curve" smooth="yes"/>
      <point x="517" y="1015"/>
      <point x="569" y="1009"/>
      <point x="612" y="998" type="curve"/>
      <point x="613" y="903" type="line"/>
      <point x="536" y="835"/>
      <point x="455" y="801"/>
    </contour>
  </outline>
</glyph>
<glyph name="logicalnot" format="2">
  <advance width="1359"/>
  <unicode hex="00AC"/>
  <note>
logicalnot
</note>
  <outline>
    <contour>
      <point x="1169" y="203" type="curve" smooth="yes"/>
      <point x="1197" y="203"/>
      <point x="1211" y="221"/>
      <point x="1211" y="256" type="curve" smooth="yes"/>
      <point x="1211" y="763" type="line"/>
      <point x="203" y="763" type="line" smooth="yes"/>
      <point x="168" y="763"/>
      <point x="150" y="749"/>
      <point x="150" y="721" type="curve" smooth="yes"/>
      <point x="150" y="693"/>
      <point x="169" y="679"/>
      <point x="206" y="679" type="curve" smooth="yes"/>
      <point x="1126" y="679" type="line"/>
      <point x="1126" y="259" type="line" smooth="yes"/>
      <point x="1126" y="222"/>
      <point x="1140" y="203"/>
    </contour>
  </outline>
</glyph>
<glyph name="degree" format="2">
  <advance width="570"/>
  <unicode hex="00B0"/>
  <note>
degree
</note>
  <outline>
    <contour>
      <point x="286" y="1122" type="curve" smooth="yes"/>
      <point x="361" y="1122"/>
      <point x="422" y="1180"/>
      <point x="422" y="1255" type="curve" smooth="yes"/>
      <point x="422" y="1330"/>
      <point x="361" y="1389"/>
      <point x="286" y="1389" type="curve" smooth="yes"/>
      <point x="211" y="1389"/>
      <point x="150" y="1330"/>
      <point x="150" y="1255" type="curve" smooth="yes"/>
      <point x="150" y="1180"/>
      <point x="211" y="1122"/>
    </contour>
    <contour>
      <point x="286" y="1167" type="curve" smooth="yes"/>
      <point x="237" y="1167"/>
      <point x="195" y="1206"/>
      <point x="195" y="1255" type="curve" smooth="yes"/>
      <point x="195" y="1304"/>
      <point x="237" y="1344"/>
      <point x="286" y="1344" type="curve" smooth="yes"/>
      <point x="335" y="1344"/>
      <point x="377" y="1304"/>
      <point x="377" y="1255" type="curve" smooth="yes"/>
      <point x="377" y="1206"/>
      <point x="335" y="1167"/>
    </contour>
  </outline>
</glyph>
<glyph name="plusminus" format="2">
  <advance width="1229"/>
  <unicode hex="00B1"/>
  <note>
plusminus
</note>
  <outline>
    <contour>
      <point x="614" y="200" type="curve" smooth="yes"/>
      <point x="643" y="200"/>
      <point x="657" y="219"/>
      <point x="657" y="256" type="curve" smooth="yes"/>
      <point x="657" y="676" type="line"/>
      <point x="1029" y="676" type="line" smooth="yes"/>
      <point x="1066" y="676"/>
      <point x="1085" y="690"/>
      <point x="1085" y="718" type="curve" smooth="yes"/>
      <point x="1085" y="746"/>
      <point x="1066" y="760"/>
      <point x="1029" y="760" type="curve" smooth="yes"/>
      <point x="657" y="760" type="line"/>
      <point x="657" y="1178" type="line" smooth="yes"/>
      <point x="657" y="1215"/>
      <point x="643" y="1234"/>
      <point x="615" y="1234" type="curve" smooth="yes"/>
      <point x="586" y="1234"/>
      <point x="572" y="1215"/>
      <point x="572" y="1178" type="curve" smooth="yes"/>
      <point x="572" y="760" type="line"/>
      <point x="200" y="760" type="line" smooth="yes"/>
      <point x="163" y="760"/>
      <point x="144" y="746"/>
      <point x="144" y="718" type="curve" smooth="yes"/>
      <point x="144" y="690"/>
      <point x="163" y="676"/>
      <point x="200" y="676" type="curve" smooth="yes"/>
      <point x="572" y="676" type="line"/>
      <point x="572" y="256" type="line" smooth="yes"/>
      <point x="572" y="219"/>
      <point x="586" y="200"/>
    </contour>
    <contour>
      <point x="222" y="0" type="curve" smooth="yes"/>
      <point x="1007" y="0" type="line" smooth="yes"/>
      <point x="1059" y="0"/>
      <point x="1085" y="14"/>
      <point x="1085" y="42" type="curve" smooth="yes"/>
      <point x="1085" y="66"/>
      <point x="1070" y="80"/>
      <point x="1040" y="84" type="curve"/>
      <point x="261" y="85" type="line"/>
      <point x="189" y="84" type="line"/>
      <point x="159" y="80"/>
      <point x="144" y="66"/>
      <point x="144" y="42" type="curve" smooth="yes"/>
      <point x="144" y="14"/>
      <point x="170" y="0"/>
    </contour>
  </outline>
</glyph>
<glyph name="threesuperior" format="2">
  <advance width="800"/>
  <unicode hex="00B3"/>
  <note>
threesuperior
</note>
  <outline>
    <contour>
      <point x="387" y="514" type="curve" smooth="yes"/>
      <point x="443" y="514"/>
      <point x="492" y="531"/>
      <point x="534" y="566" type="curve" smooth="yes"/>
      <point x="579" y="603"/>
      <point x="601" y="649"/>
      <point x="601" y="705" type="curve" smooth="yes"/>
      <point x="601" y="780"/>
      <point x="561" y="835"/>
      <point x="482" y="870" type="curve"/>
      <point x="547" y="901"/>
      <point x="579" y="947"/>
      <point x="579" y="1010" type="curve" smooth="yes"/>
      <point x="579" y="1058"/>
      <point x="560" y="1097"/>
      <point x="523" y="1128" type="curve" smooth="yes"/>
      <point x="488" y="1157"/>
      <point x="446" y="1171"/>
      <point x="397" y="1171" type="curve" smooth="yes"/>
      <point x="346" y="1171"/>
      <point x="300" y="1157"/>
      <point x="260" y="1129" type="curve" smooth="yes"/>
      <point x="231" y="1108"/>
      <point x="216" y="1091"/>
      <point x="216" y="1078" type="curve" smooth="yes"/>
      <point x="216" y="1065"/>
      <point x="223" y="1059"/>
      <point x="237" y="1059" type="curve" smooth="yes"/>
      <point x="243" y="1059"/>
      <point x="250" y="1064"/>
      <point x="259" y="1073" type="curve" smooth="yes"/>
      <point x="291" y="1110"/>
      <point x="337" y="1129"/>
      <point x="397" y="1129" type="curve" smooth="yes"/>
      <point x="434" y="1129"/>
      <point x="465" y="1119"/>
      <point x="492" y="1098" type="curve" smooth="yes"/>
      <point x="521" y="1075"/>
      <point x="536" y="1046"/>
      <point x="536" y="1010" type="curve" smooth="yes"/>
      <point x="536" y="976"/>
      <point x="522" y="948"/>
      <point x="495" y="926" type="curve" smooth="yes"/>
      <point x="470" y="906"/>
      <point x="441" y="896"/>
      <point x="406" y="896" type="curve" smooth="yes"/>
      <point x="365" y="896"/>
      <point x="345" y="889"/>
      <point x="345" y="875" type="curve" smooth="yes"/>
      <point x="345" y="861"/>
      <point x="354" y="854"/>
      <point x="373" y="854" type="curve" smooth="yes"/>
      <point x="419" y="854"/>
      <point x="461" y="841"/>
      <point x="498" y="814" type="curve" smooth="yes"/>
      <point x="539" y="785"/>
      <point x="559" y="748"/>
      <point x="559" y="703" type="curve" smooth="yes"/>
      <point x="559" y="660"/>
      <point x="541" y="625"/>
      <point x="504" y="596" type="curve" smooth="yes"/>
      <point x="470" y="569"/>
      <point x="431" y="556"/>
      <point x="388" y="556" type="curve" smooth="yes"/>
      <point x="349" y="556"/>
      <point x="311" y="566"/>
      <point x="273" y="586" type="curve" smooth="yes"/>
      <point x="238" y="605"/>
      <point x="221" y="615"/>
      <point x="221" y="616" type="curve"/>
      <point x="208" y="616"/>
      <point x="201" y="609"/>
      <point x="201" y="596" type="curve" smooth="yes"/>
      <point x="201" y="576"/>
      <point x="226" y="556"/>
      <point x="275" y="537" type="curve" smooth="yes"/>
      <point x="314" y="522"/>
      <point x="351" y="514"/>
    </contour>
  </outline>
</glyph>
<glyph name="acute" format="2">
  <advance width="705"/>
  <unicode hex="00B4"/>
  <note>
acute
</note>
  <outline>
    <contour>
      <point x="192" y="1013" type="curve" smooth="yes"/>
      <point x="202" y="1013"/>
      <point x="215" y="1020"/>
      <point x="230" y="1033" type="curve" smooth="yes"/>
      <point x="467" y="1237" type="line" smooth="yes"/>
      <point x="484" y="1252"/>
      <point x="492" y="1265"/>
      <point x="492" y="1278" type="curve" smooth="yes"/>
      <point x="492" y="1307"/>
      <point x="478" y="1321"/>
      <point x="450" y="1321" type="curve" smooth="yes"/>
      <point x="439" y="1321"/>
      <point x="426" y="1314"/>
      <point x="411" y="1301" type="curve" smooth="yes"/>
      <point x="175" y="1097" type="line" smooth="yes"/>
      <point x="158" y="1082"/>
      <point x="150" y="1069"/>
      <point x="150" y="1056" type="curve" smooth="yes"/>
      <point x="150" y="1027"/>
      <point x="164" y="1013"/>
    </contour>
  </outline>
</glyph>
<glyph name="ordmasculine" format="2">
  <advance width="912"/>
  <unicode hex="00BA"/>
  <note>
ordmasculine
</note>
  <outline>
    <contour>
      <point x="468" y="725" type="curve" smooth="yes"/>
      <point x="553" y="725"/>
      <point x="627" y="752"/>
      <point x="689" y="806" type="curve" smooth="yes"/>
      <point x="754" y="863"/>
      <point x="786" y="933"/>
      <point x="786" y="1017" type="curve" smooth="yes"/>
      <point x="786" y="1101"/>
      <point x="754" y="1171"/>
      <point x="689" y="1228" type="curve" smooth="yes"/>
      <point x="627" y="1282"/>
      <point x="553" y="1309"/>
      <point x="468" y="1309" type="curve" smooth="yes"/>
      <point x="383" y="1309"/>
      <point x="309" y="1282"/>
      <point x="247" y="1228" type="curve" smooth="yes"/>
      <point x="182" y="1171"/>
      <point x="150" y="1101"/>
      <point x="150" y="1017" type="curve" smooth="yes"/>
      <point x="150" y="933"/>
      <point x="182" y="863"/>
      <point x="247" y="806" type="curve" smooth="yes"/>
      <point x="310" y="752"/>
      <point x="383" y="725"/>
    </contour>
    <contour>
      <point x="468" y="802" type="curve" smooth="yes"/>
      <point x="405" y="802"/>
      <point x="350" y="822"/>
      <point x="304" y="861" type="curve" smooth="yes"/>
      <point x="255" y="903"/>
      <point x="231" y="955"/>
      <point x="231" y="1017" type="curve" smooth="yes"/>
      <point x="231" y="1079"/>
      <point x="255" y="1131"/>
      <point x="304" y="1173" type="curve" smooth="yes"/>
      <point x="350" y="1212"/>
      <point x="405" y="1232"/>
      <point x="468" y="1232" type="curve" smooth="yes"/>
      <point x="531" y="1232"/>
      <point x="586" y="1212"/>
      <point x="632" y="1173" type="curve" smooth="yes"/>
      <point x="681" y="1132"/>
      <point x="705" y="1080"/>
      <point x="705" y="1017" type="curve" smooth="yes"/>
      <point x="705" y="955"/>
      <point x="681" y="903"/>
      <point x="632" y="861" type="curve" smooth="yes"/>
      <point x="586" y="822"/>
      <point x="531" y="802"/>
    </contour>
  </outline>
</glyph>
<glyph name="threequarters" format="2">
  <advance width="1280"/>
  <unicode hex="00BE"/>
  <note>
threequarters
</note>
  <outline>
    <contour>
      <point x="463" y="90" type="curve" smooth="yes"/>
      <point x="470" y="90"/>
      <point x="478" y="93"/>
      <point x="487" y="98" type="curve" smooth="yes"/>
      <point x="495" y="103"/>
      <point x="503" y="113"/>
      <point x="510" y="128" type="curve" smooth="yes"/>
      <point x="1008" y="1096" type="line" smooth="yes"/>
      <point x="1015" y="1109"/>
      <point x="1018" y="1120"/>
      <point x="1018" y="1130" type="curve" smooth="yes"/>
      <point x="1018" y="1137"/>
      <point x="1016" y="1144"/>
      <point x="1013" y="1149" type="curve" smooth="yes"/>
      <point x="1004" y="1165"/>
      <point x="993" y="1173"/>
      <point x="980" y="1173" type="curve" smooth="yes"/>
      <point x="973" y="1173"/>
      <point x="965" y="1170"/>
      <point x="956" y="1165" type="curve" smooth="yes"/>
      <point x="948" y="1160"/>
      <point x="940" y="1150"/>
      <point x="933" y="1135" type="curve" smooth="yes"/>
      <point x="435" y="167" type="line" smooth="yes"/>
      <point x="428" y="154"/>
      <point x="425" y="143"/>
      <point x="425" y="133" type="curve" smooth="yes"/>
      <point x="425" y="126"/>
      <point x="427" y="119"/>
      <point x="430" y="114" type="curve" smooth="yes"/>
      <point x="439" y="98"/>
      <point x="450" y="90"/>
    </contour>
    <contour>
      <point x="387" y="514" type="curve" smooth="yes"/>
      <point x="443" y="514"/>
      <point x="492" y="531"/>
      <point x="534" y="566" type="curve" smooth="yes"/>
      <point x="579" y="603"/>
      <point x="601" y="649"/>
      <point x="601" y="705" type="curve" smooth="yes"/>
      <point x="601" y="780"/>
      <point x="561" y="835"/>
      <point x="482" y="870" type="curve"/>
      <point x="547" y="901"/>
      <point x="579" y="947"/>
      <point x="579" y="1010" type="curve" smooth="yes"/>
      <point x="579" y="1058"/>
      <point x="560" y="1097"/>
      <point x="523" y="1128" type="curve" smooth="yes"/>
      <point x="488" y="1157"/>
      <point x="446" y="1171"/>
      <point x="397" y="1171" type="curve" smooth="yes"/>
      <point x="346" y="1171"/>
      <point x="300" y="1157"/>
      <point x="260" y="1129" type="curve" smooth="yes"/>
      <point x="231" y="1108"/>
      <point x="216" y="1091"/>
      <point x="216" y="1078" type="curve" smooth="yes"/>
      <point x="216" y="1065"/>
      <point x="223" y="1059"/>
      <point x="237" y="1059" type="curve" smooth="yes"/>
      <point x="243" y="1059"/>
      <point x="250" y="1064"/>
      <point x="259" y="1073" type="curve" smooth="yes"/>
      <point x="291" y="1110"/>
      <point x="337" y="1129"/>
      <point x="397" y="1129" type="curve" smooth="yes"/>
      <point x="434" y="1129"/>
      <point x="465" y="1119"/>
      <point x="492" y="1098" type="curve" smooth="yes"/>
      <point x="521" y="1075"/>
      <point x="536" y="1046"/>
      <point x="536" y="1010" type="curve" smooth="yes"/>
      <point x="536" y="976"/>
      <point x="522" y="948"/>
      <point x="495" y="926" type="curve" smooth="yes"/>
      <point x="470" y="906"/>
      <point x="441" y="896"/>
      <point x="406" y="896" type="curve" smooth="yes"/>
      <point x="365" y="896"/>
      <point x="345" y="889"/>
      <point x="345" y="875" type="curve" smooth="yes"/>
      <point x="345" y="861"/>
      <point x="354" y="854"/>
      <point x="373" y="854" type="curve" smooth="yes"/>
      <point x="419" y="854"/>
      <point x="461" y="841"/>
      <point x="498" y="814" type="curve" smooth="yes"/>
      <point x="539" y="785"/>
      <point x="559" y="748"/>
      <point x="559" y="703" type="curve" smooth="yes"/>
      <point x="559" y="660"/>
      <point x="541" y="625"/>
      <point x="504" y="596" type="curve" smooth="yes"/>
      <point x="470" y="569"/>
      <point x="431" y="556"/>
      <point x="388" y="556" type="curve" smooth="yes"/>
      <point x="349" y="556"/>
      <point x="311" y="566"/>
      <point x="273" y="586" type="curve" smooth="yes"/>
      <point x="238" y="605"/>
      <point x="221" y="615"/>
      <point x="221" y="616" type="curve"/>
      <point x="208" y="616"/>
      <point x="201" y="609"/>
      <point x="201" y="596" type="curve" smooth="yes"/>
      <point x="201" y="576"/>
      <point x="226" y="556"/>
      <point x="275" y="537" type="curve" smooth="yes"/>
      <point x="314" y="522"/>
      <point x="351" y="514"/>
    </contour>
    <contour>
      <point x="989" y="0" type="curve" smooth="yes"/>
      <point x="1102" y="0" type="line" smooth="yes"/>
      <point x="1121" y="0"/>
      <point x="1130" y="7"/>
      <point x="1130" y="21" type="curve" smooth="yes"/>
      <point x="1130" y="36"/>
      <point x="1121" y="43"/>
      <point x="1102" y="43" type="curve" smooth="yes"/>
      <point x="1067" y="43" type="line"/>
      <point x="1067" y="176" type="line"/>
      <point x="1109" y="176"/>
      <point x="1130" y="183"/>
      <point x="1130" y="197" type="curve" smooth="yes"/>
      <point x="1130" y="211"/>
      <point x="1109" y="218"/>
      <point x="1067" y="218" type="curve"/>
      <point x="1067" y="628" type="line"/>
      <point x="979" y="628" type="line"/>
      <point x="746" y="225" type="line"/>
      <point x="746" y="176" type="line"/>
      <point x="1024" y="176" type="line"/>
      <point x="1025" y="43" type="line"/>
      <point x="989" y="43" type="line" smooth="yes"/>
      <point x="970" y="43"/>
      <point x="961" y="36"/>
      <point x="961" y="21" type="curve" smooth="yes"/>
      <point x="961" y="7"/>
      <point x="970" y="0"/>
    </contour>
    <contour>
      <point x="790" y="218" type="line"/>
      <point x="1002" y="586" type="line"/>
      <point x="1024" y="586" type="line"/>
      <point x="1024" y="218" type="line"/>
    </contour>
  </outline>
</glyph>
<glyph name="Acircumflex" format="2">
  <advance width="1504"/>
  <unicode hex="00C2"/>
  <note>
Acircumflex
</note>
  <outline>
    <contour>
      <point x="206" y="3" type="curve" smooth="yes"/>
      <point x="432" y="3" type="line" smooth="yes"/>
      <point x="469" y="3"/>
      <point x="488" y="17"/>
      <point x="488" y="45" type="curve" smooth="yes"/>
      <point x="488" y="74"/>
      <point x="469" y="88"/>
      <point x="432" y="88" type="curve" smooth="yes"/>
      <point x="371" y="88" type="line"/>
      <point x="478" y="395" type="line"/>
      <point x="1030" y="395" type="line"/>
      <point x="1145" y="88" type="line"/>
      <point x="1074" y="88" type="line" smooth="yes"/>
      <point x="1037" y="88"/>
      <point x="1018" y="74"/>
      <point x="1018" y="45" type="curve" smooth="yes"/>
      <point x="1018" y="17"/>
      <point x="1037" y="3"/>
      <point x="1074" y="3" type="curve" smooth="yes"/>
      <point x="1300" y="3" type="line" smooth="yes"/>
      <point x="1337" y="3"/>
      <point x="1356" y="17"/>
      <point x="1356" y="45" type="curve" smooth="yes"/>
      <point x="1356" y="74"/>
      <point x="1337" y="88"/>
      <point x="1300" y="88" type="curve" smooth="yes"/>
      <point x="1229" y="88" type="line"/>
      <point x="823" y="1174" type="line"/>
      <point x="683" y="1175" type="line"/>
      <point x="277" y="88" type="line"/>
      <point x="206" y="88" type="line" smooth="yes"/>
      <point x="169" y="88"/>
      <point x="150" y="74"/>
      <point x="150" y="45" type="curve" smooth="yes"/>
      <point x="150" y="17"/>
      <point x="169" y="3"/>
    </contour>
    <contour>
      <point x="510" y="479" type="line"/>
      <point x="735" y="1090" type="line"/>
      <point x="766" y="1090" type="line"/>
      <point x="998" y="479" type="line"/>
    </contour>
    <contour>
      <point x="486" y="1224" type="curve" smooth="yes"/>
      <point x="501" y="1224"/>
      <point x="545" y="1253"/>
      <point x="619" y="1310" type="curve" smooth="yes"/>
      <point x="742" y="1410" type="line"/>
      <point x="866" y="1311" type="line" smooth="yes"/>
      <point x="940" y="1253"/>
      <point x="984" y="1224"/>
      <point x="998" y="1224" type="curve" smooth="yes"/>
      <point x="1027" y="1224"/>
      <point x="1041" y="1238"/>
      <point x="1041" y="1266" type="curve" smooth="yes"/>
      <point x="1041" y="1280"/>
      <point x="1032" y="1294"/>
      <point x="1013" y="1308" type="curve" smooth="yes"/>
      <point x="742" y="1514" type="line"/>
      <point x="472" y="1308" type="line" smooth="yes"/>
      <point x="453" y="1294"/>
      <point x="444" y="1280"/>
      <point x="444" y="1266" type="curve" smooth="yes"/>
      <point x="444" y="1238"/>
      <point x="458" y="1224"/>
    </contour>
  </outline>
</glyph>
<glyph name="Atilde" format="2">
  <advance width="1504"/>
  <unicode hex="00C3"/>
  <note>
Atilde
</note>
  <outline>
    <contour>
      <point x="206" y="3" type="curve" smooth="yes"/>
      <point x="432" y="3" type="line" smooth="yes"/>
      <point x="469" y="3"/>
      <point x="488" y="17"/>
      <point x="488" y="45" type="curve" smooth="yes"/>
      <point x="488" y="74"/>
      <point x="469" y="88"/>
      <point x="432" y="88" type="curve" smooth="yes"/>
      <point x="371" y="88" type="line"/>
      <point x="478" y="395" type="line"/>
      <point x="1030" y="395" type="line"/>
      <point x="1145" y="88" type="line"/>
      <point x="1074" y="88" type="line" smooth="yes"/>
      <point x="1037" y="88"/>
      <point x="1018" y="74"/>
      <point x="1018" y="45" type="curve" smooth="yes"/>
      <point x="1018" y="17"/>
      <point x="1037" y="3"/>
      <point x="1074" y="3" type="curve" smooth="yes"/>
      <point x="1300" y="3" type="line" smooth="yes"/>
      <point x="1337" y="3"/>
      <point x="1356" y="17"/>
      <point x="1356" y="45" type="curve" smooth="yes"/>
      <point x="1356" y="74"/>
      <point x="1337" y="88"/>
      <point x="1300" y="88" type="curve" smooth="yes"/>
      <point x="1229" y="88" type="line"/>
      <point x="823" y="1174" type="line"/>
      <point x="683" y="1175" type="line"/>
      <point x="277" y="88" type="line"/>
      <point x="206" y="88" type="line" smooth="yes"/>
      <point x="169" y="88"/>
      <point x="150" y="74"/>
      <point x="150" y="45" type="curve" smooth="yes"/>
      <point x="150" y="17"/>
      <point x="169" y="3"/>
    </contour>
    <contour>
      <point x="510" y="479" type="line"/>
      <point x="735" y="1090" type="line"/>
      <point x="766" y="1090" type="line"/>
      <point x="998" y="479" type="line"/>
    </contour>
    <contour>
      <point x="883" y="1224" type="curve" smooth="yes"/>
      <point x="913" y="1224"/>
      <point x="951" y="1238"/>
      <point x="996" y="1266" type="curve" smooth="yes"/>
      <point x="1045" y="1296"/>
      <point x="1070" y="1324"/>
      <point x="1070" y="1351" type="curve" smooth="yes"/>
      <point x="1070" y="1377"/>
      <point x="1056" y="1390"/>
      <point x="1028" y="1390" type="curve" smooth="yes"/>
      <point x="1019" y="1390"/>
      <point x="997" y="1377"/>
      <point x="964" y="1350" type="curve" smooth="yes"/>
      <point x="930" y="1323"/>
      <point x="903" y="1309"/>
      <point x="883" y="1309" type="curve" smooth="yes"/>
      <point x="862" y="1309"/>
      <point x="822" y="1329"/>
      <point x="763" y="1370" type="curve" smooth="yes"/>
      <point x="703" y="1410"/>
      <point x="655" y="1430"/>
      <point x="619" y="1430" type="curve" smooth="yes"/>
      <point x="590" y="1430"/>
      <point x="552" y="1416"/>
      <point x="506" y="1388" type="curve" smooth="yes"/>
      <point x="457" y="1358"/>
      <point x="432" y="1330"/>
      <point x="432" y="1305" type="curve" smooth="yes"/>
      <point x="432" y="1278"/>
      <point x="446" y="1265"/>
      <point x="473" y="1265" type="curve" smooth="yes"/>
      <point x="484" y="1265"/>
      <point x="505" y="1279"/>
      <point x="538" y="1306" type="curve" smooth="yes"/>
      <point x="570" y="1333"/>
      <point x="597" y="1346"/>
      <point x="620" y="1346" type="curve" smooth="yes"/>
      <point x="638" y="1346"/>
      <point x="677" y="1326"/>
      <point x="737" y="1285" type="curve" smooth="yes"/>
      <point x="797" y="1244"/>
      <point x="846" y="1224"/>
    </contour>
  </outline>
</glyph>
<glyph name="Adieresis" format="2">
  <advance width="1504"/>
  <unicode hex="00C4"/>
  <note>
Adieresis
</note>
  <outline>
    <contour>
      <point x="206" y="3" type="curve" smooth="yes"/>
      <point x="432" y="3" type="line" smooth="yes"/>
      <point x="469" y="3"/>
      <point x="488" y="17"/>
      <point x="488" y="45" type="curve" smooth="yes"/>
      <point x="488" y="74"/>
      <point x="469" y="88"/>
      <point x="432" y="88" type="curve" smooth="yes"/>
      <point x="371" y="88" type="line"/>
      <point x="478" y="395" type="line"/>
      <point x="1030" y="395" type="line"/>
      <point x="1145" y="88" type="line"/>
      <point x="1074" y="88" type="line" smooth="yes"/>
      <point x="1037" y="88"/>
      <point x="1018" y="74"/>
      <point x="1018" y="45" type="curve" smooth="yes"/>
      <point x="1018" y="17"/>
      <point x="1037" y="3"/>
      <point x="1074" y="3" type="curve" smooth="yes"/>
      <point x="1300" y="3" type="line" smooth="yes"/>
      <point x="1337" y="3"/>
      <point x="1356" y="17"/>
      <point x="1356" y="45" type="curve" smooth="yes"/>
      <point x="1356" y="74"/>
      <point x="1337" y="88"/>
      <point x="1300" y="88" type="curve" smooth="yes"/>
      <point x="1229" y="88" type="line"/>
      <point x="823" y="1174" type="line"/>
      <point x="683" y="1175" type="line"/>
      <point x="277" y="88" type="line"/>
      <point x="206" y="88" type="line" smooth="yes"/>
      <point x="169" y="88"/>
      <point x="150" y="74"/>
      <point x="150" y="45" type="curve" smooth="yes"/>
      <point x="150" y="17"/>
      <point x="169" y="3"/>
    </contour>
    <contour>
      <point x="510" y="479" type="line"/>
      <point x="735" y="1090" type="line"/>
      <point x="766" y="1090" type="line"/>
      <point x="998" y="479" type="line"/>
    </contour>
    <contour>
      <point x="603" y="1224" type="curve" smooth="yes"/>
      <point x="646" y="1224"/>
      <point x="680" y="1258"/>
      <point x="680" y="1301" type="curve" smooth="yes"/>
      <point x="680" y="1342"/>
      <point x="646" y="1378"/>
      <point x="603" y="1378" type="curve" smooth="yes"/>
      <point x="560" y="1378"/>
      <point x="526" y="1344"/>
      <point x="526" y="1301" type="curve" smooth="yes"/>
      <point x="526" y="1258"/>
      <point x="560" y="1224"/>
    </contour>
    <contour>
      <point x="903" y="1224" type="curve" smooth="yes"/>
      <point x="946" y="1224"/>
      <point x="980" y="1258"/>
      <point x="980" y="1301" type="curve" smooth="yes"/>
      <point x="980" y="1342"/>
      <point x="946" y="1378"/>
      <point x="903" y="1378" type="curve" smooth="yes"/>
      <point x="860" y="1378"/>
      <point x="826" y="1344"/>
      <point x="826" y="1301" type="curve" smooth="yes"/>
      <point x="826" y="1258"/>
      <point x="860" y="1224"/>
    </contour>
  </outline>
</glyph>
<glyph name="AE" format="2">
  <advance width="1620"/>
  <unicode hex="00C6"/>
  <note>
AE
</note>
  <outline>
    <contour>
      <point x="665" y="-2" type="curve"/>
      <point x="1470" y="-1" type="line"/>
      <point x="1470" y="154" type="line" smooth="yes"/>
      <point x="1470" y="191"/>
      <point x="1456" y="210"/>
      <point x="1428" y="210" type="curve" smooth="yes"/>
      <point x="1399" y="210"/>
      <point x="1385" y="192"/>
      <point x="1385" y="156" type="curve" smooth="yes"/>
      <point x="1385" y="154" type="line"/>
      <point x="1386" y="83" type="line"/>
      <point x="820" y="83" type="line"/>
      <point x="820" y="564" type="line"/>
      <point x="1071" y="564" type="line"/>
      <point x="1071" y="493" type="line" smooth="yes"/>
      <point x="1071" y="456"/>
      <point x="1085" y="437"/>
      <point x="1114" y="437" type="curve" smooth="yes"/>
      <point x="1142" y="437"/>
      <point x="1156" y="456"/>
      <point x="1156" y="493" type="curve" smooth="yes"/>
      <point x="1156" y="719" type="line" smooth="yes"/>
      <point x="1156" y="756"/>
      <point x="1142" y="775"/>
      <point x="1114" y="775" type="curve" smooth="yes"/>
      <point x="1085" y="775"/>
      <point x="1071" y="756"/>
      <point x="1071" y="719" type="curve" smooth="yes"/>
      <point x="1071" y="648" type="line"/>
      <point x="820" y="648" type="line"/>
      <point x="820" y="1085" type="line"/>
      <point x="1342" y="1085" type="line"/>
      <point x="1341" y="1014" type="line"/>
      <point x="1341" y="1012" type="line" smooth="yes"/>
      <point x="1341" y="976"/>
      <point x="1355" y="958"/>
      <point x="1384" y="958" type="curve" smooth="yes"/>
      <point x="1412" y="958"/>
      <point x="1426" y="977"/>
      <point x="1426" y="1014" type="curve" smooth="yes"/>
      <point x="1426" y="1169" type="line"/>
      <point x="665" y="1170" type="line" smooth="yes"/>
      <point x="628" y="1170"/>
      <point x="609" y="1156"/>
      <point x="609" y="1128" type="curve" smooth="yes"/>
      <point x="609" y="1105"/>
      <point x="621" y="1091"/>
      <point x="646" y="1087" type="curve"/>
      <point x="277" y="84" type="line"/>
      <point x="206" y="84" type="line" smooth="yes"/>
      <point x="169" y="84"/>
      <point x="150" y="70"/>
      <point x="150" y="41" type="curve" smooth="yes"/>
      <point x="150" y="13"/>
      <point x="169" y="-1"/>
      <point x="206" y="-1" type="curve" smooth="yes"/>
      <point x="432" y="-1" type="line" smooth="yes"/>
      <point x="469" y="-1"/>
      <point x="488" y="13"/>
      <point x="488" y="41" type="curve" smooth="yes"/>
      <point x="488" y="70"/>
      <point x="469" y="84"/>
      <point x="432" y="84" type="curve" smooth="yes"/>
      <point x="371" y="84" type="line"/>
      <point x="478" y="391" type="line"/>
      <point x="736" y="391" type="line"/>
      <point x="736" y="83" type="line"/>
      <point x="665" y="83" type="line" smooth="yes"/>
      <point x="628" y="83"/>
      <point x="609" y="69"/>
      <point x="609" y="40" type="curve" smooth="yes"/>
      <point x="609" y="28"/>
      <point x="613" y="18"/>
      <point x="622" y="10" type="curve"/>
      <point x="639" y="3"/>
      <point x="654" y="-1"/>
    </contour>
    <contour>
      <point x="510" y="475" type="line"/>
      <point x="736" y="1082" type="line"/>
      <point x="736" y="475" type="line"/>
    </contour>
  </outline>
</glyph>
<glyph name="Egrave" format="2">
  <advance width="1241"/>
  <unicode hex="00C8"/>
  <note>
Egrave
</note>
  <outline>
    <contour>
      <point x="206" y="-1" type="curve"/>
      <point x="1091" y="0" type="line"/>
      <point x="1091" y="155" type="line" smooth="yes"/>
      <point x="1091" y="192"/>
      <point x="1077" y="211"/>
      <point x="1049" y="211" type="curve" smooth="yes"/>
      <point x="1020" y="211"/>
      <point x="1006" y="193"/>
      <point x="1006" y="157" type="curve" smooth="yes"/>
      <point x="1006" y="155" type="line"/>
      <point x="1007" y="84" type="line"/>
      <point x="361" y="84" type="line"/>
      <point x="361" y="565" type="line"/>
      <point x="662" y="565" type="line"/>
      <point x="662" y="494" type="line" smooth="yes"/>
      <point x="662" y="457"/>
      <point x="676" y="438"/>
      <point x="705" y="438" type="curve" smooth="yes"/>
      <point x="733" y="438"/>
      <point x="747" y="457"/>
      <point x="747" y="494" type="curve" smooth="yes"/>
      <point x="747" y="720" type="line" smooth="yes"/>
      <point x="747" y="757"/>
      <point x="733" y="776"/>
      <point x="705" y="776" type="curve" smooth="yes"/>
      <point x="676" y="776"/>
      <point x="662" y="757"/>
      <point x="662" y="720" type="curve" smooth="yes"/>
      <point x="662" y="649" type="line"/>
      <point x="361" y="649" type="line"/>
      <point x="361" y="1086" type="line"/>
      <point x="963" y="1086" type="line"/>
      <point x="962" y="1015" type="line"/>
      <point x="962" y="1013" type="line" smooth="yes"/>
      <point x="962" y="977"/>
      <point x="976" y="959"/>
      <point x="1005" y="959" type="curve" smooth="yes"/>
      <point x="1033" y="959"/>
      <point x="1047" y="978"/>
      <point x="1047" y="1015" type="curve" smooth="yes"/>
      <point x="1047" y="1170" type="line"/>
      <point x="206" y="1171" type="line" smooth="yes"/>
      <point x="169" y="1171"/>
      <point x="150" y="1157"/>
      <point x="150" y="1129" type="curve" smooth="yes"/>
      <point x="150" y="1100"/>
      <point x="169" y="1086"/>
      <point x="206" y="1086" type="curve" smooth="yes"/>
      <point x="277" y="1086" type="line"/>
      <point x="277" y="84" type="line"/>
      <point x="206" y="84" type="line" smooth="yes"/>
      <point x="169" y="84"/>
      <point x="150" y="70"/>
      <point x="150" y="41" type="curve" smooth="yes"/>
      <point x="150" y="29"/>
      <point x="154" y="19"/>
      <point x="163" y="11" type="curve"/>
      <point x="180" y="4"/>
      <point x="195" y="0"/>
    </contour>
    <contour>
      <point x="628" y="1222" type="curve" smooth="yes"/>
      <point x="657" y="1222"/>
      <point x="671" y="1236"/>
      <point x="671" y="1265" type="curve" smooth="yes"/>
      <point x="671" y="1270"/>
      <point x="670" y="1275"/>
      <point x="668" y="1281" type="curve"/>
      <point x="660" y="1294"/>
      <point x="614" y="1337"/>
      <point x="531" y="1410" type="curve" smooth="yes"/>
      <point x="442" y="1490"/>
      <point x="389" y="1530"/>
      <point x="372" y="1530" type="curve" smooth="yes"/>
      <point x="343" y="1530"/>
      <point x="329" y="1516"/>
      <point x="329" y="1487" type="curve" smooth="yes"/>
      <point x="329" y="1474"/>
      <point x="337" y="1461"/>
      <point x="354" y="1446" type="curve" smooth="yes"/>
      <point x="590" y="1242" type="line" smooth="yes"/>
      <point x="605" y="1229"/>
      <point x="618" y="1222"/>
    </contour>
  </outline>
</glyph>
<glyph name="Icircumflex" format="2">
  <advance width="638"/>
  <unicode hex="00CE"/>
  <note>
Icircumflex
</note>
  <outline>
    <contour>
      <point x="206" y="-1" type="curve" smooth="yes"/>
      <point x="432" y="-1" type="line" smooth="yes"/>
      <point x="469" y="-1"/>
      <point x="488" y="13"/>
      <point x="488" y="41" type="curve" smooth="yes"/>
      <point x="488" y="70"/>
      <point x="469" y="84"/>
      <point x="432" y="84" type="curve" smooth="yes"/>
      <point x="361" y="84" type="line"/>
      <point x="361" y="1086" type="line"/>
      <point x="432" y="1086" type="line" smooth="yes"/>
      <point x="469" y="1086"/>
      <point x="488" y="1100"/>
      <point x="488" y="1129" type="curve" smooth="yes"/>
      <point x="488" y="1157"/>
      <point x="469" y="1171"/>
      <point x="432" y="1171" type="curve" smooth="yes"/>
      <point x="206" y="1171" type="line" smooth="yes"/>
      <point x="169" y="1171"/>
      <point x="150" y="1157"/>
      <point x="150" y="1129" type="curve" smooth="yes"/>
      <point x="150" y="1100"/>
      <point x="169" y="1086"/>
      <point x="206" y="1086" type="curve" smooth="yes"/>
      <point x="277" y="1086" type="line"/>
      <point x="277" y="84" type="line"/>
      <point x="206" y="84" type="line" smooth="yes"/>
      <point x="169" y="84"/>
      <point x="150" y="70"/>
      <point x="150" y="41" type="curve" smooth="yes"/>
      <point x="150" y="13"/>
      <point x="169" y="-1"/>
    </contour>
    <contour>
      <point x="66" y="1220" type="curve" smooth="yes"/>
      <point x="81" y="1220"/>
      <point x="125" y="1249"/>
      <point x="199" y="1306" type="curve" smooth="yes"/>
      <point x="322" y="1406" type="line"/>
      <point x="446" y="1307" type="line" smooth="yes"/>
      <point x="520" y="1249"/>
      <point x="564" y="1220"/>
      <point x="578" y="1220" type="curve" smooth="yes"/>
      <point x="607" y="1220"/>
      <point x="621" y="1234"/>
      <point x="621" y="1262" type="curve" smooth="yes"/>
      <point x="621" y="1276"/>
      <point x="612" y="1290"/>
      <point x="593" y="1304" type="curve" smooth="yes"/>
      <point x="322" y="1510" type="line"/>
      <point x="52" y="1304" type="line" smooth="yes"/>
      <point x="33" y="1290"/>
      <point x="24" y="1276"/>
      <point x="24" y="1262" type="curve" smooth="yes"/>
      <point x="24" y="1234"/>
      <point x="38" y="1220"/>
    </contour>
  </outline>
</glyph>
<glyph name="Idieresis" format="2">
  <advance width="638"/>
  <unicode hex="00CF"/>
  <note>
Idieresis
</note>
  <outline>
    <contour>
      <point x="206" y="-1" type="curve" smooth="yes"/>
      <point x="432" y="-1" type="line" smooth="yes"/>
      <point x="469" y="-1"/>
      <point x="488" y="13"/>
      <point x="488" y="41" type="curve" smooth="yes"/>
      <point x="488" y="70"/>
      <point x="469" y="84"/>
      <point x="432" y="84" type="curve" smooth="yes"/>
      <point x="361" y="84" type="line"/>
      <point x="361" y="1086" type="line"/>
      <point x="432" y="1086" type="line" smooth="yes"/>
      <point x="469" y="1086"/>
      <point x="488" y="1100"/>
      <point x="488" y="1129" type="curve" smooth="yes"/>
      <point x="488" y="1157"/>
      <point x="469" y="1171"/>
      <point x="432" y="1171" type="curve" smooth="yes"/>
      <point x="206" y="1171" type="line" smooth="yes"/>
      <point x="169" y="1171"/>
      <point x="150" y="1157"/>
      <point x="150" y="1129" type="curve" smooth="yes"/>
      <point x="150" y="1100"/>
      <point x="169" y="1086"/>
      <point x="206" y="1086" type="curve" smooth="yes"/>
      <point x="277" y="1086" type="line"/>
      <point x="277" y="84" type="line"/>
      <point x="206" y="84" type="line" smooth="yes"/>
      <point x="169" y="84"/>
      <point x="150" y="70"/>
      <point x="150" y="41" type="curve" smooth="yes"/>
      <point x="150" y="13"/>
      <point x="169" y="-1"/>
    </contour>
    <contour>
      <point x="175" y="1220" type="curve" smooth="yes"/>
      <point x="218" y="1220"/>
      <point x="252" y="1254"/>
      <point x="252" y="1297" type="curve" smooth="yes"/>
      <point x="252" y="1338"/>
      <point x="218" y="1374"/>
      <point x="175" y="1374" type="curve" smooth="yes"/>
      <point x="132" y="1374"/>
      <point x="98" y="1340"/>
      <point x="98" y="1297" type="curve" smooth="yes"/>
      <point x="98" y="1254"/>
      <point x="132" y="1220"/>
    </contour>
    <contour>
      <point x="475" y="1220" type="curve" smooth="yes"/>
      <point x="518" y="1220"/>
      <point x="552" y="1254"/>
      <point x="552" y="1297" type="curve" smooth="yes"/>
      <point x="552" y="1338"/>
      <point x="518" y="1374"/>
      <point x="475" y="1374" type="curve" smooth="yes"/>
      <point x="432" y="1374"/>
      <point x="398" y="1340"/>
      <point x="398" y="1297" type="curve" smooth="yes"/>
      <point x="398" y="1254"/>
      <point x="432" y="1220"/>
    </contour>
  </outline>
</glyph>
<glyph name="Eth" format="2">
  <advance width="1283"/>
  <unicode hex="00D0"/>
  <note>
Eth
</note>
  <outline>
    <contour>
      <point x="206" y="-1" type="curve"/>
      <point x="658" y="0" type="line" smooth="yes"/>
      <point x="794" y="0"/>
      <point x="908" y="55"/>
      <point x="1001" y="164" type="curve" smooth="yes"/>
      <point x="1090" y="268"/>
      <point x="1134" y="389"/>
      <point x="1134" y="527" type="curve" smooth="yes"/>
      <point x="1134" y="675"/>
      <point x="1124" y="774"/>
      <point x="1105" y="825" type="curve" smooth="yes"/>
      <point x="1018" y="1055"/>
      <point x="869" y="1170"/>
      <point x="658" y="1170" type="curve" smooth="yes"/>
      <point x="206" y="1169" type="line" smooth="yes"/>
      <point x="169" y="1169"/>
      <point x="150" y="1155"/>
      <point x="150" y="1127" type="curve" smooth="yes"/>
      <point x="150" y="1098"/>
      <point x="169" y="1084"/>
      <point x="206" y="1084" type="curve" smooth="yes"/>
      <point x="277" y="1084" type="line"/>
      <point x="277" y="627" type="line"/>
      <point x="206" y="627" type="line" smooth="yes"/>
      <point x="169" y="627"/>
      <point x="150" y="613"/>
      <point x="150" y="585" type="curve" smooth="yes"/>
      <point x="150" y="557"/>
      <point x="169" y="543"/>
      <point x="206" y="543" type="curve" smooth="yes"/>
      <point x="277" y="543" type="line"/>
      <point x="277" y="84" type="line"/>
      <point x="206" y="84" type="line" smooth="yes"/>
      <point x="169" y="84"/>
      <point x="150" y="70"/>
      <point x="150" y="41" type="curve" smooth="yes"/>
      <point x="150" y="29"/>
      <point x="154" y="19"/>
      <point x="163" y="11" type="curve"/>
      <point x="180" y="4"/>
      <point x="195" y="0"/>
    </contour>
    <contour>
      <point x="361" y="84" type="line"/>
      <point x="361" y="543" type="line"/>
      <point x="435" y="543" type="line" smooth="yes"/>
      <point x="472" y="543"/>
      <point x="491" y="557"/>
      <point x="491" y="585" type="curve" smooth="yes"/>
      <point x="491" y="613"/>
      <point x="472" y="627"/>
      <point x="435" y="627" type="curve" smooth="yes"/>
      <point x="361" y="627" type="line"/>
      <point x="361" y="1086" type="line"/>
      <point x="666" y="1086" type="line" smooth="yes"/>
      <point x="771" y="1086"/>
      <point x="862" y="1041"/>
      <point x="939" y="950" type="curve" smooth="yes"/>
      <point x="1013" y="863"/>
      <point x="1050" y="767"/>
      <point x="1050" y="661" type="curve" smooth="yes"/>
      <point x="1050" y="509" type="line" smooth="yes"/>
      <point x="1050" y="404"/>
      <point x="1013" y="307"/>
      <point x="938" y="220" type="curve" smooth="yes"/>
      <point x="860" y="129"/>
      <point x="769" y="84"/>
      <point x="666" y="84" type="curve" smooth="yes"/>
    </contour>
  </outline>
</glyph>
<glyph name="Ntilde" format="2">
  <advance width="1364"/>
  <unicode hex="00D1"/>
  <note>
Ntilde
</note>
  <outline>
    <contour>
      <point x="206" y="-1" type="curve" smooth="yes"/>
      <point x="432" y="-1" type="line" smooth="yes"/>
      <point x="469" y="-1"/>
      <point x="488" y="13"/>
      <point x="488" y="41" type="curve" smooth="yes"/>
      <point x="488" y="70"/>
      <point x="469" y="84"/>
      <point x="432" y="84" type="curve" smooth="yes"/>
      <point x="361" y="84" type="line"/>
      <point x="361" y="1047" type="line"/>
      <point x="980" y="0" type="line"/>
      <point x="1088" y="0" type="line"/>
      <point x="1088" y="1086" type="line"/>
      <point x="1159" y="1086" type="line" smooth="yes"/>
      <point x="1196" y="1086"/>
      <point x="1215" y="1100"/>
      <point x="1215" y="1129" type="curve" smooth="yes"/>
      <point x="1215" y="1157"/>
      <point x="1196" y="1171"/>
      <point x="1159" y="1171" type="curve" smooth="yes"/>
      <point x="933" y="1171" type="line" smooth="yes"/>
      <point x="896" y="1171"/>
      <point x="877" y="1157"/>
      <point x="877" y="1129" type="curve" smooth="yes"/>
      <point x="877" y="1100"/>
      <point x="896" y="1086"/>
      <point x="933" y="1086" type="curve" smooth="yes"/>
      <point x="1004" y="1086" type="line"/>
      <point x="1004" y="121" type="line"/>
      <point x="384" y="1170" type="line"/>
      <point x="206" y="1171" type="line" smooth="yes"/>
      <point x="169" y="1171"/>
      <point x="150" y="1157"/>
      <point x="150" y="1129" type="curve" smooth="yes"/>
      <point x="150" y="1100"/>
      <point x="169" y="1086"/>
      <point x="206" y="1086" type="curve" smooth="yes"/>
      <point x="277" y="1086" type="line"/>
      <point x="277" y="84" type="line"/>
      <point x="206" y="84" type="line" smooth="yes"/>
      <point x="169" y="84"/>
      <point x="150" y="70"/>
      <point x="150" y="41" type="curve" smooth="yes"/>
      <point x="150" y="13"/>
      <point x="169" y="-1"/>
    </contour>
    <contour>
      <point x="803" y="1220" type="curve" smooth="yes"/>
      <point x="833" y="1220"/>
      <point x="871" y="1234"/>
      <point x="916" y="1262" type="curve" smooth="yes"/>
      <point x="965" y="1292"/>
      <point x="990" y="1320"/>
      <point x="990" y="1347" type="curve" smooth="yes"/>
      <point x="990" y="1373"/>
      <point x="976" y="1386"/>
      <point x="948" y="1386" type="curve" smooth="yes"/>
      <point x="939" y="1386"/>
      <point x="917" y="1373"/>
      <point x="884" y="1346" type="curve" smooth="yes"/>
      <point x="850" y="1319"/>
      <point x="823" y="1305"/>
      <point x="803" y="1305" type="curve" smooth="yes"/>
      <point x="782" y="1305"/>
      <point x="742" y="1325"/>
      <point x="683" y="1366" type="curve" smooth="yes"/>
      <point x="623" y="1406"/>
      <point x="575" y="1426"/>
      <point x="539" y="1426" type="curve" smooth="yes"/>
      <point x="510" y="1426"/>
      <point x="472" y="1412"/>
      <point x="426" y="1384" type="curve" smooth="yes"/>
      <point x="377" y="1354"/>
      <point x="352" y="1326"/>
      <point x="352" y="1301" type="curve" smooth="yes"/>
      <point x="352" y="1274"/>
      <point x="366" y="1261"/>
      <point x="393" y="1261" type="curve" smooth="yes"/>
      <point x="404" y="1261"/>
      <point x="425" y="1275"/>
      <point x="458" y="1302" type="curve" smooth="yes"/>
      <point x="490" y="1329"/>
      <point x="517" y="1342"/>
      <point x="540" y="1342" type="curve" smooth="yes"/>
      <point x="558" y="1342"/>
      <point x="597" y="1322"/>
      <point x="657" y="1281" type="curve" smooth="yes"/>
      <point x="717" y="1240"/>
      <point x="766" y="1220"/>
    </contour>
  </outline>
</glyph>
<glyph name="Oacute" format="2">
  <advance width="1324"/>
  <unicode hex="00D3"/>
  <note>
Oacute
</note>
  <outline>
    <contour>
      <point x="662" y="-31" type="curve" smooth="yes"/>
      <point x="817" y="-31"/>
      <point x="943" y="35"/>
      <point x="1041" y="166" type="curve" smooth="yes"/>
      <point x="1130" y="285"/>
      <point x="1174" y="424"/>
      <point x="1174" y="584" type="curve" smooth="yes"/>
      <point x="1174" y="743"/>
      <point x="1129" y="883"/>
      <point x="1040" y="1002" type="curve" smooth="yes"/>
      <point x="943" y="1133"/>
      <point x="817" y="1199"/>
      <point x="662" y="1199" type="curve" smooth="yes"/>
      <point x="507" y="1199"/>
      <point x="381" y="1133"/>
      <point x="283" y="1002" type="curve" smooth="yes"/>
      <point x="194" y="883"/>
      <point x="150" y="743"/>
      <point x="150" y="584" type="curve" smooth="yes"/>
      <point x="150" y="425"/>
      <point x="194" y="285"/>
      <point x="283" y="166" type="curve" smooth="yes"/>
      <point x="381" y="35"/>
      <point x="507" y="-31"/>
    </contour>
    <contour>
      <point x="662" y="53" type="curve" smooth="yes"/>
      <point x="533" y="53"/>
      <point x="427" y="111"/>
      <point x="345" y="227" type="curve" smooth="yes"/>
      <point x="271" y="331"/>
      <point x="234" y="450"/>
      <point x="234" y="584" type="curve" smooth="yes"/>
      <point x="234" y="719"/>
      <point x="271" y="838"/>
      <point x="345" y="941" type="curve" smooth="yes"/>
      <point x="427" y="1057"/>
      <point x="533" y="1115"/>
      <point x="662" y="1115" type="curve" smooth="yes"/>
      <point x="791" y="1115"/>
      <point x="897" y="1057"/>
      <point x="979" y="942" type="curve" smooth="yes"/>
      <point x="1052" y="838"/>
      <point x="1089" y="719"/>
      <point x="1089" y="584" type="curve" smooth="yes"/>
      <point x="1089" y="449"/>
      <point x="1052" y="329"/>
      <point x="979" y="226" type="curve" smooth="yes"/>
      <point x="897" y="111"/>
      <point x="791" y="53"/>
    </contour>
    <contour>
      <point x="662" y="1252" type="curve" smooth="yes"/>
      <point x="672" y="1252"/>
      <point x="685" y="1259"/>
      <point x="700" y="1272" type="curve" smooth="yes"/>
      <point x="936" y="1476" type="line" smooth="yes"/>
      <point x="953" y="1491"/>
      <point x="961" y="1504"/>
      <point x="961" y="1517" type="curve" smooth="yes"/>
      <point x="961" y="1546"/>
      <point x="947" y="1560"/>
      <point x="918" y="1560" type="curve" smooth="yes"/>
      <point x="901" y="1560"/>
      <point x="848" y="1520"/>
      <point x="759" y="1440" type="curve" smooth="yes"/>
      <point x="676" y="1367"/>
      <point x="630" y="1324"/>
      <point x="622" y="1311" type="curve"/>
      <point x="620" y="1305"/>
      <point x="619" y="1300"/>
      <point x="619" y="1295" type="curve" smooth="yes"/>
      <point x="619" y="1266"/>
      <point x="633" y="1252"/>
    </contour>
  </outline>
</glyph>
<glyph name="Udieresis" format="2">
  <advance width="1360"/>
  <unicode hex="00DC"/>
  <note>
Udieresis
</note>
  <outline>
    <contour>
      <point x="685" y="-32" type="curve" smooth="yes"/>
      <point x="800" y="-32"/>
      <point x="896" y="9"/>
      <point x="974" y="91" type="curve" smooth="yes"/>
      <point x="1050" y="171"/>
      <point x="1088" y="269"/>
      <point x="1088" y="385" type="curve" smooth="yes"/>
      <point x="1088" y="1087" type="line"/>
      <point x="1159" y="1087" type="line" smooth="yes"/>
      <point x="1196" y="1087"/>
      <point x="1215" y="1101"/>
      <point x="1215" y="1130" type="curve" smooth="yes"/>
      <point x="1215" y="1158"/>
      <point x="1196" y="1172"/>
      <point x="1159" y="1172" type="curve" smooth="yes"/>
      <point x="933" y="1172" type="line" smooth="yes"/>
      <point x="896" y="1172"/>
      <point x="877" y="1158"/>
      <point x="877" y="1130" type="curve" smooth="yes"/>
      <point x="877" y="1101"/>
      <point x="896" y="1087"/>
      <point x="933" y="1087" type="curve" smooth="yes"/>
      <point x="1004" y="1087" type="line"/>
      <point x="1004" y="385" type="line" smooth="yes"/>
      <point x="1004" y="205"/>
      <point x="861" y="52"/>
      <point x="681" y="52" type="curve" smooth="yes"/>
      <point x="591" y="52"/>
      <point x="515" y="85"/>
      <point x="453" y="152" type="curve" smooth="yes"/>
      <point x="392" y="217"/>
      <point x="361" y="294"/>
      <point x="361" y="385" type="curve" smooth="yes"/>
      <point x="361" y="1087" type="line"/>
      <point x="432" y="1087" type="line" smooth="yes"/>
      <point x="469" y="1087"/>
      <point x="488" y="1101"/>
      <point x="488" y="1130" type="curve" smooth="yes"/>
      <point x="488" y="1158"/>
      <point x="469" y="1172"/>
      <point x="432" y="1172" type="curve" smooth="yes"/>
      <point x="206" y="1172" type="line" smooth="yes"/>
      <point x="169" y="1172"/>
      <point x="150" y="1158"/>
      <point x="150" y="1130" type="curve" smooth="yes"/>
      <point x="150" y="1101"/>
      <point x="169" y="1087"/>
      <point x="206" y="1087" type="curve" smooth="yes"/>
      <point x="277" y="1087" type="line"/>
      <point x="277" y="385" type="line" smooth="yes"/>
      <point x="277" y="153"/>
      <point x="454" y="-32"/>
    </contour>
    <contour>
      <point x="505" y="1240" type="curve" smooth="yes"/>
      <point x="548" y="1240"/>
      <point x="582" y="1274"/>
      <point x="582" y="1317" type="curve" smooth="yes"/>
      <point x="582" y="1358"/>
      <point x="548" y="1394"/>
      <point x="505" y="1394" type="curve" smooth="yes"/>
      <point x="462" y="1394"/>
      <point x="428" y="1360"/>
      <point x="428" y="1317" type="curve" smooth="yes"/>
      <point x="428" y="1274"/>
      <point x="462" y="1240"/>
    </contour>
    <contour>
      <point x="805" y="1240" type="curve" smooth="yes"/>
      <point x="848" y="1240"/>
      <point x="882" y="1274"/>
      <point x="882" y="1317" type="curve" smooth="yes"/>
      <point x="882" y="1358"/>
      <point x="848" y="1394"/>
      <point x="805" y="1394" type="curve" smooth="yes"/>
      <point x="762" y="1394"/>
      <point x="728" y="1360"/>
      <point x="728" y="1317" type="curve" smooth="yes"/>
      <point x="728" y="1274"/>
      <point x="762" y="1240"/>
    </contour>
  </outline>
</glyph>
<glyph name="atilde" format="2">
  <advance width="1146"/>
  <unicode hex="00E3"/>
  <note>
atilde
</note>
  <outline>
    <contour>
      <point x="441" y="-30" type="curve" smooth="yes"/>
      <point x="566" y="-30"/>
      <point x="684" y="16"/>
      <point x="794" y="109" type="curve"/>
      <point x="794" y="0" type="line"/>
      <point x="941" y="0" type="line" smooth="yes"/>
      <point x="978" y="0"/>
      <point x="997" y="14"/>
      <point x="997" y="42" type="curve" smooth="yes"/>
      <point x="997" y="71"/>
      <point x="978" y="85"/>
      <point x="941" y="85" type="curve" smooth="yes"/>
      <point x="870" y="85" type="line"/>
      <point x="871" y="578" type="line" smooth="yes"/>
      <point x="871" y="652"/>
      <point x="837" y="710"/>
      <point x="770" y="753" type="curve" smooth="yes"/>
      <point x="712" y="790"/>
      <point x="644" y="809"/>
      <point x="567" y="809" type="curve" smooth="yes"/>
      <point x="536" y="809"/>
      <point x="480" y="800"/>
      <point x="399" y="782" type="curve" smooth="yes"/>
      <point x="312" y="763"/>
      <point x="263" y="747"/>
      <point x="252" y="734" type="curve" smooth="yes"/>
      <point x="246" y="727"/>
      <point x="243" y="718"/>
      <point x="243" y="709" type="curve" smooth="yes"/>
      <point x="243" y="684"/>
      <point x="255" y="671"/>
      <point x="278" y="671" type="curve" smooth="yes"/>
      <point x="288" y="671"/>
      <point x="329" y="681"/>
      <point x="400" y="702" type="curve" smooth="yes"/>
      <point x="471" y="722"/>
      <point x="525" y="732"/>
      <point x="563" y="732" type="curve" smooth="yes"/>
      <point x="622" y="732"/>
      <point x="673" y="721"/>
      <point x="714" y="700" type="curve" smooth="yes"/>
      <point x="767" y="673"/>
      <point x="794" y="632"/>
      <point x="794" y="578" type="curve" smooth="yes"/>
      <point x="794" y="455" type="line"/>
      <point x="702" y="474"/>
      <point x="620" y="483"/>
      <point x="548" y="483" type="curve" smooth="yes"/>
      <point x="447" y="483"/>
      <point x="360" y="463"/>
      <point x="287" y="423" type="curve" smooth="yes"/>
      <point x="196" y="374"/>
      <point x="151" y="302"/>
      <point x="151" y="208" type="curve" smooth="yes"/>
      <point x="151" y="131"/>
      <point x="181" y="71"/>
      <point x="242" y="28" type="curve" smooth="yes"/>
      <point x="295" y="-11"/>
      <point x="362" y="-30"/>
    </contour>
    <contour>
      <point x="438" y="46" type="curve" smooth="yes"/>
      <point x="380" y="46"/>
      <point x="332" y="58"/>
      <point x="294" y="83" type="curve" smooth="yes"/>
      <point x="249" y="112"/>
      <point x="227" y="153"/>
      <point x="227" y="208" type="curve" smooth="yes"/>
      <point x="227" y="277"/>
      <point x="267" y="329"/>
      <point x="347" y="365" type="curve" smooth="yes"/>
      <point x="408" y="393"/>
      <point x="478" y="407"/>
      <point x="556" y="407" type="curve" smooth="yes"/>
      <point x="646" y="407"/>
      <point x="725" y="397"/>
      <point x="794" y="377" type="curve"/>
      <point x="794" y="210" type="line"/>
      <point x="680" y="101"/>
      <point x="561" y="46"/>
    </contour>
    <contour>
      <point x="677" y="1009" type="curve" smooth="yes"/>
      <point x="706" y="1009"/>
      <point x="744" y="1023"/>
      <point x="790" y="1050" type="curve" smooth="yes"/>
      <point x="839" y="1080"/>
      <point x="864" y="1109"/>
      <point x="864" y="1136" type="curve" smooth="yes"/>
      <point x="864" y="1162"/>
      <point x="850" y="1175"/>
      <point x="822" y="1175" type="curve" smooth="yes"/>
      <point x="813" y="1175"/>
      <point x="791" y="1162"/>
      <point x="757" y="1135" type="curve" smooth="yes"/>
      <point x="723" y="1108"/>
      <point x="696" y="1094"/>
      <point x="677" y="1094" type="curve" smooth="yes"/>
      <point x="656" y="1094"/>
      <point x="616" y="1114"/>
      <point x="557" y="1155" type="curve" smooth="yes"/>
      <point x="497" y="1195"/>
      <point x="449" y="1215"/>
      <point x="413" y="1215" type="curve" smooth="yes"/>
      <point x="384" y="1215"/>
      <point x="346" y="1201"/>
      <point x="300" y="1173" type="curve" smooth="yes"/>
      <point x="251" y="1143"/>
      <point x="226" y="1115"/>
      <point x="226" y="1090" type="curve" smooth="yes"/>
      <point x="226" y="1063"/>
      <point x="240" y="1050"/>
      <point x="267" y="1050" type="curve" smooth="yes"/>
      <point x="278" y="1050"/>
      <point x="299" y="1064"/>
      <point x="332" y="1091" type="curve" smooth="yes"/>
      <point x="364" y="1118"/>
      <point x="391" y="1131"/>
      <point x="414" y="1131" type="curve" smooth="yes"/>
      <point x="432" y="1131"/>
      <point x="471" y="1111"/>
      <point x="531" y="1070" type="curve" smooth="yes"/>
      <point x="591" y="1029"/>
      <point x="640" y="1009"/>
    </contour>
  </outline>
</glyph>
<glyph name="egrave" format="2">
  <advance width="1150"/>
  <unicode hex="00E8"/>
  <note>
egrave
</note>
  <outline>
    <contour>
      <point x="606" y="-29" type="curve" smooth="yes"/>
      <point x="683" y="-29"/>
      <point x="759" y="-16"/>
      <point x="833" y="10" type="curve" smooth="yes"/>
      <point x="945" y="50"/>
      <point x="1001" y="88"/>
      <point x="1001" y="125" type="curve" smooth="yes"/>
      <point x="1001" y="150"/>
      <point x="989" y="163"/>
      <point x="965" y="163" type="curve" smooth="yes"/>
      <point x="958" y="163"/>
      <point x="948" y="158"/>
      <point x="935" y="149" type="curve" smooth="yes"/>
      <point x="840" y="81"/>
      <point x="731" y="47"/>
      <point x="606" y="47" type="curve" smooth="yes"/>
      <point x="403" y="47"/>
      <point x="254" y="174"/>
      <point x="227" y="374" type="curve"/>
      <point x="999" y="374" type="line"/>
      <point x="999" y="380" type="line" smooth="yes"/>
      <point x="999" y="504"/>
      <point x="960" y="606"/>
      <point x="883" y="687" type="curve" smooth="yes"/>
      <point x="804" y="769"/>
      <point x="702" y="810"/>
      <point x="575" y="810" type="curve" smooth="yes"/>
      <point x="459" y="810"/>
      <point x="360" y="772"/>
      <point x="277" y="697" type="curve" smooth="yes"/>
      <point x="192" y="620"/>
      <point x="150" y="523"/>
      <point x="150" y="408" type="curve" smooth="yes"/>
      <point x="150" y="156"/>
      <point x="353" y="-29"/>
    </contour>
    <contour>
      <point x="228" y="450" type="line"/>
      <point x="259" y="622"/>
      <point x="399" y="733"/>
      <point x="575" y="733" type="curve" smooth="yes"/>
      <point x="750" y="733"/>
      <point x="892" y="621"/>
      <point x="923" y="450" type="curve"/>
    </contour>
    <contour>
      <point x="575" y="1010" type="curve" smooth="yes"/>
      <point x="604" y="1010"/>
      <point x="618" y="1024"/>
      <point x="618" y="1053" type="curve" smooth="yes"/>
      <point x="618" y="1058"/>
      <point x="617" y="1063"/>
      <point x="615" y="1069" type="curve"/>
      <point x="607" y="1081"/>
      <point x="561" y="1124"/>
      <point x="478" y="1198" type="curve" smooth="yes"/>
      <point x="389" y="1278"/>
      <point x="336" y="1318"/>
      <point x="319" y="1318" type="curve" smooth="yes"/>
      <point x="290" y="1318"/>
      <point x="276" y="1304"/>
      <point x="276" y="1275" type="curve" smooth="yes"/>
      <point x="276" y="1262"/>
      <point x="284" y="1248"/>
      <point x="301" y="1234" type="curve" smooth="yes"/>
      <point x="537" y="1030" type="line" smooth="yes"/>
      <point x="552" y="1017"/>
      <point x="565" y="1010"/>
    </contour>
  </outline>
</glyph>
<glyph name="ecircumflex" format="2">
  <advance width="1150"/>
  <unicode hex="00EA"/>
  <note>
ecircumflex
</note>
  <outline>
    <contour>
      <point x="606" y="-29" type="curve" smooth="yes"/>
      <point x="683" y="-29"/>
      <point x="759" y="-16"/>
      <point x="833" y="10" type="curve" smooth="yes"/>
      <point x="945" y="50"/>
      <point x="1001" y="88"/>
      <point x="1001" y="125" type="curve" smooth="yes"/>
      <point x="1001" y="150"/>
      <point x="989" y="163"/>
      <point x="965" y="163" type="curve" smooth="yes"/>
      <point x="958" y="163"/>
      <point x="948" y="158"/>
      <point x="935" y="149" type="curve" smooth="yes"/>
      <point x="840" y="81"/>
      <point x="731" y="47"/>
      <point x="606" y="47" type="curve" smooth="yes"/>
      <point x="403" y="47"/>
      <point x="254" y="174"/>
      <point x="227" y="374" type="curve"/>
      <point x="999" y="374" type="line"/>
      <point x="999" y="380" type="line" smooth="yes"/>
      <point x="999" y="504"/>
      <point x="960" y="606"/>
      <point x="883" y="687" type="curve" smooth="yes"/>
      <point x="804" y="769"/>
      <point x="702" y="810"/>
      <point x="575" y="810" type="curve" smooth="yes"/>
      <point x="459" y="810"/>
      <point x="360" y="772"/>
      <point x="277" y="697" type="curve" smooth="yes"/>
      <point x="192" y="620"/>
      <point x="150" y="523"/>
      <point x="150" y="408" type="curve" smooth="yes"/>
      <point x="150" y="156"/>
      <point x="353" y="-29"/>
    </contour>
    <contour>
      <point x="228" y="450" type="line"/>
      <point x="259" y="622"/>
      <point x="399" y="733"/>
      <point x="575" y="733" type="curve" smooth="yes"/>
      <point x="750" y="733"/>
      <point x="892" y="621"/>
      <point x="923" y="450" type="curve"/>
    </contour>
    <contour>
      <point x="303" y="1010" type="curve" smooth="yes"/>
      <point x="318" y="1010"/>
      <point x="362" y="1039"/>
      <point x="436" y="1096" type="curve" smooth="yes"/>
      <point x="559" y="1196" type="line"/>
      <point x="683" y="1096" type="line" smooth="yes"/>
      <point x="757" y="1039"/>
      <point x="801" y="1010"/>
      <point x="815" y="1010" type="curve" smooth="yes"/>
      <point x="844" y="1010"/>
      <point x="858" y="1024"/>
      <point x="858" y="1052" type="curve" smooth="yes"/>
      <point x="858" y="1065"/>
      <point x="849" y="1079"/>
      <point x="830" y="1094" type="curve" smooth="yes"/>
      <point x="559" y="1300" type="line"/>
      <point x="289" y="1094" type="line" smooth="yes"/>
      <point x="270" y="1079"/>
      <point x="261" y="1065"/>
      <point x="261" y="1052" type="curve" smooth="yes"/>
      <point x="261" y="1024"/>
      <point x="275" y="1010"/>
    </contour>
  </outline>
</glyph>
<glyph name="icircumflex" format="2">
  <advance width="638"/>
  <unicode hex="00EE"/>
  <note>
icircumflex
</note>
  <outline>
    <contour>
      <point x="62" y="962" type="curve" smooth="yes"/>
      <point x="77" y="962"/>
      <point x="121" y="991"/>
      <point x="195" y="1048" type="curve" smooth="yes"/>
      <point x="318" y="1148" type="line"/>
      <point x="442" y="1049" type="line" smooth="yes"/>
      <point x="516" y="991"/>
      <point x="560" y="962"/>
      <point x="574" y="962" type="curve" smooth="yes"/>
      <point x="603" y="962"/>
      <point x="617" y="976"/>
      <point x="617" y="1004" type="curve" smooth="yes"/>
      <point x="617" y="1018"/>
      <point x="608" y="1032"/>
      <point x="589" y="1046" type="curve" smooth="yes"/>
      <point x="318" y="1252" type="line"/>
      <point x="48" y="1046" type="line" smooth="yes"/>
      <point x="29" y="1032"/>
      <point x="20" y="1018"/>
      <point x="20" y="1004" type="curve" smooth="yes"/>
      <point x="20" y="976"/>
      <point x="34" y="962"/>
    </contour>
    <contour>
      <point x="209" y="-1" type="curve" smooth="yes"/>
      <point x="435" y="-1" type="line" smooth="yes"/>
      <point x="472" y="-1"/>
      <point x="491" y="13"/>
      <point x="491" y="41" type="curve" smooth="yes"/>
      <point x="491" y="70"/>
      <point x="472" y="84"/>
      <point x="435" y="84" type="curve" smooth="yes"/>
      <point x="209" y="84" type="line" smooth="yes"/>
      <point x="172" y="84"/>
      <point x="153" y="70"/>
      <point x="153" y="41" type="curve" smooth="yes"/>
      <point x="153" y="13"/>
      <point x="172" y="-1"/>
    </contour>
    <contour>
      <point x="278" y="84" type="line"/>
      <point x="362" y="84" type="line"/>
      <point x="362" y="762" type="line"/>
      <point x="207" y="762" type="line" smooth="yes"/>
      <point x="170" y="762"/>
      <point x="151" y="748"/>
      <point x="151" y="720" type="curve" smooth="yes"/>
      <point x="151" y="691"/>
      <point x="170" y="677"/>
      <point x="207" y="677" type="curve" smooth="yes"/>
      <point x="278" y="677" type="line"/>
    </contour>
  </outline>
</glyph>
<glyph name="odieresis" format="2">
  <advance width="1146"/>
  <unicode hex="00F6"/>
  <note>
odieresis
</note>
  <outline>
    <contour>
      <point x="574" y="-32" type="curve" smooth="yes"/>
      <point x="809" y="-32"/>
      <point x="997" y="154"/>
      <point x="997" y="387" type="curve" smooth="yes"/>
      <point x="997" y="622"/>
      <point x="809" y="807"/>
      <point x="574" y="807" type="curve" smooth="yes"/>
      <point x="339" y="807"/>
      <point x="150" y="622"/>
      <point x="150" y="387" type="curve" smooth="yes"/>
      <point x="150" y="152"/>
      <point x="339" y="-32"/>
    </contour>
    <contour>
      <point x="573" y="44" type="curve" smooth="yes"/>
      <point x="382" y="44"/>
      <point x="226" y="196"/>
      <point x="226" y="387" type="curve" smooth="yes"/>
      <point x="226" y="579"/>
      <point x="381" y="730"/>
      <point x="573" y="730" type="curve" smooth="yes"/>
      <point x="766" y="730"/>
      <point x="921" y="579"/>
      <point x="921" y="387" type="curve" smooth="yes"/>
      <point x="921" y="195"/>
      <point x="765" y="44"/>
    </contour>
    <contour>
      <point x="414" y="1007" type="curve" smooth="yes"/>
      <point x="457" y="1007"/>
      <point x="491" y="1042"/>
      <point x="491" y="1083" type="curve" smooth="yes"/>
      <point x="491" y="1126"/>
      <point x="457" y="1160"/>
      <point x="414" y="1160" type="curve" smooth="yes"/>
      <point x="371" y="1160"/>
      <point x="337" y="1126"/>
      <point x="337" y="1083" type="curve" smooth="yes"/>
      <point x="337" y="1040"/>
      <point x="371" y="1007"/>
    </contour>
    <contour>
      <point x="714" y="1007" type="curve" smooth="yes"/>
      <point x="757" y="1007"/>
      <point x="791" y="1042"/>
      <point x="791" y="1083" type="curve" smooth="yes"/>
      <point x="791" y="1126"/>
      <point x="757" y="1160"/>
      <point x="714" y="1160" type="curve" smooth="yes"/>
      <point x="671" y="1160"/>
      <point x="637" y="1126"/>
      <point x="637" y="1083" type="curve" smooth="yes"/>
      <point x="637" y="1040"/>
      <point x="671" y="1007"/>
    </contour>
  </outline>
</glyph>
<glyph name="oslash" format="2">
  <advance width="1171"/>
  <unicode hex="00F8"/>
  <note>
oslash
</note>
  <outline>
    <contour>
      <point x="168" y="-66" type="curve" smooth="yes"/>
      <point x="179" y="-66"/>
      <point x="229" y="-20"/>
      <point x="318" y="71" type="curve"/>
      <point x="399" y="11"/>
      <point x="489" y="-19"/>
      <point x="586" y="-19" type="curve" smooth="yes"/>
      <point x="823" y="-19"/>
      <point x="1022" y="164"/>
      <point x="1022" y="400" type="curve" smooth="yes"/>
      <point x="1022" y="507"/>
      <point x="985" y="600"/>
      <point x="912" y="679" type="curve"/>
      <point x="999" y="768"/>
      <point x="1042" y="817"/>
      <point x="1042" y="827" type="curve" smooth="yes"/>
      <point x="1042" y="853"/>
      <point x="1029" y="866"/>
      <point x="1004" y="866" type="curve" smooth="yes"/>
      <point x="993" y="866"/>
      <point x="943" y="821"/>
      <point x="855" y="730" type="curve"/>
      <point x="776" y="790"/>
      <point x="687" y="820"/>
      <point x="586" y="820" type="curve" smooth="yes"/>
      <point x="349" y="820"/>
      <point x="150" y="637"/>
      <point x="150" y="401" type="curve" smooth="yes"/>
      <point x="150" y="294"/>
      <point x="187" y="201"/>
      <point x="261" y="121" type="curve"/>
      <point x="174" y="32"/>
      <point x="130" y="-18"/>
      <point x="130" y="-27" type="curve" smooth="yes"/>
      <point x="130" y="-53"/>
      <point x="143" y="-66"/>
    </contour>
    <contour>
      <point x="314" y="176" type="line"/>
      <point x="256" y="243"/>
      <point x="227" y="317"/>
      <point x="227" y="400" type="curve" smooth="yes"/>
      <point x="227" y="497"/>
      <point x="263" y="579"/>
      <point x="334" y="646" type="curve" smooth="yes"/>
      <point x="404" y="711"/>
      <point x="488" y="743"/>
      <point x="586" y="743" type="curve" smooth="yes"/>
      <point x="665" y="743"/>
      <point x="737" y="720"/>
      <point x="801" y="675" type="curve"/>
    </contour>
    <contour>
      <point x="587" y="57" type="curve" smooth="yes"/>
      <point x="507" y="57"/>
      <point x="435" y="80"/>
      <point x="371" y="126" type="curve"/>
      <point x="858" y="625" type="line"/>
      <point x="916" y="560"/>
      <point x="945" y="485"/>
      <point x="945" y="400" type="curve" smooth="yes"/>
      <point x="945" y="205"/>
      <point x="782" y="57"/>
    </contour>
  </outline>
</glyph>
<glyph name="uacute" format="2">
  <advance width="1273"/>
  <unicode hex="00FA"/>
  <note>
uacute
</note>
  <outline>
    <contour>
      <point x="543" y="-33" type="curve" smooth="yes"/>
      <point x="676" y="-33"/>
      <point x="800" y="19"/>
      <point x="915" y="123" type="curve"/>
      <point x="915" y="0" type="line"/>
      <point x="1070" y="0" type="line" smooth="yes"/>
      <point x="1107" y="0"/>
      <point x="1126" y="14"/>
      <point x="1126" y="42" type="curve" smooth="yes"/>
      <point x="1126" y="67"/>
      <point x="1109" y="81"/>
      <point x="1075" y="85" type="curve" smooth="yes"/>
      <point x="1076" y="85" type="line"/>
      <point x="999" y="84" type="line"/>
      <point x="999" y="762" type="line"/>
      <point x="844" y="762" type="line" smooth="yes"/>
      <point x="807" y="762"/>
      <point x="788" y="748"/>
      <point x="788" y="720" type="curve" smooth="yes"/>
      <point x="788" y="695"/>
      <point x="805" y="680"/>
      <point x="838" y="676" type="curve"/>
      <point x="915" y="677" type="line"/>
      <point x="915" y="239" type="line"/>
      <point x="801" y="114"/>
      <point x="676" y="51"/>
      <point x="539" y="51" type="curve" smooth="yes"/>
      <point x="432" y="51"/>
      <point x="357" y="131"/>
      <point x="357" y="239" type="curve" smooth="yes"/>
      <point x="357" y="762" type="line"/>
      <point x="202" y="762" type="line" smooth="yes"/>
      <point x="165" y="762"/>
      <point x="146" y="748"/>
      <point x="146" y="720" type="curve" smooth="yes"/>
      <point x="146" y="695"/>
      <point x="163" y="680"/>
      <point x="196" y="676" type="curve"/>
      <point x="273" y="677" type="line"/>
      <point x="273" y="239" type="line" smooth="yes"/>
      <point x="273" y="78"/>
      <point x="382" y="-33"/>
    </contour>
    <contour>
      <point x="576" y="962" type="curve" smooth="yes"/>
      <point x="586" y="962"/>
      <point x="599" y="969"/>
      <point x="614" y="982" type="curve" smooth="yes"/>
      <point x="850" y="1186" type="line" smooth="yes"/>
      <point x="867" y="1201"/>
      <point x="875" y="1214"/>
      <point x="875" y="1227" type="curve" smooth="yes"/>
      <point x="875" y="1256"/>
      <point x="861" y="1270"/>
      <point x="832" y="1270" type="curve" smooth="yes"/>
      <point x="815" y="1270"/>
      <point x="762" y="1230"/>
      <point x="673" y="1150" type="curve" smooth="yes"/>
      <point x="590" y="1077"/>
      <point x="544" y="1034"/>
      <point x="536" y="1021" type="curve"/>
      <point x="534" y="1015"/>
      <point x="533" y="1010"/>
      <point x="533" y="1005" type="curve" smooth="yes"/>
      <point x="533" y="976"/>
      <point x="547" y="962"/>
    </contour>
  </outline>
</glyph>
<glyph name="ucircumflex" format="2">
  <advance width="1273"/>
  <unicode hex="00FB"/>
  <note>
ucircumflex
</note>
  <outline>
    <contour>
      <point x="543" y="-33" type="curve" smooth="yes"/>
      <point x="676" y="-33"/>
      <point x="800" y="19"/>
      <point x="915" y="123" type="curve"/>
      <point x="915" y="0" type="line"/>
      <point x="1070" y="0" type="line" smooth="yes"/>
      <point x="1107" y="0"/>
      <point x="1126" y="14"/>
      <point x="1126" y="42" type="curve" smooth="yes"/>
      <point x="1126" y="67"/>
      <point x="1109" y="81"/>
      <point x="1075" y="85" type="curve" smooth="yes"/>
      <point x="1076" y="85" type="line"/>
      <point x="999" y="84" type="line"/>
      <point x="999" y="762" type="line"/>
      <point x="844" y="762" type="line" smooth="yes"/>
      <point x="807" y="762"/>
      <point x="788" y="748"/>
      <point x="788" y="720" type="curve" smooth="yes"/>
      <point x="788" y="695"/>
      <point x="805" y="680"/>
      <point x="838" y="676" type="curve"/>
      <point x="915" y="677" type="line"/>
      <point x="915" y="239" type="line"/>
      <point x="801" y="114"/>
      <point x="676" y="51"/>
      <point x="539" y="51" type="curve" smooth="yes"/>
      <point x="432" y="51"/>
      <point x="357" y="131"/>
      <point x="357" y="239" type="curve" smooth="yes"/>
      <point x="357" y="762" type="line"/>
      <point x="202" y="762" type="line" smooth="yes"/>
      <point x="165" y="762"/>
      <point x="146" y="748"/>
      <point x="146" y="720" type="curve" smooth="yes"/>
      <point x="146" y="695"/>
      <point x="163" y="680"/>
      <point x="196" y="676" type="curve"/>
      <point x="273" y="677" type="line"/>
      <point x="273" y="239" type="line" smooth="yes"/>
      <point x="273" y="78"/>
      <point x="382" y="-33"/>
    </contour>
    <contour>
      <point x="352" y="962" type="curve" smooth="yes"/>
      <point x="367" y="962"/>
      <point x="411" y="991"/>
      <point x="485" y="1048" type="curve" smooth="yes"/>
      <point x="608" y="1148" type="line"/>
      <point x="732" y="1049" type="line" smooth="yes"/>
      <point x="806" y="991"/>
      <point x="850" y="962"/>
      <point x="864" y="962" type="curve" smooth="yes"/>
      <point x="893" y="962"/>
      <point x="907" y="976"/>
      <point x="907" y="1004" type="curve" smooth="yes"/>
      <point x="907" y="1018"/>
      <point x="898" y="1032"/>
      <point x="879" y="1046" type="curve" smooth="yes"/>
      <point x="608" y="1252" type="line"/>
      <point x="338" y="1046" type="line" smooth="yes"/>
      <point x="319" y="1032"/>
      <point x="310" y="1018"/>
      <point x="310" y="1004" type="curve" smooth="yes"/>
      <point x="310" y="976"/>
      <point x="324" y="962"/>
    </contour>
  </outline>
</glyph>
<glyph name="udieresis" format="2">
  <advance width="1273"/>
  <unicode hex="00FC"/>
  <note>
udieresis
</note>
  <outline>
    <contour>
      <point x="543" y="-33" type="curve" smooth="yes"/>
      <point x="676" y="-33"/>
      <point x="800" y="19"/>
      <point x="915" y="123" type="curve"/>
      <point x="915" y="0" type="line"/>
      <point x="1070" y="0" type="line" smooth="yes"/>
      <point x="1107" y="0"/>
      <point x="1126" y="14"/>
      <point x="1126" y="42" type="curve" smooth="yes"/>
      <point x="1126" y="67"/>
      <point x="1109" y="81"/>
      <point x="1075" y="85" type="curve" smooth="yes"/>
      <point x="1076" y="85" type="line"/>
      <point x="999" y="84" type="line"/>
      <point x="999" y="762" type="line"/>
      <point x="844" y="762" type="line" smooth="yes"/>
      <point x="807" y="762"/>
      <point x="788" y="748"/>
      <point x="788" y="720" type="curve" smooth="yes"/>
      <point x="788" y="695"/>
      <point x="805" y="680"/>
      <point x="838" y="676" type="curve"/>
      <point x="915" y="677" type="line"/>
      <point x="915" y="239" type="line"/>
      <point x="801" y="114"/>
      <point x="676" y="51"/>
      <point x="539" y="51" type="curve" smooth="yes"/>
      <point x="432" y="51"/>
      <point x="357" y="131"/>
      <point x="357" y="239" type="curve" smooth="yes"/>
      <point x="357" y="762" type="line"/>
      <point x="202" y="762" type="line" smooth="yes"/>
      <point x="165" y="762"/>
      <point x="146" y="748"/>
      <point x="146" y="720" type="curve" smooth="yes"/>
      <point x="146" y="695"/>
      <point x="163" y="680"/>
      <point x="196" y="676" type="curve"/>
      <point x="273" y="677" type="line"/>
      <point x="273" y="239" type="line" smooth="yes"/>
      <point x="273" y="78"/>
      <point x="382" y="-33"/>
    </contour>
    <contour>
      <point x="457" y="962" type="curve" smooth="yes"/>
      <point x="500" y="962"/>
      <point x="534" y="996"/>
      <point x="534" y="1039" type="curve" smooth="yes"/>
      <point x="534" y="1080"/>
      <point x="500" y="1116"/>
      <point x="457" y="1116" type="curve" smooth="yes"/>
      <point x="414" y="1116"/>
      <point x="380" y="1082"/>
      <point x="380" y="1039" type="curve" smooth="yes"/>
      <point x="380" y="996"/>
      <point x="414" y="962"/>
    </contour>
    <contour>
      <point x="757" y="962" type="curve" smooth="yes"/>
      <point x="800" y="962"/>
      <point x="834" y="996"/>
      <point x="834" y="1039" type="curve" smooth="yes"/>
      <point x="834" y="1080"/>
      <point x="800" y="1116"/>
      <point x="757" y="1116" type="curve" smooth="yes"/>
      <point x="714" y="1116"/>
      <point x="680" y="1082"/>
      <point x="680" y="1039" type="curve" smooth="yes"/>
      <point x="680" y="996"/>
      <point x="714" y="962"/>
    </contour>
  </outline>
</glyph>
<glyph name="Amacron" format="2">
  <advance width="1504"/>
  <unicode hex="0100"/>
  <note>
Amacron
</note>
  <outline>
    <contour>
      <point x="206" y="3" type="curve" smooth="yes"/>
      <point x="432" y="3" type="line" smooth="yes"/>
      <point x="469" y="3"/>
      <point x="488" y="17"/>
      <point x="488" y="45" type="curve" smooth="yes"/>
      <point x="488" y="74"/>
      <point x="469" y="88"/>
      <point x="432" y="88" type="curve" smooth="yes"/>
      <point x="371" y="88" type="line"/>
      <point x="478" y="395" type="line"/>
      <point x="1030" y="395" type="line"/>
      <point x="1145" y="88" type="line"/>
      <point x="1074" y="88" type="line" smooth="yes"/>
      <point x="1037" y="88"/>
      <point x="1018" y="74"/>
      <point x="1018" y="45" type="curve" smooth="yes"/>
      <point x="1018" y="17"/>
      <point x="1037" y="3"/>
      <point x="1074" y="3" type="curve" smooth="yes"/>
      <point x="1300" y="3" type="line" smooth="yes"/>
      <point x="1337" y="3"/>
      <point x="1356" y="17"/>
      <point x="1356" y="45" type="curve" smooth="yes"/>
      <point x="1356" y="74"/>
      <point x="1337" y="88"/>
      <point x="1300" y="88" type="curve" smooth="yes"/>
      <point x="1229" y="88" type="line"/>
      <point x="823" y="1174" type="line"/>
      <point x="683" y="1175" type="line"/>
      <point x="277" y="88" type="line"/>
      <point x="206" y="88" type="line" smooth="yes"/>
      <point x="169" y="88"/>
      <point x="150" y="74"/>
      <point x="150" y="45" type="curve" smooth="yes"/>
      <point x="150" y="17"/>
      <point x="169" y="3"/>
    </contour>
    <contour>
      <point x="510" y="479" type="line"/>
      <point x="735" y="1090" type="line"/>
      <point x="766" y="1090" type="line"/>
      <point x="998" y="479" type="line"/>
    </contour>
    <contour>
      <point x="495" y="1274" type="curve" smooth="yes"/>
      <point x="973" y="1274" type="line" smooth="yes"/>
      <point x="1008" y="1274"/>
      <point x="1026" y="1288"/>
      <point x="1026" y="1316" type="curve" smooth="yes"/>
      <point x="1026" y="1345"/>
      <point x="1008" y="1359"/>
      <point x="973" y="1359" type="curve" smooth="yes"/>
      <point x="495" y="1359" type="line" smooth="yes"/>
      <point x="460" y="1359"/>
      <point x="443" y="1345"/>
      <point x="443" y="1317" type="curve" smooth="yes"/>
      <point x="443" y="1288"/>
      <point x="460" y="1274"/>
    </contour>
  </outline>
</glyph>
<glyph name="amacron" format="2">
  <advance width="1146"/>
  <unicode hex="0101"/>
  <note>
amacron
</note>
  <outline>
    <contour>
      <point x="441" y="-30" type="curve" smooth="yes"/>
      <point x="566" y="-30"/>
      <point x="684" y="16"/>
      <point x="794" y="109" type="curve"/>
      <point x="794" y="0" type="line"/>
      <point x="941" y="0" type="line" smooth="yes"/>
      <point x="978" y="0"/>
      <point x="997" y="14"/>
      <point x="997" y="42" type="curve" smooth="yes"/>
      <point x="997" y="71"/>
      <point x="978" y="85"/>
      <point x="941" y="85" type="curve" smooth="yes"/>
      <point x="870" y="85" type="line"/>
      <point x="871" y="578" type="line" smooth="yes"/>
      <point x="871" y="652"/>
      <point x="837" y="710"/>
      <point x="770" y="753" type="curve" smooth="yes"/>
      <point x="712" y="790"/>
      <point x="644" y="809"/>
      <point x="567" y="809" type="curve" smooth="yes"/>
      <point x="536" y="809"/>
      <point x="480" y="800"/>
      <point x="399" y="782" type="curve" smooth="yes"/>
      <point x="312" y="763"/>
      <point x="263" y="747"/>
      <point x="252" y="734" type="curve" smooth="yes"/>
      <point x="246" y="727"/>
      <point x="243" y="718"/>
      <point x="243" y="709" type="curve" smooth="yes"/>
      <point x="243" y="684"/>
      <point x="255" y="671"/>
      <point x="278" y="671" type="curve" smooth="yes"/>
      <point x="288" y="671"/>
      <point x="329" y="681"/>
      <point x="400" y="702" type="curve" smooth="yes"/>
      <point x="471" y="722"/>
      <point x="525" y="732"/>
      <point x="563" y="732" type="curve" smooth="yes"/>
      <point x="622" y="732"/>
      <point x="673" y="721"/>
      <point x="714" y="700" type="curve" smooth="yes"/>
      <point x="767" y="673"/>
      <point x="794" y="632"/>
      <point x="794" y="578" type="curve" smooth="yes"/>
      <point x="794" y="455" type="line"/>
      <point x="702" y="474"/>
      <point x="620" y="483"/>
      <point x="548" y="483" type="curve" smooth="yes"/>
      <point x="447" y="483"/>
      <point x="360" y="463"/>
      <point x="287" y="423" type="curve" smooth="yes"/>
      <point x="196" y="374"/>
      <point x="151" y="302"/>
      <point x="151" y="208" type="curve" smooth="yes"/>
      <point x="151" y="131"/>
      <point x="181" y="71"/>
      <point x="242" y="28" type="curve" smooth="yes"/>
      <point x="295" y="-11"/>
      <point x="362" y="-30"/>
    </contour>
    <contour>
      <point x="438" y="46" type="curve" smooth="yes"/>
      <point x="380" y="46"/>
      <point x="332" y="58"/>
      <point x="294" y="83" type="curve" smooth="yes"/>
      <point x="249" y="112"/>
      <point x="227" y="153"/>
      <point x="227" y="208" type="curve" smooth="yes"/>
      <point x="227" y="277"/>
      <point x="267" y="329"/>
      <point x="347" y="365" type="curve" smooth="yes"/>
      <point x="408" y="393"/>
      <point x="478" y="407"/>
      <point x="556" y="407" type="curve" smooth="yes"/>
      <point x="646" y="407"/>
      <point x="725" y="397"/>
      <point x="794" y="377" type="curve"/>
      <point x="794" y="210" type="line"/>
      <point x="680" y="101"/>
      <point x="561" y="46"/>
    </contour>
    <contour>
      <point x="319" y="1009" type="curve" smooth="yes"/>
      <point x="797" y="1009" type="line" smooth="yes"/>
      <point x="832" y="1009"/>
      <point x="849" y="1023"/>
      <point x="849" y="1051" type="curve" smooth="yes"/>
      <point x="849" y="1080"/>
      <point x="832" y="1094"/>
      <point x="797" y="1094" type="curve" smooth="yes"/>
      <point x="319" y="1094" type="line" smooth="yes"/>
      <point x="284" y="1094"/>
      <point x="266" y="1080"/>
      <point x="266" y="1052" type="curve" smooth="yes"/>
      <point x="266" y="1023"/>
      <point x="284" y="1009"/>
    </contour>
  </outline>
</glyph>
<glyph name="emacron" format="2">
  <advance width="1150"/>
  <unicode hex="0113"/>
  <note>
emacron
</note>
  <outline>
    <contour>
      <point x="606" y="-29" type="curve" smooth="yes"/>
      <point x="683" y="-29"/>
      <point x="759" y="-16"/>
      <point x="833" y="10" type="curve" smooth="yes"/>
      <point x="945" y="50"/>
      <point x="1001" y="88"/>
      <point x="1001" y="125" type="curve" smooth="yes"/>
      <point x="1001" y="150"/>
      <point x="989" y="163"/>
      <point x="965" y="163" type="curve" smooth="yes"/>
      <point x="958" y="163"/>
      <point x="948" y="158"/>
      <point x="935" y="149" type="curve" smooth="yes"/>
      <point x="840" y="81"/>
      <point x="731" y="47"/>
      <point x="606" y="47" type="curve" smooth="yes"/>
      <point x="403" y="47"/>
      <point x="254" y="174"/>
      <point x="227" y="374" type="curve"/>
      <point x="999" y="374" type="line"/>
      <point x="999" y="380" type="line" smooth="yes"/>
      <point x="999" y="504"/>
      <point x="960" y="606"/>
      <point x="883" y="687" type="curve" smooth="yes"/>
      <point x="804" y="769"/>
      <point x="702" y="810"/>
      <point x="575" y="810" type="curve" smooth="yes"/>
      <point x="459" y="810"/>
      <point x="360" y="772"/>
      <point x="277" y="697" type="curve" smooth="yes"/>
      <point x="192" y="620"/>
      <point x="150" y="523"/>
      <point x="150" y="408" type="curve" smooth="yes"/>
      <point x="150" y="156"/>
      <point x="353" y="-29"/>
    </contour>
    <contour>
      <point x="228" y="450" type="line"/>
      <point x="259" y="622"/>
      <point x="399" y="733"/>
      <point x="575" y="733" type="curve" smooth="yes"/>
      <point x="750" y="733"/>
      <point x="892" y="621"/>
      <point x="923" y="450" type="curve"/>
    </contour>
    <contour>
      <point x="329" y="1009" type="curve" smooth="yes"/>
      <point x="807" y="1009" type="line" smooth="yes"/>
      <point x="842" y="1009"/>
      <point x="859" y="1023"/>
      <point x="859" y="1051" type="curve" smooth="yes"/>
      <point x="859" y="1080"/>
      <point x="842" y="1094"/>
      <point x="807" y="1094" type="curve" smooth="yes"/>
      <point x="329" y="1094" type="line" smooth="yes"/>
      <point x="294" y="1094"/>
      <point x="276" y="1080"/>
      <point x="276" y="1052" type="curve" smooth="yes"/>
      <point x="276" y="1023"/>
      <point x="294" y="1009"/>
    </contour>
  </outline>
</glyph>
<glyph name="Omacron" format="2">
  <advance width="1324"/>
  <unicode hex="014C"/>
  <note>
Omacron
</note>
  <outline>
    <contour>
      <point x="662" y="-31" type="curve" smooth="yes"/>
      <point x="817" y="-31"/>
      <point x="943" y="35"/>
      <point x="1041" y="166" type="curve" smooth="yes"/>
      <point x="1130" y="285"/>
      <point x="1174" y="424"/>
      <point x="1174" y="584" type="curve" smooth="yes"/>
      <point x="1174" y="743"/>
      <point x="1129" y="883"/>
      <point x="1040" y="1002" type="curve" smooth="yes"/>
      <point x="943" y="1133"/>
      <point x="817" y="1199"/>
      <point x="662" y="1199" type="curve" smooth="yes"/>
      <point x="507" y="1199"/>
      <point x="381" y="1133"/>
      <point x="283" y="1002" type="curve" smooth="yes"/>
      <point x="194" y="883"/>
      <point x="150" y="743"/>
      <point x="150" y="584" type="curve" smooth="yes"/>
      <point x="150" y="425"/>
      <point x="194" y="285"/>
      <point x="283" y="166" type="curve" smooth="yes"/>
      <point x="381" y="35"/>
      <point x="507" y="-31"/>
    </contour>
    <contour>
      <point x="662" y="53" type="curve" smooth="yes"/>
      <point x="533" y="53"/>
      <point x="427" y="111"/>
      <point x="345" y="227" type="curve" smooth="yes"/>
      <point x="271" y="331"/>
      <point x="234" y="450"/>
      <point x="234" y="584" type="curve" smooth="yes"/>
      <point x="234" y="719"/>
      <point x="271" y="838"/>
      <point x="345" y="941" type="curve" smooth="yes"/>
      <point x="427" y="1057"/>
      <point x="533" y="1115"/>
      <point x="662" y="1115" type="curve" smooth="yes"/>
      <point x="791" y="1115"/>
      <point x="897" y="1057"/>
      <point x="979" y="942" type="curve" smooth="yes"/>
      <point x="1052" y="838"/>
      <point x="1089" y="719"/>
      <point x="1089" y="584" type="curve" smooth="yes"/>
      <point x="1089" y="449"/>
      <point x="1052" y="329"/>
      <point x="979" y="226" type="curve" smooth="yes"/>
      <point x="897" y="111"/>
      <point x="791" y="53"/>
    </contour>
    <contour>
      <point x="435" y="1274" type="curve" smooth="yes"/>
      <point x="913" y="1274" type="line" smooth="yes"/>
      <point x="948" y="1274"/>
      <point x="966" y="1288"/>
      <point x="966" y="1316" type="curve" smooth="yes"/>
      <point x="966" y="1345"/>
      <point x="948" y="1359"/>
      <point x="913" y="1359" type="curve" smooth="yes"/>
      <point x="435" y="1359" type="line" smooth="yes"/>
      <point x="400" y="1359"/>
      <point x="383" y="1345"/>
      <point x="383" y="1317" type="curve" smooth="yes"/>
      <point x="383" y="1288"/>
      <point x="400" y="1274"/>
    </contour>
  </outline>
</glyph>
<glyph name="omacron" format="2">
  <advance width="1146"/>
  <unicode hex="014D"/>
  <note>
omacron
</note>
  <outline>
    <contour>
      <point x="574" y="-32" type="curve" smooth="yes"/>
      <point x="809" y="-32"/>
      <point x="997" y="154"/>
      <point x="997" y="387" type="curve" smooth="yes"/>
      <point x="997" y="622"/>
      <point x="809" y="807"/>
      <point x="574" y="807" type="curve" smooth="yes"/>
      <point x="339" y="807"/>
      <point x="150" y="622"/>
      <point x="150" y="387" type="curve" smooth="yes"/>
      <point x="150" y="152"/>
      <point x="339" y="-32"/>
    </contour>
    <contour>
      <point x="573" y="44" type="curve" smooth="yes"/>
      <point x="382" y="44"/>
      <point x="226" y="196"/>
      <point x="226" y="387" type="curve" smooth="yes"/>
      <point x="226" y="579"/>
      <point x="381" y="730"/>
      <point x="573" y="730" type="curve" smooth="yes"/>
      <point x="766" y="730"/>
      <point x="921" y="579"/>
      <point x="921" y="387" type="curve" smooth="yes"/>
      <point x="921" y="195"/>
      <point x="765" y="44"/>
    </contour>
    <contour>
      <point x="319" y="1009" type="curve" smooth="yes"/>
      <point x="797" y="1009" type="line" smooth="yes"/>
      <point x="832" y="1009"/>
      <point x="849" y="1023"/>
      <point x="849" y="1051" type="curve" smooth="yes"/>
      <point x="849" y="1080"/>
      <point x="832" y="1094"/>
      <point x="797" y="1094" type="curve" smooth="yes"/>
      <point x="319" y="1094" type="line" smooth="yes"/>
      <point x="284" y="1094"/>
      <point x="266" y="1080"/>
      <point x="266" y="1052" type="curve" smooth="yes"/>
      <point x="266" y="1023"/>
      <point x="284" y="1009"/>
    </contour>
  </outline>
</glyph>
<glyph name="U0047U0331" format="2">
  <advance width="1327"/>
  <unicode hex="015D"/>
  <note>
U0047U0331
</note>
  <outline>
    <contour>
      <point x="711" y="-34" type="curve" smooth="yes"/>
      <point x="836" y="-34"/>
      <point x="964" y="2"/>
      <point x="1093" y="73" type="curve"/>
      <point x="1093" y="433" type="line"/>
      <point x="1150" y="433"/>
      <point x="1179" y="447"/>
      <point x="1179" y="475" type="curve" smooth="yes"/>
      <point x="1179" y="503"/>
      <point x="1160" y="517"/>
      <point x="1123" y="517" type="curve" smooth="yes"/>
      <point x="719" y="518" type="line" smooth="yes"/>
      <point x="682" y="518"/>
      <point x="663" y="504"/>
      <point x="663" y="475" type="curve" smooth="yes"/>
      <point x="663" y="447"/>
      <point x="682" y="433"/>
      <point x="719" y="433" type="curve" smooth="yes"/>
      <point x="1008" y="433" type="line"/>
      <point x="1008" y="122" type="line"/>
      <point x="903" y="74"/>
      <point x="806" y="50"/>
      <point x="715" y="50" type="curve" smooth="yes"/>
      <point x="569" y="50"/>
      <point x="453" y="89"/>
      <point x="368" y="167" type="curve" smooth="yes"/>
      <point x="279" y="248"/>
      <point x="234" y="361"/>
      <point x="234" y="505" type="curve" smooth="yes"/>
      <point x="234" y="658" type="line" smooth="yes"/>
      <point x="234" y="736"/>
      <point x="252" y="806"/>
      <point x="288" y="869" type="curve" smooth="yes"/>
      <point x="381" y="1031"/>
      <point x="509" y="1112"/>
      <point x="672" y="1112" type="curve" smooth="yes"/>
      <point x="755" y="1112"/>
      <point x="831" y="1094"/>
      <point x="900" y="1058" type="curve" smooth="yes"/>
      <point x="943" y="1035"/>
      <point x="973" y="1007"/>
      <point x="991" y="974" type="curve" smooth="yes"/>
      <point x="996" y="965"/>
      <point x="1004" y="940"/>
      <point x="1016" y="899" type="curve" smooth="yes"/>
      <point x="1022" y="878"/>
      <point x="1034" y="867"/>
      <point x="1051" y="867" type="curve" smooth="yes"/>
      <point x="1079" y="867"/>
      <point x="1093" y="886"/>
      <point x="1093" y="923" type="curve" smooth="yes"/>
      <point x="1093" y="1113" type="line" smooth="yes"/>
      <point x="1093" y="1150"/>
      <point x="1079" y="1169"/>
      <point x="1051" y="1169" type="curve" smooth="yes"/>
      <point x="1030" y="1169"/>
      <point x="1016" y="1159"/>
      <point x="1011" y="1140" type="curve" smooth="yes"/>
      <point x="1009" y="1133"/>
      <point x="1008" y="1114"/>
      <point x="1008" y="1085" type="curve"/>
      <point x="915" y="1159"/>
      <point x="800" y="1196"/>
      <point x="665" y="1196" type="curve" smooth="yes"/>
      <point x="370" y="1196"/>
      <point x="150" y="955"/>
      <point x="150" y="659" type="curve" smooth="yes"/>
      <point x="150" y="505" type="line" smooth="yes"/>
      <point x="150" y="340"/>
      <point x="202" y="208"/>
      <point x="307" y="110" type="curve" smooth="yes"/>
      <point x="409" y="14"/>
      <point x="544" y="-34"/>
    </contour>
    <contour>
      <point x="454" y="-285" type="curve" smooth="yes"/>
      <point x="945" y="-285" type="line" smooth="yes"/>
      <point x="981" y="-285"/>
      <point x="999" y="-271"/>
      <point x="999" y="-243" type="curve" smooth="yes"/>
      <point x="999" y="-214"/>
      <point x="980" y="-200"/>
      <point x="943" y="-200" type="curve" smooth="yes"/>
      <point x="457" y="-200" type="line" smooth="yes"/>
      <point x="420" y="-200"/>
      <point x="401" y="-214"/>
      <point x="401" y="-243" type="curve" smooth="yes"/>
      <point x="401" y="-271"/>
      <point x="419" y="-285"/>
    </contour>
  </outline>
</glyph>
<glyph name="U0050U0331" format="2">
  <advance width="1192"/>
  <unicode hex="0163"/>
  <note>
U0050U0331
</note>
  <outline>
    <contour>
      <point x="206" y="-2" type="curve" smooth="yes"/>
      <point x="432" y="-2" type="line" smooth="yes"/>
      <point x="469" y="-2"/>
      <point x="488" y="12"/>
      <point x="488" y="40" type="curve" smooth="yes"/>
      <point x="488" y="69"/>
      <point x="469" y="83"/>
      <point x="432" y="83" type="curve" smooth="yes"/>
      <point x="361" y="83" type="line"/>
      <point x="361" y="479" type="line"/>
      <point x="495" y="476" type="line"/>
      <point x="575" y="475" type="line"/>
      <point x="638" y="476" type="line" smooth="yes"/>
      <point x="690" y="479"/>
      <point x="733" y="487"/>
      <point x="768" y="498" type="curve" smooth="yes"/>
      <point x="849" y="525"/>
      <point x="914" y="565"/>
      <point x="963" y="618" type="curve" smooth="yes"/>
      <point x="1017" y="677"/>
      <point x="1044" y="747"/>
      <point x="1044" y="828" type="curve" smooth="yes"/>
      <point x="1044" y="930"/>
      <point x="1003" y="1013"/>
      <point x="922" y="1078" type="curve" smooth="yes"/>
      <point x="846" y="1139"/>
      <point x="756" y="1169"/>
      <point x="652" y="1169" type="curve" smooth="yes"/>
      <point x="206" y="1170" type="line" smooth="yes"/>
      <point x="169" y="1170"/>
      <point x="150" y="1156"/>
      <point x="150" y="1128" type="curve" smooth="yes"/>
      <point x="150" y="1099"/>
      <point x="169" y="1085"/>
      <point x="206" y="1085" type="curve" smooth="yes"/>
      <point x="277" y="1085" type="line"/>
      <point x="277" y="83" type="line"/>
      <point x="206" y="83" type="line" smooth="yes"/>
      <point x="169" y="83"/>
      <point x="150" y="69"/>
      <point x="150" y="40" type="curve" smooth="yes"/>
      <point x="150" y="12"/>
      <point x="169" y="-2"/>
    </contour>
    <contour>
      <point x="369" y="-285" type="curve" smooth="yes"/>
      <point x="861" y="-285" type="line" smooth="yes"/>
      <point x="897" y="-285"/>
      <point x="915" y="-271"/>
      <point x="915" y="-243" type="curve" smooth="yes"/>
      <point x="915" y="-214"/>
      <point x="896" y="-200"/>
      <point x="859" y="-200" type="curve" smooth="yes"/>
      <point x="373" y="-200" type="line" smooth="yes"/>
      <point x="336" y="-200"/>
      <point x="317" y="-214"/>
      <point x="317" y="-243" type="curve" smooth="yes"/>
      <point x="317" y="-271"/>
      <point x="334" y="-285"/>
    </contour>
    <contour>
      <point x="361" y="563" type="line"/>
      <point x="361" y="1085" type="line"/>
      <point x="660" y="1085" type="line" smooth="yes"/>
      <point x="737" y="1085"/>
      <point x="805" y="1062"/>
      <point x="864" y="1016" type="curve" smooth="yes"/>
      <point x="928" y="966"/>
      <point x="960" y="903"/>
      <point x="960" y="828" type="curve" smooth="yes"/>
      <point x="960" y="749"/>
      <point x="923" y="684"/>
      <point x="850" y="632" type="curve" smooth="yes"/>
      <point x="785" y="586"/>
      <point x="711" y="563"/>
      <point x="629" y="563" type="curve" smooth="yes"/>
    </contour>
  </outline>
</glyph>
<glyph name="umacron" format="2">
  <advance width="1273"/>
  <unicode hex="016B"/>
  <note>
umacron
</note>
  <outline>
    <contour>
      <point x="543" y="-33" type="curve" smooth="yes"/>
      <point x="676" y="-33"/>
      <point x="800" y="19"/>
      <point x="915" y="123" type="curve"/>
      <point x="915" y="0" type="line"/>
      <point x="1070" y="0" type="line" smooth="yes"/>
      <point x="1107" y="0"/>
      <point x="1126" y="14"/>
      <point x="1126" y="42" type="curve" smooth="yes"/>
      <point x="1126" y="67"/>
      <point x="1109" y="81"/>
      <point x="1075" y="85" type="curve" smooth="yes"/>
      <point x="1076" y="85" type="line"/>
      <point x="999" y="84" type="line"/>
      <point x="999" y="762" type="line"/>
      <point x="844" y="762" type="line" smooth="yes"/>
      <point x="807" y="762"/>
      <point x="788" y="748"/>
      <point x="788" y="720" type="curve" smooth="yes"/>
      <point x="788" y="695"/>
      <point x="805" y="680"/>
      <point x="838" y="676" type="curve"/>
      <point x="915" y="677" type="line"/>
      <point x="915" y="239" type="line"/>
      <point x="801" y="114"/>
      <point x="676" y="51"/>
      <point x="539" y="51" type="curve" smooth="yes"/>
      <point x="432" y="51"/>
      <point x="357" y="131"/>
      <point x="357" y="239" type="curve" smooth="yes"/>
      <point x="357" y="762" type="line"/>
      <point x="202" y="762" type="line" smooth="yes"/>
      <point x="165" y="762"/>
      <point x="146" y="748"/>
      <point x="146" y="720" type="curve" smooth="yes"/>
      <point x="146" y="695"/>
      <point x="163" y="680"/>
      <point x="196" y="676" type="curve"/>
      <point x="273" y="677" type="line"/>
      <point x="273" y="239" type="line" smooth="yes"/>
      <point x="273" y="78"/>
      <point x="382" y="-33"/>
    </contour>
    <contour>
      <point x="369" y="1009" type="curve" smooth="yes"/>
      <point x="847" y="1009" type="line" smooth="yes"/>
      <point x="882" y="1009"/>
      <point x="899" y="1023"/>
      <point x="899" y="1051" type="curve" smooth="yes"/>
      <point x="899" y="1080"/>
      <point x="882" y="1094"/>
      <point x="847" y="1094" type="curve" smooth="yes"/>
      <point x="369" y="1094" type="line" smooth="yes"/>
      <point x="334" y="1094"/>
      <point x="316" y="1080"/>
      <point x="316" y="1052" type="curve" smooth="yes"/>
      <point x="316" y="1023"/>
      <point x="334" y="1009"/>
    </contour>
  </outline>
</glyph>
<glyph name="U0640Half" format="2">
  <advance width="180"/>
  <unicode hex="016F"/>
  <note>
U0640Half
</note>
  <anchor x="105" y="-150" name="class0"/>
  <outline>
    <contour>
      <point x="-25" y="0" type="line"/>
      <point x="198" y="0" type="line"/>
      <point x="198" y="155" type="line"/>
      <point x="-25" y="155" type="line"/>
    </contour>
  </outline>
</glyph>
<glyph name="U0710Fina2" format="2">
  <advance width="663"/>
  <unicode hex="01E8"/>
  <note>
U0710Fina2
</note>
  <anchor x="270" y="990" name="class0"/>
  <anchor x="330" y="-315" name="class0_"/>
  <anchor x="255" y="975" name="class1"/>
  <anchor x="375" y="-195" name="class2"/>
  <anchor x="375" y="-195" name="class3"/>
  <outline>
    <contour>
      <point x="266" y="-155" type="curve"/>
      <point x="279" y="-124"/>
      <point x="285" y="-93"/>
      <point x="285" y="-63" type="curve" smooth="yes"/>
      <point x="285" y="-42"/>
      <point x="282" y="-22"/>
      <point x="276" y="-1" type="curve"/>
      <point x="606" y="-1" type="line"/>
      <point x="606" y="155" type="line"/>
      <point x="342" y="155" type="line"/>
      <point x="407" y="288"/>
      <point x="439" y="416"/>
      <point x="439" y="539" type="curve" smooth="yes"/>
      <point x="439" y="625"/>
      <point x="423" y="709"/>
      <point x="392" y="790" type="curve"/>
      <point x="367" y="840"/>
      <point x="329" y="866"/>
      <point x="278" y="869" type="curve" smooth="yes"/>
      <point x="271" y="869" type="line" smooth="yes"/>
      <point x="224" y="869"/>
      <point x="189" y="845"/>
      <point x="166" y="796" type="curve"/>
      <point x="164" y="783"/>
      <point x="163" y="770"/>
      <point x="163" y="758" type="curve" smooth="yes"/>
      <point x="163" y="721"/>
      <point x="173" y="695"/>
      <point x="192" y="678" type="curve"/>
      <point x="208" y="672"/>
      <point x="223" y="669"/>
      <point x="238" y="669" type="curve" smooth="yes"/>
      <point x="252" y="669"/>
      <point x="265" y="672"/>
      <point x="278" y="677" type="curve"/>
      <point x="292" y="678" type="line" smooth="yes"/>
      <point x="315" y="678"/>
      <point x="335" y="668"/>
      <point x="353" y="648" type="curve"/>
      <point x="367" y="619"/>
      <point x="374" y="588"/>
      <point x="374" y="553" type="curve" smooth="yes"/>
      <point x="374" y="443"/>
      <point x="301" y="304"/>
      <point x="156" y="137" type="curve"/>
      <point x="156" y="-2" type="line"/>
      <point x="207" y="-35"/>
      <point x="243" y="-86"/>
    </contour>
  </outline>
</glyph>
<glyph name="U0712Medi" format="2">
  <advance width="1117"/>
  <unicode hex="01EB"/>
  <note>
U0712Medi
</note>
  <anchor x="660" y="705" name="class0"/>
  <anchor x="495" y="-135" name="class0_"/>
  <anchor x="645" y="705" name="class1"/>
  <anchor x="660" y="-105" name="class2"/>
  <anchor x="675" y="-150" name="class3"/>
  <outline>
    <contour>
      <point x="-12" y="0" type="line"/>
      <point x="1127" y="0" type="line"/>
      <point x="1127" y="155" type="line"/>
      <point x="1073" y="173"/>
      <point x="1027" y="343"/>
      <point x="989" y="666" type="curve"/>
      <point x="944" y="629" type="line"/>
      <point x="916" y="585"/>
      <point x="835" y="563"/>
      <point x="701" y="563" type="curve" smooth="yes"/>
      <point x="629" y="563"/>
      <point x="542" y="569"/>
      <point x="439" y="582" type="curve"/>
      <point x="381" y="605"/>
      <point x="333" y="643"/>
      <point x="296" y="698" type="curve"/>
      <point x="244" y="562" type="line"/>
      <point x="244" y="558" type="line" smooth="yes"/>
      <point x="244" y="453"/>
      <point x="325" y="401"/>
      <point x="486" y="401" type="curve" smooth="yes"/>
      <point x="869" y="401" type="line"/>
      <point x="919" y="155" type="line"/>
      <point x="-12" y="155" type="line"/>
    </contour>
  </outline>
</glyph>
<glyph name="U0713Init" format="2">
  <advance width="1142"/>
  <unicode hex="01ED"/>
  <note>
U0713Init
</note>
  <anchor x="600" y="750" name="class0"/>
  <anchor x="495" y="-150" name="class0_"/>
  <anchor x="555" y="810" name="class1"/>
  <anchor x="435" y="-135" name="class2"/>
  <anchor x="450" y="-135" name="class3"/>
  <outline>
    <contour>
      <point x="1049" y="-465" type="line"/>
      <point x="1201" y="-465" type="line"/>
      <point x="1188" y="-310" type="line"/>
      <point x="1052" y="-310" type="line"/>
      <point x="916" y="-104"/>
      <point x="699" y="249"/>
      <point x="550" y="481" type="curve" smooth="yes"/>
      <point x="434" y="661"/>
      <point x="380" y="760"/>
      <point x="347" y="853" type="curve" smooth="yes"/>
      <point x="338" y="876"/>
      <point x="334" y="897"/>
      <point x="334" y="916" type="curve" smooth="yes"/>
      <point x="334" y="935"/>
      <point x="338" y="953"/>
      <point x="347" y="968" type="curve" smooth="yes"/>
      <point x="358" y="985"/>
      <point x="363" y="998"/>
      <point x="363" y="1007" type="curve" smooth="yes"/>
      <point x="363" y="1013"/>
      <point x="361" y="1017"/>
      <point x="356" y="1018" type="curve"/>
      <point x="355" y="1019"/>
      <point x="353" y="1019"/>
      <point x="351" y="1019" type="curve" smooth="yes"/>
      <point x="338" y="1019"/>
      <point x="318" y="1008"/>
      <point x="289" y="985" type="curve"/>
      <point x="215" y="956"/>
      <point x="174" y="913"/>
      <point x="166" y="856" type="curve" smooth="yes"/>
      <point x="165" y="841" type="line" smooth="yes"/>
      <point x="165" y="783"/>
      <point x="210" y="694"/>
      <point x="299" y="573" type="curve" smooth="yes"/>
      <point x="395" y="442"/>
      <point x="466" y="348"/>
      <point x="512" y="292" type="curve" smooth="yes"/>
      <point x="557" y="236"/>
      <point x="593" y="190"/>
      <point x="619" y="154" type="curve"/>
      <point x="-16" y="154" type="line"/>
      <point x="-16" y="0" type="line"/>
      <point x="727" y="0" type="line"/>
      <point x="794" y="-67"/>
      <point x="894" y="-170"/>
      <point x="1025" y="-310" type="curve"/>
    </contour>
  </outline>
</glyph>
<glyph name="U0713Medi" format="2">
  <advance width="1142"/>
  <unicode hex="01EE"/>
  <note>
U0713Medi
</note>
  <anchor x="600" y="765" name="class0"/>
  <anchor x="330" y="-165" name="class0_"/>
  <anchor x="585" y="795" name="class1"/>
  <anchor x="420" y="-150" name="class2"/>
  <anchor x="450" y="-135" name="class3"/>
  <outline>
    <contour>
      <point x="1043" y="-465" type="line"/>
      <point x="1195" y="-465" type="line"/>
      <point x="1182" y="-310" type="line"/>
      <point x="1046" y="-310" type="line"/>
      <point x="1001" y="-237"/>
      <point x="927" y="-119"/>
      <point x="823" y="42" type="curve"/>
      <point x="908" y="13"/>
      <point x="980" y="-1"/>
      <point x="1038" y="-1" type="curve" smooth="yes"/>
      <point x="1152" y="-1" type="line"/>
      <point x="1152" y="154" type="line"/>
      <point x="995" y="154" type="line"/>
      <point x="960" y="153" type="line" smooth="yes"/>
      <point x="862" y="153"/>
      <point x="787" y="174"/>
      <point x="735" y="215" type="curve"/>
      <point x="604" y="390"/>
      <point x="478" y="588"/>
      <point x="418" y="700" type="curve" smooth="yes"/>
      <point x="387" y="755"/>
      <point x="364" y="806"/>
      <point x="347" y="853" type="curve" smooth="yes"/>
      <point x="338" y="876"/>
      <point x="334" y="897"/>
      <point x="334" y="916" type="curve" smooth="yes"/>
      <point x="334" y="935"/>
      <point x="338" y="953"/>
      <point x="347" y="968" type="curve" smooth="yes"/>
      <point x="358" y="985"/>
      <point x="363" y="998"/>
      <point x="363" y="1007" type="curve" smooth="yes"/>
      <point x="363" y="1013"/>
      <point x="361" y="1017"/>
      <point x="356" y="1018" type="curve"/>
      <point x="355" y="1019"/>
      <point x="353" y="1019"/>
      <point x="351" y="1019" type="curve" smooth="yes"/>
      <point x="338" y="1019"/>
      <point x="318" y="1008"/>
      <point x="289" y="985" type="curve"/>
      <point x="215" y="956"/>
      <point x="174" y="913"/>
      <point x="166" y="856" type="curve" smooth="yes"/>
      <point x="165" y="841" type="line" smooth="yes"/>
      <point x="165" y="783"/>
      <point x="210" y="694"/>
      <point x="299" y="573" type="curve" smooth="yes"/>
      <point x="395" y="442"/>
      <point x="466" y="348"/>
      <point x="512" y="292" type="curve" smooth="yes"/>
      <point x="557" y="236"/>
      <point x="593" y="190"/>
      <point x="619" y="154" type="curve"/>
      <point x="-16" y="154" type="line"/>
      <point x="-16" y="0" type="line"/>
      <point x="727" y="0" type="line"/>
      <point x="794" y="-67"/>
      <point x="892" y="-170"/>
      <point x="1019" y="-310" type="curve"/>
    </contour>
  </outline>
</glyph>
<glyph name="U0713Fina" format="2">
  <advance width="1301"/>
  <unicode hex="01EF"/>
  <note>
U0713Fina
</note>
  <anchor x="825" y="765" name="class0"/>
  <anchor x="405" y="-150" name="class0_"/>
  <anchor x="855" y="765" name="class1"/>
  <anchor x="690" y="-135" name="class2"/>
  <anchor x="705" y="-180" name="class3"/>
  <outline>
    <contour>
      <point x="1278" y="-465" type="line"/>
      <point x="1430" y="-465" type="line"/>
      <point x="1417" y="-310" type="line"/>
      <point x="1281" y="-310" type="line"/>
      <point x="1206" y="-236"/>
      <point x="1117" y="-118"/>
      <point x="1013" y="43" type="curve"/>
      <point x="1098" y="14"/>
      <point x="1170" y="0"/>
      <point x="1228" y="0" type="curve" smooth="yes"/>
      <point x="1320" y="0" type="line"/>
      <point x="1320" y="155" type="line"/>
      <point x="1185" y="155" type="line"/>
      <point x="1150" y="154" type="line" smooth="yes"/>
      <point x="1052" y="154"/>
      <point x="977" y="175"/>
      <point x="925" y="216" type="curve"/>
      <point x="794" y="391"/>
      <point x="668" y="589"/>
      <point x="608" y="701" type="curve" smooth="yes"/>
      <point x="577" y="756"/>
      <point x="554" y="807"/>
      <point x="537" y="854" type="curve" smooth="yes"/>
      <point x="528" y="877"/>
      <point x="524" y="898"/>
      <point x="524" y="917" type="curve" smooth="yes"/>
      <point x="524" y="936"/>
      <point x="528" y="954"/>
      <point x="537" y="969" type="curve" smooth="yes"/>
      <point x="548" y="986"/>
      <point x="553" y="999"/>
      <point x="553" y="1008" type="curve" smooth="yes"/>
      <point x="553" y="1014"/>
      <point x="551" y="1018"/>
      <point x="546" y="1019" type="curve"/>
      <point x="545" y="1020"/>
      <point x="543" y="1020"/>
      <point x="541" y="1020" type="curve" smooth="yes"/>
      <point x="528" y="1020"/>
      <point x="508" y="1009"/>
      <point x="479" y="986" type="curve"/>
      <point x="405" y="957"/>
      <point x="364" y="914"/>
      <point x="356" y="857" type="curve" smooth="yes"/>
      <point x="355" y="842" type="line" smooth="yes"/>
      <point x="355" y="784"/>
      <point x="400" y="695"/>
      <point x="489" y="574" type="curve" smooth="yes"/>
      <point x="585" y="443"/>
      <point x="656" y="349"/>
      <point x="702" y="293" type="curve" smooth="yes"/>
      <point x="747" y="237"/>
      <point x="783" y="191"/>
      <point x="809" y="155" type="curve"/>
      <point x="227" y="155" type="line" smooth="yes"/>
      <point x="190" y="155"/>
      <point x="167" y="181"/>
      <point x="158" y="233" type="curve" smooth="yes"/>
      <point x="151" y="268"/>
      <point x="142" y="285"/>
      <point x="129" y="285" type="curve" smooth="yes"/>
      <point x="124" y="285"/>
      <point x="117" y="281"/>
      <point x="110" y="274" type="curve"/>
      <point x="103" y="199" type="line"/>
      <point x="109" y="134"/>
      <point x="118" y="90"/>
      <point x="129" y="67" type="curve" smooth="yes"/>
      <point x="140" y="43"/>
      <point x="160" y="26"/>
      <point x="187" y="16" type="curve" smooth="yes"/>
      <point x="208" y="8"/>
      <point x="239" y="3"/>
      <point x="279" y="1" type="curve"/>
      <point x="917" y="1" type="line"/>
      <point x="984" y="-66"/>
      <point x="1097" y="-169"/>
      <point x="1254" y="-310" type="curve"/>
    </contour>
  </outline>
</glyph>
<glyph name="U0714Fina" format="2">
  <advance width="236"/>
  <unicode hex="01F2"/>
  <note>
U0714Fina
</note>
  <anchor x="960" y="885" name="class0"/>
  <anchor x="615" y="-165" name="class0_"/>
  <anchor x="930" y="885" name="class1"/>
  <anchor x="540" y="-150" name="class2"/>
  <anchor x="585" y="-135" name="class3"/>
  <outline>
    <contour>
      <point x="201" y="0" type="curve"/>
      <point x="241" y="0" type="line"/>
      <point x="241" y="155" type="line"/>
      <point x="234" y="155" type="line"/>
      <point x="174" y="173" type="line"/>
      <point x="151" y="210"/>
      <point x="129" y="252"/>
      <point x="109" y="297" type="curve"/>
      <point x="95" y="246"/>
      <point x="88" y="212"/>
      <point x="88" y="195" type="curve" smooth="yes"/>
      <point x="88" y="190" type="line" smooth="yes"/>
      <point x="93" y="135"/>
      <point x="109" y="91"/>
      <point x="135" y="59" type="curve" smooth="yes"/>
      <point x="162" y="26"/>
      <point x="184" y="6"/>
    </contour>
  </outline>
</glyph>
<glyph name="U0717Fina" format="2">
  <advance width="1139"/>
  <unicode hex="01F5"/>
  <note>
U0717Fina
</note>
  <anchor x="345" y="750" name="class0"/>
  <anchor x="480" y="-150" name="class0_"/>
  <anchor x="330" y="750" name="class1"/>
  <anchor x="420" y="-165" name="class2"/>
  <anchor x="435" y="-135" name="class3"/>
  <outline>
    <contour>
      <point x="738" y="-293" type="curve" smooth="yes"/>
      <point x="745" y="-293" type="line"/>
      <point x="844" y="-250"/>
      <point x="977" y="-21"/>
      <point x="984" y="63" type="curve"/>
      <point x="1016" y="21"/>
      <point x="1051" y="0"/>
      <point x="1088" y="0" type="curve" smooth="yes"/>
      <point x="1153" y="0" type="line"/>
      <point x="1153" y="155" type="line"/>
      <point x="1085" y="155" type="line" smooth="yes"/>
      <point x="1030" y="155"/>
      <point x="1003" y="230"/>
      <point x="1003" y="379" type="curve" smooth="yes"/>
      <point x="1003" y="400" type="line" smooth="yes"/>
      <point x="996" y="564"/>
      <point x="987" y="651"/>
      <point x="978" y="661" type="curve" smooth="yes"/>
      <point x="975" y="664"/>
      <point x="973" y="665"/>
      <point x="970" y="665" type="curve" smooth="yes"/>
      <point x="963" y="665"/>
      <point x="956" y="656"/>
      <point x="949" y="638" type="curve" smooth="yes"/>
      <point x="938" y="613"/>
      <point x="914" y="599"/>
      <point x="876" y="596" type="curve"/>
      <point x="151" y="596" type="line"/>
      <point x="124" y="593"/>
      <point x="102" y="536"/>
      <point x="86" y="426" type="curve" smooth="yes"/>
      <point x="82" y="397"/>
      <point x="80" y="369"/>
      <point x="80" y="342" type="curve" smooth="yes"/>
      <point x="80" y="263"/>
      <point x="97" y="189"/>
      <point x="131" y="118" type="curve" smooth="yes"/>
      <point x="172" y="32"/>
      <point x="257" y="-11"/>
      <point x="388" y="-11" type="curve" smooth="yes"/>
      <point x="436" y="-9" type="line" smooth="yes"/>
      <point x="543" y="-4"/>
      <point x="617" y="38"/>
      <point x="658" y="116" type="curve" smooth="yes"/>
      <point x="689" y="175"/>
      <point x="704" y="241"/>
      <point x="704" y="314" type="curve" smooth="yes"/>
      <point x="704" y="336"/>
      <point x="703" y="358"/>
      <point x="700" y="381" type="curve"/>
      <point x="678" y="449" type="line"/>
      <point x="880" y="449" type="line"/>
      <point x="907" y="342"/>
      <point x="920" y="252"/>
      <point x="920" y="178" type="curve" smooth="yes"/>
      <point x="920" y="148" type="line"/>
      <point x="911" y="-11"/>
      <point x="814" y="-167"/>
      <point x="766" y="-216" type="curve" smooth="yes"/>
      <point x="742" y="-241"/>
      <point x="727" y="-260"/>
      <point x="722" y="-274" type="curve" smooth="yes"/>
      <point x="721" y="-277"/>
      <point x="720" y="-280"/>
      <point x="720" y="-282" type="curve" smooth="yes"/>
      <point x="720" y="-289"/>
      <point x="726" y="-293"/>
    </contour>
    <contour>
      <point x="445" y="155" type="curve" smooth="yes"/>
      <point x="371" y="155"/>
      <point x="316" y="171"/>
      <point x="279" y="202" type="curve" smooth="yes"/>
      <point x="245" y="231"/>
      <point x="228" y="300"/>
      <point x="228" y="409" type="curve" smooth="yes"/>
      <point x="228" y="433" type="line"/>
      <point x="265" y="440"/>
      <point x="300" y="443"/>
      <point x="333" y="443" type="curve" smooth="yes"/>
      <point x="382" y="443"/>
      <point x="427" y="436"/>
      <point x="469" y="423" type="curve" smooth="yes"/>
      <point x="534" y="402"/>
      <point x="566" y="358"/>
      <point x="566" y="292" type="curve" smooth="yes"/>
      <point x="566" y="272" type="line"/>
      <point x="559" y="194"/>
      <point x="518" y="155"/>
    </contour>
  </outline>
</glyph>
<glyph name="U0719Fina" format="2">
  <advance width="726"/>
  <unicode hex="01F7"/>
  <note>
U0719Fina
</note>
  <anchor x="165" y="690" name="class0"/>
  <anchor x="375" y="-315" name="class0_"/>
  <anchor x="195" y="675" name="class1"/>
  <anchor x="450" y="-345" name="class2"/>
  <anchor x="465" y="-390" name="class3"/>
  <outline>
    <contour>
      <point x="364" y="-237" type="curve" smooth="yes"/>
      <point x="442" y="-237"/>
      <point x="503" y="-197"/>
      <point x="546" y="-117" type="curve" smooth="yes"/>
      <point x="573" y="-69"/>
      <point x="586" y="-20"/>
      <point x="586" y="31" type="curve"/>
      <point x="661" y="-1" type="line"/>
      <point x="742" y="-1" type="line"/>
      <point x="742" y="155" type="line"/>
      <point x="557" y="155" type="line"/>
      <point x="549" y="198"/>
      <point x="547" y="212"/>
      <point x="496" y="289" type="curve" smooth="yes"/>
      <point x="470" y="327"/>
      <point x="423" y="371"/>
      <point x="355" y="420" type="curve"/>
      <point x="332" y="439"/>
      <point x="287" y="457"/>
      <point x="220" y="475" type="curve"/>
      <point x="223" y="487"/>
      <point x="233" y="498"/>
      <point x="250" y="507" type="curve"/>
      <point x="255" y="514"/>
      <point x="258" y="519"/>
      <point x="258" y="523" type="curve" smooth="yes"/>
      <point x="258" y="528"/>
      <point x="252" y="531"/>
      <point x="240" y="531" type="curve" smooth="yes"/>
      <point x="235" y="531" type="line"/>
      <point x="168" y="495"/>
      <point x="125" y="454"/>
      <point x="106" y="409" type="curve" smooth="yes"/>
      <point x="90" y="369"/>
      <point x="82" y="337"/>
      <point x="82" y="314" type="curve" smooth="yes"/>
      <point x="82" y="311"/>
      <point x="82" y="307"/>
      <point x="83" y="304" type="curve"/>
      <point x="88" y="255"/>
      <point x="100" y="191"/>
      <point x="212" y="116" type="curve"/>
      <point x="383" y="41"/>
      <point x="469" y="-13"/>
      <point x="469" y="-46" type="curve" smooth="yes"/>
      <point x="469" y="-48"/>
      <point x="469" y="-50"/>
      <point x="468" y="-51" type="curve"/>
      <point x="464" y="-119"/>
      <point x="390" y="-185"/>
      <point x="310" y="-192" type="curve"/>
      <point x="307" y="-191"/>
      <point x="304" y="-190"/>
      <point x="301" y="-190" type="curve" smooth="yes"/>
      <point x="294" y="-190"/>
      <point x="290" y="-195"/>
      <point x="290" y="-206" type="curve" smooth="yes"/>
      <point x="290" y="-211"/>
      <point x="291" y="-218"/>
      <point x="293" y="-227" type="curve"/>
      <point x="318" y="-234"/>
      <point x="342" y="-237"/>
    </contour>
  </outline>
</glyph>
<glyph name="U071aInit" format="2">
  <advance width="1313"/>
  <unicode hex="01F8"/>
  <note>
U071aInit
</note>
  <anchor x="600" y="540" name="class0"/>
  <anchor x="525" y="-150" name="class0_"/>
  <anchor x="615" y="540" name="class1"/>
  <anchor x="735" y="-150" name="class2"/>
  <anchor x="720" y="-150" name="class3"/>
  <outline>
    <contour>
      <point x="726" y="-19" type="curve" smooth="yes"/>
      <point x="738" y="-19"/>
      <point x="750" y="-18"/>
      <point x="763" y="-17" type="curve" smooth="yes"/>
      <point x="863" y="-7"/>
      <point x="919" y="22"/>
      <point x="930" y="71" type="curve"/>
      <point x="999" y="18"/>
      <point x="1077" y="-9"/>
      <point x="1163" y="-9" type="curve" smooth="yes"/>
      <point x="1188" y="-9"/>
      <point x="1213" y="-7"/>
      <point x="1240" y="-2" type="curve"/>
      <point x="1246" y="17"/>
      <point x="1249" y="34"/>
      <point x="1249" y="50" type="curve" smooth="yes"/>
      <point x="1249" y="100"/>
      <point x="1219" y="135"/>
      <point x="1160" y="155" type="curve"/>
      <point x="1158" y="155" type="line" smooth="yes"/>
      <point x="1051" y="155"/>
      <point x="957" y="250"/>
      <point x="878" y="439" type="curve"/>
      <point x="834" y="388"/>
      <point x="799" y="346"/>
      <point x="774" y="311" type="curve"/>
      <point x="806" y="270"/>
      <point x="822" y="235"/>
      <point x="822" y="206" type="curve" smooth="yes"/>
      <point x="822" y="199"/>
      <point x="821" y="193"/>
      <point x="820" y="188" type="curve"/>
      <point x="787" y="163"/>
      <point x="746" y="150"/>
      <point x="699" y="150" type="curve" smooth="yes"/>
      <point x="676" y="150"/>
      <point x="651" y="153"/>
      <point x="625" y="159" type="curve" smooth="yes"/>
      <point x="544" y="178"/>
      <point x="464" y="268"/>
      <point x="384" y="430" type="curve"/>
      <point x="289" y="270" type="line"/>
      <point x="342" y="198" type="line"/>
      <point x="379" y="155" type="line"/>
      <point x="-20" y="155" type="line"/>
      <point x="-20" y="0" type="line"/>
      <point x="414" y="0" type="line"/>
      <point x="477" y="10"/>
      <point x="509" y="34"/>
      <point x="509" y="72" type="curve"/>
      <point x="570" y="11"/>
      <point x="642" y="-19"/>
    </contour>
  </outline>
</glyph>
<glyph name="U071bInit" format="2">
  <advance width="1305"/>
  <unicode hex="01FB"/>
  <note>
U071bInit
</note>
  <anchor x="720" y="615" name="class0"/>
  <anchor x="435" y="-180" name="class0_"/>
  <anchor x="675" y="600" name="class1"/>
  <anchor x="375" y="-285" name="class2"/>
  <anchor x="450" y="-315" name="class3"/>
  <outline>
    <contour>
      <point x="861" y="-534" type="curve" smooth="yes"/>
      <point x="894" y="-534"/>
      <point x="931" y="-496"/>
      <point x="972" y="-421" type="curve" smooth="yes"/>
      <point x="1068" y="-258"/>
      <point x="1140" y="-120"/>
      <point x="1189" y="-8" type="curve"/>
      <point x="1205" y="42" type="line"/>
      <point x="1162" y="155" type="line"/>
      <point x="620" y="155" type="line"/>
      <point x="221" y="1057" type="line"/>
      <point x="112" y="936" type="line"/>
      <point x="465" y="155" type="line"/>
      <point x="-19" y="155" type="line"/>
      <point x="-19" y="0" type="line"/>
      <point x="525" y="0" type="line"/>
      <point x="792" y="-468" type="line"/>
      <point x="813" y="-512"/>
      <point x="836" y="-534"/>
    </contour>
    <contour>
      <point x="895" y="-363" type="line"/>
      <point x="710" y="0" type="line"/>
      <point x="1085" y="0" type="line"/>
    </contour>
  </outline>
</glyph>
<glyph name="U071bMedi" format="2">
  <advance width="1342"/>
  <unicode hex="01FC"/>
  <note>
U071bMedi
</note>
  <anchor x="660" y="720" name="class0"/>
  <anchor x="435" y="-180" name="class0_"/>
  <anchor x="720" y="630" name="class1"/>
  <anchor x="405" y="-300" name="class2"/>
  <anchor x="405" y="-240" name="class3"/>
  <outline>
    <contour>
      <point x="861" y="-534" type="curve" smooth="yes"/>
      <point x="894" y="-534"/>
      <point x="931" y="-496"/>
      <point x="972" y="-421" type="curve" smooth="yes"/>
      <point x="1068" y="-258"/>
      <point x="1140" y="-120"/>
      <point x="1189" y="-8" type="curve"/>
      <point x="1205" y="42" type="line"/>
      <point x="1242" y="0" type="line"/>
      <point x="1395" y="0" type="line"/>
      <point x="1395" y="155" type="line"/>
      <point x="620" y="155" type="line"/>
      <point x="221" y="1057" type="line"/>
      <point x="112" y="936" type="line"/>
      <point x="465" y="155" type="line"/>
      <point x="-19" y="155" type="line"/>
      <point x="-19" y="0" type="line"/>
      <point x="525" y="0" type="line"/>
      <point x="792" y="-468" type="line"/>
      <point x="813" y="-512"/>
      <point x="836" y="-534"/>
    </contour>
    <contour>
      <point x="895" y="-363" type="line"/>
      <point x="710" y="0" type="line"/>
      <point x="1085" y="0" type="line"/>
    </contour>
  </outline>
</glyph>
<glyph name="U071dFina" format="2">
  <advance width="999"/>
  <unicode hex="0203"/>
  <note>
U071dFina
</note>
  <anchor x="540" y="630" name="class0"/>
  <anchor x="540" y="-150" name="class0_"/>
  <anchor x="585" y="615" name="class1"/>
  <anchor x="630" y="-165" name="class2"/>
  <anchor x="675" y="-120" name="class3"/>
  <outline>
    <contour>
      <point x="287" y="0" type="curve"/>
      <point x="582" y="0" type="line" smooth="yes"/>
      <point x="637" y="1"/>
      <point x="671" y="31"/>
      <point x="684" y="91" type="curve"/>
      <point x="763" y="30"/>
      <point x="859" y="0"/>
      <point x="971" y="0" type="curve" smooth="yes"/>
      <point x="1014" y="1" type="line"/>
      <point x="1014" y="156" type="line"/>
      <point x="882" y="156" type="line"/>
      <point x="805" y="163"/>
      <point x="721" y="264"/>
      <point x="632" y="459" type="curve"/>
      <point x="588" y="408"/>
      <point x="553" y="366"/>
      <point x="528" y="331" type="curve"/>
      <point x="565" y="284"/>
      <point x="583" y="237"/>
      <point x="583" y="190" type="curve" smooth="yes"/>
      <point x="583" y="180" type="line"/>
      <point x="560" y="166"/>
      <point x="502" y="159"/>
      <point x="410" y="159" type="curve" smooth="yes"/>
      <point x="311" y="161" type="line"/>
      <point x="250" y="168"/>
      <point x="204" y="201"/>
      <point x="173" y="262" type="curve" smooth="yes"/>
      <point x="146" y="315"/>
      <point x="112" y="396"/>
      <point x="73" y="503" type="curve"/>
      <point x="68" y="465" type="line" smooth="yes"/>
      <point x="63" y="421"/>
      <point x="60" y="380"/>
      <point x="60" y="343" type="curve" smooth="yes"/>
      <point x="60" y="293"/>
      <point x="65" y="250"/>
      <point x="74" y="213" type="curve" smooth="yes"/>
      <point x="89" y="148"/>
      <point x="118" y="94"/>
      <point x="161" y="51" type="curve"/>
      <point x="186" y="22"/>
      <point x="228" y="5"/>
    </contour>
  </outline>
</glyph>
<glyph name="U071fInit" format="2">
  <advance width="1127"/>
  <unicode hex="0205"/>
  <note>
U071fInit
</note>
  <anchor x="450" y="765" name="class0"/>
  <anchor x="495" y="-135" name="class0_"/>
  <anchor x="465" y="750" name="class1"/>
  <anchor x="510" y="-150" name="class2"/>
  <anchor x="480" y="-120" name="class3"/>
  <outline>
    <contour>
      <point x="-21" y="0" type="line"/>
      <point x="992" y="0" type="line"/>
      <point x="1040" y="119" type="line"/>
      <point x="1001" y="232"/>
      <point x="902" y="358"/>
      <point x="741" y="490" type="curve" smooth="yes"/>
      <point x="660" y="555"/>
      <point x="588" y="597"/>
      <point x="523" y="615" type="curve" smooth="yes"/>
      <point x="476" y="628"/>
      <point x="437" y="634"/>
      <point x="404" y="634" type="curve" smooth="yes"/>
      <point x="391" y="634"/>
      <point x="379" y="633"/>
      <point x="368" y="631" type="curve" smooth="yes"/>
      <point x="291" y="616"/>
      <point x="230" y="589"/>
      <point x="194" y="518" type="curve" smooth="yes"/>
      <point x="185" y="499"/>
      <point x="180" y="478"/>
      <point x="180" y="455" type="curve" smooth="yes"/>
      <point x="180" y="434"/>
      <point x="184" y="410"/>
      <point x="192" y="384" type="curve"/>
      <point x="225" y="366" type="line"/>
      <point x="234" y="407"/>
      <point x="258" y="439"/>
      <point x="297" y="460" type="curve" smooth="yes"/>
      <point x="312" y="468"/>
      <point x="332" y="472"/>
      <point x="355" y="472" type="curve" smooth="yes"/>
      <point x="394" y="472"/>
      <point x="444" y="462"/>
      <point x="505" y="441" type="curve" smooth="yes"/>
      <point x="604" y="406"/>
      <point x="724" y="311"/>
      <point x="865" y="155" type="curve"/>
      <point x="-21" y="155" type="line"/>
    </contour>
  </outline>
</glyph>
<glyph name="U071fFina" format="2">
  <advance width="1031"/>
  <unicode hex="0207"/>
  <note>
U071fFina
</note>
  <anchor x="405" y="570" name="class0"/>
  <anchor x="315" y="-330" name="class0_"/>
  <anchor x="450" y="585" name="class1"/>
  <anchor x="645" y="-75" name="class2"/>
  <anchor x="645" y="-105" name="class3"/>
  <outline>
    <contour>
      <point x="1064" y="-620" type="line"/>
      <point x="1085" y="-620" type="line"/>
      <point x="1041" y="-461" type="line"/>
      <point x="993" y="-315"/>
      <point x="948" y="-170"/>
      <point x="906" y="-26" type="curve"/>
      <point x="901" y="0" type="line"/>
      <point x="1046" y="0" type="line"/>
      <point x="1045" y="155" type="line"/>
      <point x="860" y="155" type="line"/>
      <point x="848" y="194"/>
      <point x="834" y="230"/>
      <point x="819" y="265" type="curve" smooth="yes"/>
      <point x="782" y="349"/>
      <point x="728" y="391"/>
      <point x="657" y="391" type="curve" smooth="yes"/>
      <point x="651" y="391" type="line" smooth="yes"/>
      <point x="576" y="388"/>
      <point x="513" y="329"/>
      <point x="461" y="212" type="curve"/>
      <point x="390" y="93"/>
      <point x="335" y="32"/>
      <point x="294" y="28" type="curve"/>
      <point x="291" y="27"/>
      <point x="287" y="27"/>
      <point x="284" y="27" type="curve" smooth="yes"/>
      <point x="247" y="27"/>
      <point x="212" y="50"/>
      <point x="180" y="97" type="curve" smooth="yes"/>
      <point x="147" y="145"/>
      <point x="131" y="201"/>
      <point x="131" y="266" type="curve" smooth="yes"/>
      <point x="131" y="277" type="line"/>
      <point x="140" y="309"/>
      <point x="157" y="325"/>
      <point x="184" y="325" type="curve" smooth="yes"/>
      <point x="192" y="325"/>
      <point x="201" y="324"/>
      <point x="210" y="321" type="curve"/>
      <point x="216" y="317"/>
      <point x="224" y="315"/>
      <point x="233" y="315" type="curve" smooth="yes"/>
      <point x="243" y="315"/>
      <point x="255" y="317"/>
      <point x="268" y="321" type="curve" smooth="yes"/>
      <point x="295" y="330"/>
      <point x="309" y="357"/>
      <point x="310" y="404" type="curve"/>
      <point x="293" y="446"/>
      <point x="272" y="472"/>
      <point x="248" y="481" type="curve" smooth="yes"/>
      <point x="239" y="484"/>
      <point x="229" y="485"/>
      <point x="218" y="485" type="curve" smooth="yes"/>
      <point x="199" y="485"/>
      <point x="175" y="480"/>
      <point x="147" y="469" type="curve"/>
      <point x="82" y="418"/>
      <point x="49" y="329"/>
      <point x="49" y="204" type="curve" smooth="yes"/>
      <point x="49" y="189" type="line" smooth="yes"/>
      <point x="51" y="95"/>
      <point x="83" y="4"/>
      <point x="144" y="-84" type="curve" smooth="yes"/>
      <point x="184" y="-143"/>
      <point x="225" y="-172"/>
      <point x="268" y="-172" type="curve" smooth="yes"/>
      <point x="289" y="-172"/>
      <point x="311" y="-164"/>
      <point x="334" y="-149" type="curve" smooth="yes"/>
      <point x="400" y="-104"/>
      <point x="478" y="1"/>
      <point x="567" y="165" type="curve"/>
      <point x="596" y="192"/>
      <point x="624" y="206"/>
      <point x="651" y="206" type="curve" smooth="yes"/>
      <point x="700" y="206"/>
      <point x="745" y="158"/>
      <point x="785" y="62" type="curve" smooth="yes"/>
      <point x="967" y="-397" type="line"/>
    </contour>
  </outline>
</glyph>
<glyph name="U0720Init" format="2">
  <advance width="868"/>
  <unicode hex="0208"/>
  <note>
U0720Init
</note>
  <anchor x="615" y="855" name="class0"/>
  <anchor x="495" y="-150" name="class0_"/>
  <anchor x="600" y="930" name="class1"/>
  <anchor x="405" y="-150" name="class2"/>
  <anchor x="420" y="-150" name="class3"/>
  <outline>
    <contour>
      <point x="-16" y="0" type="line"/>
      <point x="650" y="0" type="line"/>
      <point x="691" y="9"/>
      <point x="718" y="26"/>
      <point x="731" y="51" type="curve" smooth="yes"/>
      <point x="737" y="62"/>
      <point x="740" y="76"/>
      <point x="740" y="92" type="curve" smooth="yes"/>
      <point x="740" y="110"/>
      <point x="736" y="131"/>
      <point x="729" y="155" type="curve" smooth="yes"/>
      <point x="714" y="199"/>
      <point x="646" y="346"/>
      <point x="526" y="596" type="curve" smooth="yes"/>
      <point x="422" y="812"/>
      <point x="370" y="963"/>
      <point x="370" y="1049" type="curve" smooth="yes"/>
      <point x="370" y="1063"/>
      <point x="371" y="1075"/>
      <point x="374" y="1085" type="curve" smooth="yes"/>
      <point x="378" y="1102"/>
      <point x="380" y="1115"/>
      <point x="380" y="1125" type="curve" smooth="yes"/>
      <point x="380" y="1140"/>
      <point x="376" y="1147"/>
      <point x="367" y="1147" type="curve" smooth="yes"/>
      <point x="355" y="1147"/>
      <point x="333" y="1131"/>
      <point x="302" y="1100" type="curve"/>
      <point x="217" y="1075"/>
      <point x="175" y="1028"/>
      <point x="175" y="961" type="curve" smooth="yes"/>
      <point x="175" y="951"/>
      <point x="176" y="941"/>
      <point x="178" y="930" type="curve"/>
      <point x="206" y="827"/>
      <point x="350" y="568"/>
      <point x="610" y="155" type="curve"/>
      <point x="-16" y="155" type="line"/>
    </contour>
  </outline>
</glyph>
<glyph name="U0720Fina" format="2">
  <advance width="1115"/>
  <unicode hex="020A"/>
  <note>
U0720Fina
</note>
  <anchor x="825" y="825" name="class0"/>
  <anchor x="660" y="-150" name="class0_"/>
  <anchor x="855" y="855" name="class1"/>
  <anchor x="675" y="-165" name="class2"/>
  <anchor x="645" y="-135" name="class3"/>
  <outline>
    <contour>
      <point x="217" y="0" type="curve" smooth="yes"/>
      <point x="848" y="0" type="line"/>
      <point x="876" y="6"/>
      <point x="890" y="23"/>
      <point x="890" y="52" type="curve" smooth="yes"/>
      <point x="889" y="65" type="line"/>
      <point x="908" y="28"/>
      <point x="929" y="7"/>
      <point x="951" y="0" type="curve"/>
      <point x="1128" y="0" type="line"/>
      <point x="1128" y="155" type="line"/>
      <point x="986" y="155" type="line"/>
      <point x="957" y="158"/>
      <point x="937" y="170"/>
      <point x="924" y="191" type="curve" smooth="yes"/>
      <point x="911" y="211"/>
      <point x="844" y="346"/>
      <point x="724" y="596" type="curve" smooth="yes"/>
      <point x="620" y="812"/>
      <point x="568" y="963"/>
      <point x="568" y="1049" type="curve" smooth="yes"/>
      <point x="568" y="1063"/>
      <point x="569" y="1075"/>
      <point x="572" y="1085" type="curve" smooth="yes"/>
      <point x="576" y="1102"/>
      <point x="578" y="1115"/>
      <point x="578" y="1125" type="curve" smooth="yes"/>
      <point x="578" y="1140"/>
      <point x="574" y="1147"/>
      <point x="565" y="1147" type="curve" smooth="yes"/>
      <point x="553" y="1147"/>
      <point x="531" y="1131"/>
      <point x="500" y="1100" type="curve"/>
      <point x="415" y="1075"/>
      <point x="373" y="1028"/>
      <point x="373" y="961" type="curve" smooth="yes"/>
      <point x="373" y="951"/>
      <point x="374" y="941"/>
      <point x="376" y="930" type="curve"/>
      <point x="404" y="827"/>
      <point x="548" y="568"/>
      <point x="808" y="155" type="curve"/>
      <point x="155" y="155" type="line" smooth="yes"/>
      <point x="118" y="155"/>
      <point x="88" y="185"/>
      <point x="66" y="246" type="curve" smooth="yes"/>
      <point x="58" y="269"/>
      <point x="51" y="280"/>
      <point x="46" y="280" type="curve" smooth="yes"/>
      <point x="37" y="280"/>
      <point x="32" y="248"/>
      <point x="31" y="184" type="curve"/>
      <point x="43" y="75"/>
      <point x="60" y="36"/>
      <point x="115" y="16" type="curve" smooth="yes"/>
      <point x="142" y="6"/>
      <point x="176" y="1"/>
    </contour>
  </outline>
</glyph>
<glyph name="U0721Init" format="2">
  <advance width="1288"/>
  <unicode hex="020B"/>
  <note>
U0721Init
</note>
  <anchor x="675" y="750" name="class0"/>
  <anchor x="690" y="-120" name="class0_"/>
  <anchor x="630" y="720" name="class1"/>
  <anchor x="735" y="-135" name="class2"/>
  <anchor x="705" y="-120" name="class3"/>
  <outline>
    <contour>
      <point x="1003" y="-12" type="curve" smooth="yes"/>
      <point x="1059" y="-12"/>
      <point x="1118" y="-6"/>
      <point x="1181" y="5" type="curve"/>
      <point x="1189" y="153" type="line"/>
      <point x="1180" y="459"/>
      <point x="1078" y="623"/>
      <point x="885" y="645" type="curve"/>
      <point x="790" y="637" type="line"/>
      <point x="697" y="619"/>
      <point x="621" y="525"/>
      <point x="563" y="355" type="curve"/>
      <point x="354" y="554" type="line"/>
      <point x="206" y="700" type="line"/>
      <point x="145" y="536" type="line"/>
      <point x="558" y="155" type="line"/>
      <point x="-24" y="155" type="line"/>
      <point x="-24" y="0" type="line"/>
      <point x="589" y="0" type="line"/>
      <point x="609" y="127" type="line"/>
      <point x="712" y="34"/>
      <point x="844" y="-12"/>
    </contour>
    <contour>
      <point x="994" y="152" type="curve" smooth="yes"/>
      <point x="893" y="152"/>
      <point x="787" y="194"/>
      <point x="678" y="277" type="curve"/>
      <point x="679" y="376"/>
      <point x="734" y="436"/>
      <point x="844" y="457" type="curve"/>
      <point x="983" y="448"/>
      <point x="1058" y="377"/>
      <point x="1069" y="242" type="curve"/>
      <point x="1065" y="159" type="line"/>
      <point x="1042" y="154"/>
      <point x="1018" y="152"/>
    </contour>
  </outline>
</glyph>
<glyph name="U0722Medi" format="2">
  <advance width="686"/>
  <unicode hex="020F"/>
  <note>
U0722Medi
</note>
  <anchor x="315" y="765" name="class0"/>
  <anchor x="345" y="-135" name="class0_"/>
  <anchor x="270" y="795" name="class1"/>
  <anchor x="375" y="-165" name="class2"/>
  <anchor x="390" y="-150" name="class3"/>
  <outline>
    <contour>
      <point x="-11" y="0" type="line"/>
      <point x="592" y="0" type="line"/>
      <point x="589" y="36" type="line"/>
      <point x="610" y="12"/>
      <point x="635" y="0"/>
      <point x="665" y="0" type="curve" smooth="yes"/>
      <point x="692" y="0" type="line"/>
      <point x="692" y="155" type="line"/>
      <point x="624" y="155"/>
      <point x="579" y="181"/>
      <point x="557" y="233" type="curve" smooth="yes"/>
      <point x="511" y="343"/>
      <point x="486" y="416"/>
      <point x="483" y="452" type="curve"/>
      <point x="520" y="512" type="line"/>
      <point x="499" y="601"/>
      <point x="475" y="646"/>
      <point x="446" y="646" type="curve" smooth="yes"/>
      <point x="433" y="646"/>
      <point x="419" y="637"/>
      <point x="405" y="620" type="curve"/>
      <point x="350" y="594"/>
      <point x="278" y="574"/>
      <point x="189" y="561" type="curve"/>
      <point x="232" y="375" type="line"/>
      <point x="257" y="386"/>
      <point x="280" y="391"/>
      <point x="301" y="391" type="curve" smooth="yes"/>
      <point x="378" y="391"/>
      <point x="432" y="321"/>
      <point x="463" y="182" type="curve"/>
      <point x="466" y="155" type="line"/>
      <point x="-11" y="155" type="line"/>
    </contour>
  </outline>
</glyph>
